<svg xmlns="http://www.w3.org/2000/svg" xmlns:xlink="http://www.w3.org/1999/xlink" xmlns:lucid="lucid" width="3027" height="576.88"><g transform="translate(-319 -419)" lucid:page-tab-id="0_0"><path d="M0 0h3500v1000H0z" fill="#fff"/><path d="M1580 426a6 6 0 0 1 6-6h548a6 6 0 0 1 6 6v111.56a6 6 0 0 1-6 6h-548a6 6 0 0 1-6-6z" stroke="#000" stroke-width="2" fill="#fcfcca"/><use xlink:href="#a" transform="matrix(1,0,0,1,1592,432) translate(45.548828125 63.75)"/><use xlink:href="#b" transform="matrix(1,0,0,1,1592,432) translate(207.619140625 63.75)"/><use xlink:href="#c" transform="matrix(1,0,0,1,1592,432) translate(300.197265625 63.75)"/><path d="M701.76 878.4c32.17 0 58.24 26.08 58.24 58.24 0 32.17-26.07 58.24-58.24 58.24H378.24c-32.17 0-58.24-26.07-58.24-58.24 0-32.16 26.07-58.24 58.24-58.24z" stroke="#000" stroke-width="2" fill="#e3fae3"/><use xlink:href="#d" transform="matrix(1,0,0,1,325,883.4047226041665) translate(51.09875 68.84375)"/><use xlink:href="#e" transform="matrix(1,0,0,1,325,883.4047226041665) translate(211.11828125 68.84375)"/><path d="M1859.52 544.7L725.82 873.47" stroke="#3a414a" fill="none"/><path d="M1859.64 545.15l-.17-.6h2.23z" stroke="#3a414a" stroke-width=".05" fill="#3a414a"/><path d="M711.63 877.58l12.4-8.42 2.6 8.9z" stroke="#3a414a" fill="#3a414a"/><path d="M825 884.4a6 6 0 0 1 6-6h488a6 6 0 0 1 6 6V988.9a6 6 0 0 1-6 6H831a6 6 0 0 1-6-6z" fill="#fcfcca"/><path d="M826 884.4c0 .56-.45 1-1 1s-1-.44-1-1c0-.55.45-1 1-1s1 .45 1 1zm6-6c0 .56-.45 1-1 1s-1-.44-1-1c0-.55.45-1 1-1s1 .45 1 1zm8 0c0 .56-.45 1-1 1s-1-.44-1-1c0-.55.45-1 1-1s1 .45 1 1zm8 0c0 .56-.45 1-1 1s-1-.44-1-1c0-.55.45-1 1-1s1 .45 1 1zm8 0c0 .56-.45 1-1 1s-1-.44-1-1c0-.55.45-1 1-1s1 .45 1 1zm8 0c0 .56-.45 1-1 1s-1-.44-1-1c0-.55.45-1 1-1s1 .45 1 1zm8 0c0 .56-.45 1-1 1s-1-.44-1-1c0-.55.45-1 1-1s1 .45 1 1zm8 0c0 .56-.45 1-1 1s-1-.44-1-1c0-.55.45-1 1-1s1 .45 1 1zm8 0c0 .56-.45 1-1 1s-1-.44-1-1c0-.55.45-1 1-1s1 .45 1 1zm8 0c0 .56-.45 1-1 1s-1-.44-1-1c0-.55.45-1 1-1s1 .45 1 1zm8 0c0 .56-.45 1-1 1s-1-.44-1-1c0-.55.45-1 1-1s1 .45 1 1zm8 0c0 .56-.45 1-1 1s-1-.44-1-1c0-.55.45-1 1-1s1 .45 1 1zm8 0c0 .56-.45 1-1 1s-1-.44-1-1c0-.55.45-1 1-1s1 .45 1 1zm8 0c0 .56-.45 1-1 1s-1-.44-1-1c0-.55.45-1 1-1s1 .45 1 1zm8 0c0 .56-.45 1-1 1s-1-.44-1-1c0-.55.45-1 1-1s1 .45 1 1zm8 0c0 .56-.45 1-1 1s-1-.44-1-1c0-.55.45-1 1-1s1 .45 1 1zm8 0c0 .56-.45 1-1 1s-1-.44-1-1c0-.55.45-1 1-1s1 .45 1 1zm8 0c0 .56-.45 1-1 1s-1-.44-1-1c0-.55.45-1 1-1s1 .45 1 1zm8 0c0 .56-.45 1-1 1s-1-.44-1-1c0-.55.45-1 1-1s1 .45 1 1zm8 0c0 .56-.45 1-1 1s-1-.44-1-1c0-.55.45-1 1-1s1 .45 1 1zm8 0c0 .56-.45 1-1 1s-1-.44-1-1c0-.55.45-1 1-1s1 .45 1 1zm8 0c0 .56-.45 1-1 1s-1-.44-1-1c0-.55.45-1 1-1s1 .45 1 1zm8 0c0 .56-.45 1-1 1s-1-.44-1-1c0-.55.45-1 1-1s1 .45 1 1zm8 0c0 .56-.45 1-1 1s-1-.44-1-1c0-.55.45-1 1-1s1 .45 1 1zm8 0c0 .56-.45 1-1 1s-1-.44-1-1c0-.55.45-1 1-1s1 .45 1 1zm8 0c0 .56-.45 1-1 1s-1-.44-1-1c0-.55.45-1 1-1s1 .45 1 1zm8 0c0 .56-.45 1-1 1s-1-.44-1-1c0-.55.45-1 1-1s1 .45 1 1zm8 0c0 .56-.45 1-1 1s-1-.44-1-1c0-.55.45-1 1-1s1 .45 1 1zm8 0c0 .56-.45 1-1 1s-1-.44-1-1c0-.55.45-1 1-1s1 .45 1 1zm8 0c0 .56-.45 1-1 1s-1-.44-1-1c0-.55.45-1 1-1s1 .45 1 1zm8 0c0 .56-.45 1-1 1s-1-.44-1-1c0-.55.45-1 1-1s1 .45 1 1zm8 0c0 .56-.45 1-1 1s-1-.44-1-1c0-.55.45-1 1-1s1 .45 1 1zm8 0c0 .56-.45 1-1 1s-1-.44-1-1c0-.55.45-1 1-1s1 .45 1 1zm8 0c0 .56-.45 1-1 1s-1-.44-1-1c0-.55.45-1 1-1s1 .45 1 1zm8 0c0 .56-.45 1-1 1s-1-.44-1-1c0-.55.45-1 1-1s1 .45 1 1zm8 0c0 .56-.45 1-1 1s-1-.44-1-1c0-.55.45-1 1-1s1 .45 1 1zm8 0c0 .56-.45 1-1 1s-1-.44-1-1c0-.55.45-1 1-1s1 .45 1 1zm8 0c0 .56-.45 1-1 1s-1-.44-1-1c0-.55.45-1 1-1s1 .45 1 1zm8 0c0 .56-.45 1-1 1s-1-.44-1-1c0-.55.45-1 1-1s1 .45 1 1zm8 0c0 .56-.45 1-1 1s-1-.44-1-1c0-.55.45-1 1-1s1 .45 1 1zm8 0c0 .56-.45 1-1 1s-1-.44-1-1c0-.55.45-1 1-1s1 .45 1 1zm8 0c0 .56-.45 1-1 1s-1-.44-1-1c0-.55.45-1 1-1s1 .45 1 1zm8 0c0 .56-.45 1-1 1s-1-.44-1-1c0-.55.45-1 1-1s1 .45 1 1zm8 0c0 .56-.45 1-1 1s-1-.44-1-1c0-.55.45-1 1-1s1 .45 1 1zm8 0c0 .56-.45 1-1 1s-1-.44-1-1c0-.55.45-1 1-1s1 .45 1 1zm8 0c0 .56-.45 1-1 1s-1-.44-1-1c0-.55.45-1 1-1s1 .45 1 1zm8 0c0 .56-.45 1-1 1s-1-.44-1-1c0-.55.45-1 1-1s1 .45 1 1zm8 0c0 .56-.45 1-1 1s-1-.44-1-1c0-.55.45-1 1-1s1 .45 1 1zm8 0c0 .56-.45 1-1 1s-1-.44-1-1c0-.55.45-1 1-1s1 .45 1 1zm8 0c0 .56-.45 1-1 1s-1-.44-1-1c0-.55.45-1 1-1s1 .45 1 1zm8 0c0 .56-.45 1-1 1s-1-.44-1-1c0-.55.45-1 1-1s1 .45 1 1zm8 0c0 .56-.45 1-1 1s-1-.44-1-1c0-.55.45-1 1-1s1 .45 1 1zm8 0c0 .56-.45 1-1 1s-1-.44-1-1c0-.55.45-1 1-1s1 .45 1 1zm8 0c0 .56-.45 1-1 1s-1-.44-1-1c0-.55.45-1 1-1s1 .45 1 1zm8 0c0 .56-.45 1-1 1s-1-.44-1-1c0-.55.45-1 1-1s1 .45 1 1zm8 0c0 .56-.45 1-1 1s-1-.44-1-1c0-.55.45-1 1-1s1 .45 1 1zm8 0c0 .56-.45 1-1 1s-1-.44-1-1c0-.55.45-1 1-1s1 .45 1 1zm8 0c0 .56-.45 1-1 1s-1-.44-1-1c0-.55.45-1 1-1s1 .45 1 1zm8 0c0 .56-.45 1-1 1s-1-.44-1-1c0-.55.45-1 1-1s1 .45 1 1zm8 0c0 .56-.45 1-1 1s-1-.44-1-1c0-.55.45-1 1-1s1 .45 1 1zm8 0c0 .56-.45 1-1 1s-1-.44-1-1c0-.55.45-1 1-1s1 .45 1 1zm8 0c0 .56-.45 1-1 1s-1-.44-1-1c0-.55.45-1 1-1s1 .45 1 1zm8 0c0 .56-.45 1-1 1s-1-.44-1-1c0-.55.45-1 1-1s1 .45 1 1zm6 6c0 .56-.45 1-1 1s-1-.44-1-1c0-.55.45-1 1-1s1 .45 1 1zm0 8.04c0 .55-.45 1-1 1s-1-.45-1-1 .45-1 1-1 1 .45 1 1zm0 8.04c0 .55-.45 1-1 1s-1-.45-1-1 .45-1 1-1 1 .45 1 1zm0 8.03c0 .57-.45 1-1 1s-1-.43-1-1c0-.54.45-1 1-1s1 .46 1 1zm0 8.05c0 .55-.45 1-1 1s-1-.45-1-1 .45-1 1-1 1 .45 1 1zm0 8.04c0 .54-.45 1-1 1s-1-.46-1-1c0-.56.45-1 1-1s1 .44 1 1zm0 8.02c0 .56-.45 1-1 1s-1-.44-1-1c0-.55.45-1 1-1s1 .45 1 1zm0 8.04c0 .55-.45 1-1 1s-1-.45-1-1 .45-1 1-1 1 .45 1 1zm0 8.04c0 .55-.45 1-1 1s-1-.45-1-1 .45-1 1-1 1 .45 1 1zm0 8.03c0 .56-.45 1-1 1s-1-.44-1-1c0-.55.45-1 1-1s1 .45 1 1zm0 8.04c0 .55-.45 1-1 1s-1-.45-1-1 .45-1 1-1 1 .45 1 1zm0 8.04c0 .56-.45 1-1 1s-1-.44-1-1c0-.54.45-1 1-1s1 .46 1 1zm0 8.05c0 .55-.45 1-1 1s-1-.45-1-1c0-.56.45-1 1-1s1 .44 1 1zm0 8.03c0 .55-.45 1-1 1s-1-.45-1-1 .45-1 1-1 1 .45 1 1zm-6 6c0 .55-.45 1-1 1s-1-.45-1-1 .45-1 1-1 1 .45 1 1zm-8 0c0 .55-.45 1-1 1s-1-.45-1-1 .45-1 1-1 1 .45 1 1zm-8 0c0 .55-.45 1-1 1s-1-.45-1-1 .45-1 1-1 1 .45 1 1zm-8 0c0 .55-.45 1-1 1s-1-.45-1-1 .45-1 1-1 1 .45 1 1zm-8 0c0 .55-.45 1-1 1s-1-.45-1-1 .45-1 1-1 1 .45 1 1zm-8 0c0 .55-.45 1-1 1s-1-.45-1-1 .45-1 1-1 1 .45 1 1zm-8 0c0 .55-.45 1-1 1s-1-.45-1-1 .45-1 1-1 1 .45 1 1zm-8 0c0 .55-.45 1-1 1s-1-.45-1-1 .45-1 1-1 1 .45 1 1zm-8 0c0 .55-.45 1-1 1s-1-.45-1-1 .45-1 1-1 1 .45 1 1zm-8 0c0 .55-.45 1-1 1s-1-.45-1-1 .45-1 1-1 1 .45 1 1zm-8 0c0 .55-.45 1-1 1s-1-.45-1-1 .45-1 1-1 1 .45 1 1zm-8 0c0 .55-.45 1-1 1s-1-.45-1-1 .45-1 1-1 1 .45 1 1zm-8 0c0 .55-.45 1-1 1s-1-.45-1-1 .45-1 1-1 1 .45 1 1zm-8 0c0 .55-.45 1-1 1s-1-.45-1-1 .45-1 1-1 1 .45 1 1zm-8 0c0 .55-.45 1-1 1s-1-.45-1-1 .45-1 1-1 1 .45 1 1zm-8 0c0 .55-.45 1-1 1s-1-.45-1-1 .45-1 1-1 1 .45 1 1zm-8 0c0 .55-.45 1-1 1s-1-.45-1-1 .45-1 1-1 1 .45 1 1zm-8 0c0 .55-.45 1-1 1s-1-.45-1-1 .45-1 1-1 1 .45 1 1zm-8 0c0 .55-.45 1-1 1s-1-.45-1-1 .45-1 1-1 1 .45 1 1zm-8 0c0 .55-.45 1-1 1s-1-.45-1-1 .45-1 1-1 1 .45 1 1zm-8 0c0 .55-.45 1-1 1s-1-.45-1-1 .45-1 1-1 1 .45 1 1zm-8 0c0 .55-.45 1-1 1s-1-.45-1-1 .45-1 1-1 1 .45 1 1zm-8 0c0 .55-.45 1-1 1s-1-.45-1-1 .45-1 1-1 1 .45 1 1zm-8 0c0 .55-.45 1-1 1s-1-.45-1-1 .45-1 1-1 1 .45 1 1zm-8 0c0 .55-.45 1-1 1s-1-.45-1-1 .45-1 1-1 1 .45 1 1zm-8 0c0 .55-.45 1-1 1s-1-.45-1-1 .45-1 1-1 1 .45 1 1zm-8 0c0 .55-.45 1-1 1s-1-.45-1-1 .45-1 1-1 1 .45 1 1zm-8 0c0 .55-.45 1-1 1s-1-.45-1-1 .45-1 1-1 1 .45 1 1zm-8 0c0 .55-.45 1-1 1s-1-.45-1-1 .45-1 1-1 1 .45 1 1zm-8 0c0 .55-.45 1-1 1s-1-.45-1-1 .45-1 1-1 1 .45 1 1zm-8 0c0 .55-.45 1-1 1s-1-.45-1-1 .45-1 1-1 1 .45 1 1zm-8 0c0 .55-.45 1-1 1s-1-.45-1-1 .45-1 1-1 1 .45 1 1zm-8 0c0 .55-.45 1-1 1s-1-.45-1-1 .45-1 1-1 1 .45 1 1zm-8 0c0 .55-.45 1-1 1s-1-.45-1-1 .45-1 1-1 1 .45 1 1zm-8 0c0 .55-.45 1-1 1s-1-.45-1-1 .45-1 1-1 1 .45 1 1zm-8 0c0 .55-.45 1-1 1s-1-.45-1-1 .45-1 1-1 1 .45 1 1zm-8 0c0 .55-.45 1-1 1s-1-.45-1-1 .45-1 1-1 1 .45 1 1zm-8 0c0 .55-.45 1-1 1s-1-.45-1-1 .45-1 1-1 1 .45 1 1zm-8 0c0 .55-.45 1-1 1s-1-.45-1-1 .45-1 1-1 1 .45 1 1zm-8 0c0 .55-.45 1-1 1s-1-.45-1-1 .45-1 1-1 1 .45 1 1zm-8 0c0 .55-.45 1-1 1s-1-.45-1-1 .45-1 1-1 1 .45 1 1zm-8 0c0 .55-.45 1-1 1s-1-.45-1-1 .45-1 1-1 1 .45 1 1zm-8 0c0 .55-.45 1-1 1s-1-.45-1-1 .45-1 1-1 1 .45 1 1zm-8 0c0 .55-.45 1-1 1s-1-.45-1-1 .45-1 1-1 1 .45 1 1zm-8 0c0 .55-.45 1-1 1s-1-.45-1-1 .45-1 1-1 1 .45 1 1zm-8 0c0 .55-.45 1-1 1s-1-.45-1-1 .45-1 1-1 1 .45 1 1zm-8 0c0 .55-.45 1-1 1s-1-.45-1-1 .45-1 1-1 1 .45 1 1zm-8 0c0 .55-.45 1-1 1s-1-.45-1-1 .45-1 1-1 1 .45 1 1zm-8 0c0 .55-.45 1-1 1s-1-.45-1-1 .45-1 1-1 1 .45 1 1zm-8 0c0 .55-.45 1-1 1s-1-.45-1-1 .45-1 1-1 1 .45 1 1zm-8 0c0 .55-.45 1-1 1s-1-.45-1-1 .45-1 1-1 1 .45 1 1zm-8 0c0 .55-.45 1-1 1s-1-.45-1-1 .45-1 1-1 1 .45 1 1zm-8 0c0 .55-.45 1-1 1s-1-.45-1-1 .45-1 1-1 1 .45 1 1zm-8 0c0 .55-.45 1-1 1s-1-.45-1-1 .45-1 1-1 1 .45 1 1zm-8 0c0 .55-.45 1-1 1s-1-.45-1-1 .45-1 1-1 1 .45 1 1zm-8 0c0 .55-.45 1-1 1s-1-.45-1-1 .45-1 1-1 1 .45 1 1zm-8 0c0 .55-.45 1-1 1s-1-.45-1-1 .45-1 1-1 1 .45 1 1zm-8 0c0 .55-.45 1-1 1s-1-.45-1-1 .45-1 1-1 1 .45 1 1zm-8 0c0 .55-.45 1-1 1s-1-.45-1-1 .45-1 1-1 1 .45 1 1zm-8 0c0 .55-.45 1-1 1s-1-.45-1-1 .45-1 1-1 1 .45 1 1zm-8 0c0 .55-.45 1-1 1s-1-.45-1-1 .45-1 1-1 1 .45 1 1zm-8 0c0 .55-.45 1-1 1s-1-.45-1-1 .45-1 1-1 1 .45 1 1zm-6-6c0 .55-.45 1-1 1s-1-.45-1-1 .45-1 1-1 1 .45 1 1zm0-8.03c0 .55-.45 1-1 1s-1-.45-1-1c0-.56.45-1 1-1s1 .44 1 1zm0-8.04c0 .56-.45 1-1 1s-1-.44-1-1c0-.54.45-1 1-1s1 .46 1 1zm0-8.03c0 .55-.45 1-1 1s-1-.45-1-1 .45-1 1-1 1 .45 1 1zm0-8.03c0 .55-.45 1-1 1s-1-.45-1-1c0-.56.45-1 1-1s1 .44 1 1zm0-8.04c0 .55-.45 1-1 1s-1-.45-1-1 .45-1 1-1 1 .45 1 1zm0-8.04c0 .55-.45 1-1 1s-1-.45-1-1 .45-1 1-1 1 .45 1 1zm0-8.03c0 .55-.45 1-1 1s-1-.45-1-1c0-.56.45-1 1-1s1 .44 1 1zm0-8.04c0 .54-.45 1-1 1s-1-.46-1-1c0-.56.45-1 1-1s1 .44 1 1zm0-8.05c0 .55-.45 1-1 1s-1-.45-1-1 .45-1 1-1 1 .45 1 1zm0-8.03c0 .55-.45 1-1 1s-1-.45-1-1c0-.56.45-1 1-1s1 .44 1 1zm0-8.04c0 .55-.45 1-1 1s-1-.45-1-1 .45-1 1-1 1 .45 1 1zm0-8.04c0 .55-.45 1-1 1s-1-.45-1-1 .45-1 1-1 1 .45 1 1z"/><use xlink:href="#f" transform="matrix(1,0,0,1,837,890.4047226041665) translate(59.38671875 62)"/><use xlink:href="#g" transform="matrix(1,0,0,1,837,890.4047226041665) translate(192.0234375 62)"/><use xlink:href="#h" transform="matrix(1,0,0,1,837,890.4047226041665) translate(331.8671875 62)"/><path d="M1860.04 544.75c0 .28-.22.5-.5.5s-.5-.22-.5-.5c0-.27.22-.5.5-.5s.5.23.5.5zm-3.68 1.56c0 .3-.23.5-.5.5-.28 0-.5-.2-.5-.5 0-.26.22-.5.5-.5.27 0 .5.24.5.5zm-3.68 1.57c0 .28-.23.5-.5.5-.28 0-.5-.22-.5-.5 0-.27.22-.5.5-.5.27 0 .5.23.5.5zm-3.7 1.56c0 .28-.2.5-.5.5-.26 0-.5-.22-.5-.5 0-.27.24-.5.5-.5.3 0 .5.23.5.5zm-3.67 1.57c0 .27-.2.5-.5.5-.26 0-.5-.23-.5-.5 0-.28.24-.5.5-.5.3 0 .5.22.5.5zm-3.67 1.56c0 .27-.22.5-.5.5s-.5-.23-.5-.5c0-.28.22-.5.5-.5s.5.22.5.5zm-3.68 1.56c0 .27-.22.5-.5.5s-.5-.23-.5-.5c0-.28.22-.5.5-.5s.5.22.5.5zm-3.68 1.56c0 .28-.22.5-.5.5s-.5-.22-.5-.5.22-.5.5-.5.5.22.5.5zm-3.68 1.56c0 .28-.24.5-.5.5-.3 0-.5-.22-.5-.5s.2-.5.5-.5c.26 0 .5.22.5.5zm-3.7 1.56c0 .28-.22.5-.5.5-.27 0-.5-.22-.5-.5 0-.27.23-.5.5-.5.28 0 .5.23.5.5zm-3.68 1.56c0 .28-.22.5-.5.5-.27 0-.5-.22-.5-.5 0-.27.23-.5.5-.5.28 0 .5.23.5.5zm-3.68 1.56c0 .28-.22.5-.5.5-.27 0-.5-.22-.5-.5 0-.27.23-.5.5-.5.28 0 .5.23.5.5zm-3.68 1.56c0 .28-.22.5-.5.5s-.5-.22-.5-.5c0-.27.22-.5.5-.5s.5.23.5.5zm-3.68 1.56c0 .28-.23.5-.5.5-.28 0-.5-.22-.5-.5 0-.27.22-.5.5-.5.27 0 .5.23.5.5zm-3.68 1.57c0 .28-.23.5-.5.5-.28 0-.5-.22-.5-.5 0-.27.22-.5.5-.5.27 0 .5.23.5.5zm-3.68 1.57c0 .27-.23.5-.5.5-.28 0-.5-.23-.5-.5 0-.28.22-.5.5-.5.27 0 .5.22.5.5zm-3.7 1.56c0 .27-.2.5-.5.5-.26 0-.5-.23-.5-.5 0-.28.24-.5.5-.5.3 0 .5.22.5.5zm-3.67 1.56c0 .27-.22.5-.5.5-.27 0-.5-.23-.5-.5 0-.3.23-.5.5-.5.28 0 .5.2.5.5zm-3.68 1.55c0 .28-.22.5-.5.5s-.5-.22-.5-.5.22-.5.5-.5.5.22.5.5zm-3.68 1.56c0 .3-.23.5-.5.5-.3 0-.5-.2-.5-.5 0-.26.2-.5.5-.5.27 0 .5.24.5.5zm-3.7 1.57c0 .28-.22.5-.5.5-.27 0-.5-.22-.5-.5 0-.27.23-.5.5-.5.28 0 .5.23.5.5zm-3.67 1.56c0 .28-.23.5-.5.5-.28 0-.5-.22-.5-.5 0-.27.22-.5.5-.5.27 0 .5.23.5.5zm-3.7 1.56c0 .27-.2.5-.5.5-.26 0-.5-.23-.5-.5 0-.28.24-.5.5-.5.3 0 .5.22.5.5zm-3.67 1.55c0 .28-.22.5-.5.5-.27 0-.5-.22-.5-.5 0-.27.23-.5.5-.5.28 0 .5.23.5.5zm-3.68 1.57c0 .27-.22.5-.5.5s-.5-.23-.5-.5c0-.28.22-.5.5-.5s.5.22.5.5zm-3.68 1.56c0 .27-.22.5-.5.5s-.5-.23-.5-.5c0-.28.22-.5.5-.5s.5.22.5.5zm-3.68 1.56c0 .27-.23.5-.5.5-.28 0-.5-.23-.5-.5 0-.28.22-.5.5-.5.27 0 .5.22.5.5zm-3.68 1.56c0 .28-.23.5-.5.5-.28 0-.5-.22-.5-.5s.22-.5.5-.5c.27 0 .5.22.5.5zm-3.7 1.56c0 .28-.2.5-.5.5-.26 0-.5-.22-.5-.5s.24-.5.5-.5c.3 0 .5.22.5.5zm-3.67 1.56c0 .28-.22.5-.5.5-.27 0-.5-.22-.5-.5 0-.27.23-.5.5-.5.28 0 .5.23.5.5zm-3.68 1.56c0 .28-.23.5-.5.5-.28 0-.5-.22-.5-.5 0-.27.22-.5.5-.5.27 0 .5.23.5.5zm-3.7 1.56c0 .28-.2.5-.5.5-.27 0-.5-.22-.5-.5 0-.27.23-.5.5-.5.3 0 .5.23.5.5zm-3.67 1.57c0 .28-.23.5-.5.5-.28 0-.5-.22-.5-.5 0-.27.22-.5.5-.5.27 0 .5.23.5.5zm-3.68 1.57c0 .27-.23.5-.5.5-.28 0-.5-.23-.5-.5 0-.28.22-.5.5-.5.27 0 .5.22.5.5zm-3.68 1.56c0 .27-.23.5-.5.5-.28 0-.5-.23-.5-.5 0-.28.22-.5.5-.5.27 0 .5.22.5.5zm-3.7 1.56c0 .26-.2.5-.5.5-.26 0-.5-.24-.5-.5 0-.3.24-.5.5-.5.3 0 .5.2.5.5zm-3.67 1.55c0 .27-.22.5-.5.5-.27 0-.5-.23-.5-.5 0-.28.23-.5.5-.5.28 0 .5.22.5.5zm-3.68 1.56c0 .3-.22.5-.5.5s-.5-.2-.5-.5c0-.27.22-.5.5-.5s.5.23.5.5zm-3.68 1.57c0 .28-.23.5-.5.5-.28 0-.5-.22-.5-.5s.22-.5.5-.5c.27 0 .5.22.5.5zm-3.68 1.56c0 .28-.23.5-.5.5-.28 0-.5-.22-.5-.5 0-.27.22-.5.5-.5.27 0 .5.23.5.5zm-3.68 1.56c0 .27-.23.5-.5.5-.28 0-.5-.23-.5-.5 0-.28.22-.5.5-.5.27 0 .5.22.5.5zm-3.7 1.55c0 .28-.2.5-.5.5-.26 0-.5-.22-.5-.5 0-.27.24-.5.5-.5.3 0 .5.23.5.5zm-3.67 1.57c0 .27-.2.5-.5.5-.26 0-.5-.23-.5-.5 0-.28.24-.5.5-.5.3 0 .5.22.5.5zm-3.67 1.56c0 .27-.22.5-.5.5s-.5-.23-.5-.5c0-.28.22-.5.5-.5s.5.22.5.5zm-3.68 1.56c0 .27-.22.5-.5.5s-.5-.23-.5-.5c0-.28.22-.5.5-.5s.5.22.5.5zm-3.68 1.56c0 .27-.23.5-.5.5-.28 0-.5-.23-.5-.5 0-.28.22-.5.5-.5.27 0 .5.22.5.5zm-3.68 1.56c0 .28-.24.5-.5.5-.3 0-.5-.22-.5-.5s.2-.5.5-.5c.26 0 .5.22.5.5zm-3.7 1.56c0 .28-.22.5-.5.5-.27 0-.5-.22-.5-.5s.23-.5.5-.5c.28 0 .5.22.5.5zm-3.68 1.56c0 .28-.22.5-.5.5-.27 0-.5-.22-.5-.5 0-.27.23-.5.5-.5.28 0 .5.23.5.5zm-3.68 1.56c0 .28-.22.5-.5.5s-.5-.22-.5-.5c0-.27.22-.5.5-.5s.5.23.5.5zm-3.68 1.56c0 .28-.23.5-.5.5-.28 0-.5-.22-.5-.5 0-.27.22-.5.5-.5.27 0 .5.23.5.5zm-3.68 1.57c0 .27-.23.5-.5.5-.28 0-.5-.23-.5-.5 0-.28.22-.5.5-.5.27 0 .5.22.5.5zm-3.68 1.56c0 .27-.23.5-.5.5-.28 0-.5-.23-.5-.5 0-.28.22-.5.5-.5.27 0 .5.22.5.5zm-3.68 1.56c0 .26-.23.5-.5.5-.28 0-.5-.24-.5-.5 0-.3.22-.5.5-.5.27 0 .5.2.5.5zm-3.7 1.55c0 .27-.2.5-.5.5-.26 0-.5-.23-.5-.5 0-.28.24-.5.5-.5.3 0 .5.22.5.5zm-3.67 1.56c0 .28-.22.5-.5.5-.27 0-.5-.22-.5-.5 0-.27.23-.5.5-.5.28 0 .5.23.5.5zm-3.68 1.57c0 .28-.22.5-.5.5s-.5-.22-.5-.5.22-.5.5-.5.5.22.5.5zm-3.68 1.56c0 .28-.24.5-.5.5-.3 0-.5-.22-.5-.5 0-.27.2-.5.5-.5.26 0 .5.23.5.5zm-3.7 1.56c0 .27-.22.5-.5.5-.27 0-.5-.23-.5-.5 0-.28.23-.5.5-.5.28 0 .5.22.5.5zm-3.67 1.55c0 .28-.23.5-.5.5-.28 0-.5-.22-.5-.5 0-.27.22-.5.5-.5.27 0 .5.23.5.5zm-3.7 1.56c0 .3-.2.5-.5.5-.26 0-.5-.2-.5-.5 0-.26.24-.5.5-.5.3 0 .5.24.5.5zm-3.67 1.58c0 .27-.22.5-.5.5-.27 0-.5-.23-.5-.5 0-.28.23-.5.5-.5.28 0 .5.22.5.5zm-3.68 1.56c0 .27-.22.5-.5.5s-.5-.23-.5-.5c0-.28.22-.5.5-.5s.5.22.5.5zm-3.68 1.56c0 .27-.22.5-.5.5s-.5-.23-.5-.5c0-.28.22-.5.5-.5s.5.22.5.5zm-3.68 1.56c0 .27-.23.5-.5.5-.28 0-.5-.23-.5-.5 0-.28.22-.5.5-.5.27 0 .5.22.5.5zm-3.7 1.56c0 .27-.2.5-.5.5-.26 0-.5-.23-.5-.5 0-.28.24-.5.5-.5.3 0 .5.22.5.5zm-3.67 1.56c0 .28-.22.5-.5.5-.27 0-.5-.22-.5-.5s.23-.5.5-.5c.28 0 .5.22.5.5zm-3.68 1.56c0 .28-.22.5-.5.5-.27 0-.5-.22-.5-.5 0-.27.23-.5.5-.5.28 0 .5.23.5.5zm-3.68 1.56c0 .28-.23.5-.5.5-.3 0-.5-.22-.5-.5 0-.27.2-.5.5-.5.27 0 .5.23.5.5zm-3.7 1.56c0 .28-.2.5-.5.5-.27 0-.5-.22-.5-.5 0-.27.23-.5.5-.5.3 0 .5.23.5.5zm-3.67 1.56c0 .28-.23.5-.5.5-.28 0-.5-.22-.5-.5 0-.27.22-.5.5-.5.27 0 .5.23.5.5zm-3.68 1.57c0 .26-.23.5-.5.5-.28 0-.5-.24-.5-.5 0-.3.22-.5.5-.5.27 0 .5.2.5.5zm-3.7 1.55c0 .27-.2.5-.5.5-.26 0-.5-.23-.5-.5 0-.28.24-.5.5-.5.3 0 .5.22.5.5zm-3.67 1.56c0 .28-.22.5-.5.5-.27 0-.5-.22-.5-.5 0-.27.23-.5.5-.5.28 0 .5.23.5.5zm-3.68 1.57c0 .27-.22.5-.5.5-.27 0-.5-.23-.5-.5 0-.28.23-.5.5-.5.28 0 .5.22.5.5zm-3.68 1.56c0 .28-.23.5-.5.5-.28 0-.5-.22-.5-.5s.22-.5.5-.5c.27 0 .5.22.5.5zm-3.68 1.56c0 .27-.23.5-.5.5-.28 0-.5-.23-.5-.5 0-.3.22-.5.5-.5.27 0 .5.2.5.5zm-3.68 1.55c0 .28-.23.5-.5.5-.28 0-.5-.22-.5-.5s.22-.5.5-.5c.27 0 .5.22.5.5zm-3.7 1.56c0 .3-.2.5-.5.5-.26 0-.5-.2-.5-.5 0-.26.24-.5.5-.5.3 0 .5.24.5.5zm-3.67 1.57c0 .28-.23.5-.5.5-.28 0-.5-.22-.5-.5 0-.27.22-.5.5-.5.27 0 .5.23.5.5zm-3.7 1.56c0 .28-.2.5-.5.5-.27 0-.5-.22-.5-.5 0-.27.23-.5.5-.5.3 0 .5.23.5.5zm-3.67 1.57c0 .27-.22.5-.5.5s-.5-.23-.5-.5c0-.28.22-.5.5-.5s.5.22.5.5zm-3.68 1.56c0 .27-.23.5-.5.5-.28 0-.5-.23-.5-.5 0-.28.22-.5.5-.5.27 0 .5.22.5.5zm-3.68 1.56c0 .27-.23.5-.5.5-.28 0-.5-.23-.5-.5 0-.28.22-.5.5-.5.27 0 .5.22.5.5zm-3.68 1.56c0 .27-.24.5-.5.5-.3 0-.5-.23-.5-.5 0-.28.2-.5.5-.5.26 0 .5.22.5.5zm-3.7 1.56c0 .28-.22.5-.5.5-.27 0-.5-.22-.5-.5s.23-.5.5-.5c.28 0 .5.22.5.5zm-3.68 1.56c0 .28-.22.5-.5.5s-.5-.22-.5-.5c0-.27.22-.5.5-.5s.5.23.5.5zm-3.68 1.56c0 .28-.22.5-.5.5s-.5-.22-.5-.5c0-.27.22-.5.5-.5s.5.23.5.5zm-3.68 1.56c0 .28-.23.5-.5.5-.28 0-.5-.22-.5-.5 0-.27.22-.5.5-.5.27 0 .5.23.5.5zm-3.68 1.56c0 .28-.23.5-.5.5-.28 0-.5-.22-.5-.5 0-.27.22-.5.5-.5.27 0 .5.23.5.5zm-3.7 1.57c0 .27-.2.5-.5.5-.26 0-.5-.23-.5-.5 0-.28.24-.5.5-.5.3 0 .5.22.5.5zm-3.67 1.56c0 .28-.2.5-.5.5-.26 0-.5-.22-.5-.5 0-.27.24-.5.5-.5.3 0 .5.23.5.5zm-3.67 1.57c0 .27-.22.5-.5.5-.27 0-.5-.23-.5-.5 0-.28.23-.5.5-.5.28 0 .5.22.5.5zm-3.68 1.56c0 .27-.22.5-.5.5s-.5-.23-.5-.5c0-.28.22-.5.5-.5s.5.22.5.5zm-3.68 1.56c0 .26-.23.5-.5.5-.28 0-.5-.24-.5-.5 0-.3.22-.5.5-.5.27 0 .5.2.5.5zm-3.68 1.55c0 .28-.24.5-.5.5-.3 0-.5-.22-.5-.5s.2-.5.5-.5c.26 0 .5.22.5.5zm-3.7 1.56c0 .3-.22.5-.5.5-.27 0-.5-.2-.5-.5 0-.26.23-.5.5-.5.28 0 .5.24.5.5zm-3.68 1.57c0 .28-.22.5-.5.5-.27 0-.5-.22-.5-.5 0-.27.23-.5.5-.5.28 0 .5.23.5.5zm-3.68 1.56c0 .28-.22.5-.5.5-.27 0-.5-.22-.5-.5 0-.27.23-.5.5-.5.28 0 .5.23.5.5zm-3.68 1.56c0 .27-.22.5-.5.5-.27 0-.5-.23-.5-.5 0-.28.23-.5.5-.5.28 0 .5.22.5.5zm-3.68 1.56c0 .27-.23.5-.5.5-.28 0-.5-.23-.5-.5 0-.28.22-.5.5-.5.27 0 .5.22.5.5zm-3.68 1.56c0 .27-.23.5-.5.5-.28 0-.5-.23-.5-.5 0-.28.22-.5.5-.5.27 0 .5.22.5.5zm-3.68 1.56c0 .27-.23.5-.5.5-.28 0-.5-.23-.5-.5 0-.28.22-.5.5-.5.27 0 .5.22.5.5zm-3.7 1.56c0 .28-.2.5-.5.5-.26 0-.5-.22-.5-.5s.24-.5.5-.5c.3 0 .5.22.5.5zm-3.67 1.56c0 .28-.22.5-.5.5-.27 0-.5-.22-.5-.5s.23-.5.5-.5c.28 0 .5.22.5.5zm-3.68 1.56c0 .28-.22.5-.5.5s-.5-.22-.5-.5c0-.27.22-.5.5-.5s.5.23.5.5zm-3.68 1.56c0 .28-.23.5-.5.5-.3 0-.5-.22-.5-.5 0-.27.2-.5.5-.5.27 0 .5.23.5.5zm-3.7 1.56c0 .28-.22.5-.5.5-.27 0-.5-.22-.5-.5 0-.27.23-.5.5-.5.28 0 .5.23.5.5zm-3.67 1.56c0 .28-.23.5-.5.5-.28 0-.5-.22-.5-.5 0-.27.22-.5.5-.5.27 0 .5.23.5.5zm-3.7 1.56c0 .28-.2.5-.5.5-.26 0-.5-.22-.5-.5 0-.27.24-.5.5-.5.3 0 .5.23.5.5zm-3.67 1.57c0 .27-.22.5-.5.5-.27 0-.5-.23-.5-.5 0-.28.23-.5.5-.5.28 0 .5.22.5.5zm-3.68 1.56c0 .27-.22.5-.5.5s-.5-.23-.5-.5c0-.28.22-.5.5-.5s.5.22.5.5zm-3.68 1.56c0 .26-.22.5-.5.5s-.5-.24-.5-.5c0-.3.22-.5.5-.5s.5.2.5.5zm-3.68 1.55c0 .27-.23.5-.5.5-.28 0-.5-.23-.5-.5 0-.28.22-.5.5-.5.27 0 .5.22.5.5zm-3.68 1.56c0 .3-.23.5-.5.5-.28 0-.5-.2-.5-.5 0-.27.22-.5.5-.5.27 0 .5.23.5.5zm-3.68 1.57c0 .28-.23.5-.5.5-.28 0-.5-.22-.5-.5 0-.27.22-.5.5-.5.27 0 .5.23.5.5zm-3.7 1.56c0 .28-.2.5-.5.5-.26 0-.5-.22-.5-.5 0-.27.24-.5.5-.5.3 0 .5.23.5.5zm-3.67 1.56c0 .27-.23.5-.5.5-.28 0-.5-.23-.5-.5 0-.28.22-.5.5-.5.27 0 .5.22.5.5zm-3.7 1.55c0 .28-.2.5-.5.5-.27 0-.5-.22-.5-.5 0-.27.23-.5.5-.5.3 0 .5.23.5.5zm-3.67 1.56c0 .3-.23.5-.5.5-.28 0-.5-.2-.5-.5 0-.26.22-.5.5-.5.27 0 .5.24.5.5zm-3.68 1.58c0 .27-.23.5-.5.5-.28 0-.5-.23-.5-.5 0-.28.22-.5.5-.5.27 0 .5.22.5.5zm-3.68 1.56c0 .27-.23.5-.5.5-.28 0-.5-.23-.5-.5 0-.28.22-.5.5-.5.27 0 .5.22.5.5zm-3.7 1.56c0 .27-.2.5-.5.5-.26 0-.5-.23-.5-.5 0-.28.24-.5.5-.5.3 0 .5.22.5.5zm-3.67 1.56c0 .28-.22.5-.5.5-.27 0-.5-.22-.5-.5s.23-.5.5-.5c.28 0 .5.22.5.5zm-3.68 1.56c0 .28-.22.5-.5.5s-.5-.22-.5-.5.22-.5.5-.5.5.22.5.5zm-3.68 1.56c0 .28-.22.5-.5.5s-.5-.22-.5-.5c0-.27.22-.5.5-.5s.5.23.5.5zm-3.68 1.56c0 .28-.23.5-.5.5-.28 0-.5-.22-.5-.5 0-.27.22-.5.5-.5.27 0 .5.23.5.5zm-3.68 1.56c0 .28-.23.5-.5.5-.28 0-.5-.22-.5-.5 0-.27.22-.5.5-.5.27 0 .5.23.5.5zm-3.7 1.57c0 .27-.2.5-.5.5-.26 0-.5-.23-.5-.5 0-.28.24-.5.5-.5.3 0 .5.22.5.5zm-3.67 1.56c0 .27-.2.5-.5.5-.26 0-.5-.23-.5-.5 0-.28.24-.5.5-.5.3 0 .5.22.5.5zm-3.67 1.56c0 .26-.22.5-.5.5s-.5-.24-.5-.5c0-.3.22-.5.5-.5s.5.2.5.5zm-3.68 1.55c0 .27-.22.5-.5.5s-.5-.23-.5-.5c0-.28.22-.5.5-.5s.5.22.5.5zm-3.68 1.56c0 .3-.23.5-.5.5-.28 0-.5-.2-.5-.5 0-.27.22-.5.5-.5.27 0 .5.23.5.5zm-3.68 1.57c0 .28-.24.5-.5.5-.3 0-.5-.22-.5-.5s.2-.5.5-.5c.26 0 .5.22.5.5zm-3.7 1.56c0 .28-.22.5-.5.5-.27 0-.5-.22-.5-.5 0-.27.23-.5.5-.5.28 0 .5.23.5.5zm-3.68 1.56c0 .27-.22.5-.5.5-.27 0-.5-.23-.5-.5 0-.28.23-.5.5-.5.28 0 .5.22.5.5zm-3.68 1.55c0 .28-.22.5-.5.5-.27 0-.5-.22-.5-.5 0-.27.23-.5.5-.5.28 0 .5.23.5.5zm-3.68 1.56c0 .3-.22.5-.5.5s-.5-.2-.5-.5c0-.26.22-.5.5-.5s.5.24.5.5zm-3.68 1.57c0 .28-.23.5-.5.5-.28 0-.5-.22-.5-.5 0-.27.22-.5.5-.5.27 0 .5.23.5.5zm-3.68 1.57c0 .27-.23.5-.5.5-.28 0-.5-.23-.5-.5 0-.28.22-.5.5-.5.27 0 .5.22.5.5zm-3.68 1.56c0 .27-.23.5-.5.5-.28 0-.5-.23-.5-.5 0-.28.22-.5.5-.5.27 0 .5.22.5.5zm-3.7 1.56c0 .27-.2.5-.5.5-.26 0-.5-.23-.5-.5 0-.28.24-.5.5-.5.3 0 .5.22.5.5zm-3.67 1.56c0 .28-.22.5-.5.5s-.5-.22-.5-.5.22-.5.5-.5.5.22.5.5zm-3.68 1.56c0 .28-.22.5-.5.5s-.5-.22-.5-.5.22-.5.5-.5.5.22.5.5zm-3.68 1.56c0 .28-.24.5-.5.5-.3 0-.5-.22-.5-.5 0-.27.2-.5.5-.5.26 0 .5.23.5.5zm-3.7 1.56c0 .28-.22.5-.5.5-.27 0-.5-.22-.5-.5 0-.27.23-.5.5-.5.28 0 .5.23.5.5zm-3.67 1.56c0 .28-.23.5-.5.5-.28 0-.5-.22-.5-.5 0-.27.22-.5.5-.5.27 0 .5.23.5.5zm-3.7 1.56c0 .28-.2.5-.5.5-.26 0-.5-.22-.5-.5 0-.27.24-.5.5-.5.3 0 .5.23.5.5zm-3.67 1.57c0 .26-.22.5-.5.5-.27 0-.5-.24-.5-.5 0-.3.23-.5.5-.5.28 0 .5.2.5.5zm-3.68 1.55c0 .27-.22.5-.5.5s-.5-.23-.5-.5c0-.28.22-.5.5-.5s.5.22.5.5zm-3.68 1.56c0 .28-.22.5-.5.5s-.5-.22-.5-.5c0-.27.22-.5.5-.5s.5.23.5.5zm-3.68 1.57c0 .27-.23.5-.5.5-.28 0-.5-.23-.5-.5 0-.28.22-.5.5-.5.27 0 .5.22.5.5zm-3.68 1.56c0 .28-.23.5-.5.5-.28 0-.5-.22-.5-.5s.22-.5.5-.5c.27 0 .5.22.5.5zm-3.7 1.56c0 .27-.2.5-.5.5-.26 0-.5-.23-.5-.5 0-.28.24-.5.5-.5.3 0 .5.22.5.5zm-3.67 1.55c0 .28-.22.5-.5.5-.27 0-.5-.22-.5-.5 0-.27.23-.5.5-.5.28 0 .5.23.5.5zm-3.68 1.56c0 .3-.23.5-.5.5-.3 0-.5-.2-.5-.5 0-.26.2-.5.5-.5.27 0 .5.24.5.5zm-3.7 1.57c0 .28-.22.5-.5.5-.27 0-.5-.22-.5-.5 0-.27.23-.5.5-.5.28 0 .5.23.5.5zm-3.67 1.57c0 .27-.23.5-.5.5-.28 0-.5-.23-.5-.5 0-.28.22-.5.5-.5.27 0 .5.22.5.5zm-3.68 1.56c0 .27-.23.5-.5.5-.28 0-.5-.23-.5-.5 0-.28.22-.5.5-.5.27 0 .5.22.5.5zm-3.7 1.56c0 .27-.2.5-.5.5-.26 0-.5-.23-.5-.5 0-.28.24-.5.5-.5.3 0 .5.22.5.5zm-3.67 1.56c0 .27-.22.5-.5.5-.27 0-.5-.23-.5-.5 0-.28.23-.5.5-.5.28 0 .5.22.5.5zm-3.68 1.56c0 .27-.22.5-.5.5-.27 0-.5-.23-.5-.5 0-.28.23-.5.5-.5.28 0 .5.22.5.5zm-3.68 1.56c0 .28-.22.5-.5.5s-.5-.22-.5-.5.22-.5.5-.5.5.22.5.5zm-3.68 1.56c0 .28-.23.5-.5.5-.28 0-.5-.22-.5-.5s.22-.5.5-.5c.27 0 .5.22.5.5zm-3.68 1.56c0 .28-.23.5-.5.5-.28 0-.5-.22-.5-.5 0-.27.22-.5.5-.5.27 0 .5.23.5.5zm-3.68 1.56c0 .28-.23.5-.5.5-.28 0-.5-.22-.5-.5 0-.27.22-.5.5-.5.27 0 .5.23.5.5zm-3.7 1.56c0 .28-.2.5-.5.5-.26 0-.5-.22-.5-.5 0-.27.24-.5.5-.5.3 0 .5.23.5.5zm-3.67 1.57c0 .27-.2.5-.5.5-.27 0-.5-.23-.5-.5 0-.28.23-.5.5-.5.3 0 .5.22.5.5zm-3.67 1.56c0 .28-.22.5-.5.5s-.5-.22-.5-.5c0-.27.22-.5.5-.5s.5.23.5.5zm-3.68 1.57c0 .27-.23.5-.5.5-.28 0-.5-.23-.5-.5 0-.28.22-.5.5-.5.27 0 .5.22.5.5zm-3.68 1.56c0 .27-.23.5-.5.5-.28 0-.5-.23-.5-.5 0-.28.22-.5.5-.5.27 0 .5.22.5.5zm-3.7 1.56c0 .27-.2.5-.5.5-.26 0-.5-.23-.5-.5 0-.3.24-.5.5-.5.3 0 .5.2.5.5zm-3.67 1.55c0 .28-.22.5-.5.5-.27 0-.5-.22-.5-.5s.23-.5.5-.5c.28 0 .5.22.5.5zm-3.68 1.56c0 .3-.22.5-.5.5-.27 0-.5-.2-.5-.5 0-.26.23-.5.5-.5.28 0 .5.24.5.5zm-3.68 1.57c0 .28-.22.5-.5.5s-.5-.22-.5-.5c0-.27.22-.5.5-.5s.5.23.5.5zm-3.68 1.56c0 .28-.22.5-.5.5s-.5-.22-.5-.5c0-.27.22-.5.5-.5s.5.23.5.5zm-3.68 1.57c0 .27-.23.5-.5.5-.28 0-.5-.23-.5-.5 0-.28.22-.5.5-.5.27 0 .5.22.5.5zm-3.68 1.56c0 .27-.23.5-.5.5-.28 0-.5-.23-.5-.5 0-.28.22-.5.5-.5.27 0 .5.22.5.5zm-3.7 1.56c0 .27-.2.5-.5.5-.26 0-.5-.23-.5-.5 0-.28.24-.5.5-.5.3 0 .5.22.5.5zm-3.67 1.56c0 .27-.22.5-.5.5-.27 0-.5-.23-.5-.5 0-.28.23-.5.5-.5.28 0 .5.22.5.5zm-3.68 1.56c0 .27-.22.5-.5.5s-.5-.23-.5-.5c0-.28.22-.5.5-.5s.5.22.5.5zm-3.68 1.56c0 .28-.23.5-.5.5-.28 0-.5-.22-.5-.5s.22-.5.5-.5c.27 0 .5.22.5.5zm-3.68 1.56c0 .28-.24.5-.5.5-.3 0-.5-.22-.5-.5 0-.27.2-.5.5-.5.26 0 .5.23.5.5zm-3.7 1.56c0 .28-.22.5-.5.5-.27 0-.5-.22-.5-.5 0-.27.23-.5.5-.5.28 0 .5.23.5.5zm-3.68 1.56c0 .28-.22.5-.5.5-.27 0-.5-.22-.5-.5 0-.27.23-.5.5-.5.28 0 .5.23.5.5zm-3.68 1.56c0 .28-.22.5-.5.5-.27 0-.5-.22-.5-.5 0-.27.23-.5.5-.5.28 0 .5.23.5.5zm-3.68 1.57c0 .28-.22.5-.5.5s-.5-.22-.5-.5c0-.27.22-.5.5-.5s.5.23.5.5zm-3.68 1.57c0 .27-.22.5-.5.5s-.5-.23-.5-.5c0-.28.22-.5.5-.5s.5.22.5.5zm-3.68 1.56c0 .27-.23.5-.5.5-.28 0-.5-.23-.5-.5 0-.28.22-.5.5-.5.27 0 .5.22.5.5zm-3.68 1.56c0 .26-.23.5-.5.5-.28 0-.5-.24-.5-.5 0-.3.22-.5.5-.5.27 0 .5.2.5.5zm-3.7 1.55c0 .27-.2.5-.5.5-.26 0-.5-.23-.5-.5 0-.28.24-.5.5-.5.3 0 .5.22.5.5zm-3.67 1.56c0 .3-.22.5-.5.5-.27 0-.5-.2-.5-.5 0-.27.23-.5.5-.5.28 0 .5.23.5.5zm-3.68 1.57c0 .28-.22.5-.5.5s-.5-.22-.5-.5c0-.27.22-.5.5-.5s.5.23.5.5zm-3.68 1.56c0 .28-.23.5-.5.5-.3 0-.5-.22-.5-.5 0-.27.2-.5.5-.5.27 0 .5.23.5.5zm-3.7 1.56c0 .27-.22.5-.5.5-.27 0-.5-.23-.5-.5 0-.28.23-.5.5-.5.28 0 .5.22.5.5zm-3.67 1.55c0 .28-.23.5-.5.5-.28 0-.5-.22-.5-.5 0-.27.22-.5.5-.5.27 0 .5.23.5.5zm-3.7 1.57c0 .27-.2.5-.5.5-.26 0-.5-.23-.5-.5 0-.28.24-.5.5-.5.3 0 .5.22.5.5zm-3.67 1.56c0 .27-.22.5-.5.5-.27 0-.5-.23-.5-.5 0-.28.23-.5.5-.5.28 0 .5.22.5.5zm-3.68 1.56c0 .27-.22.5-.5.5-.27 0-.5-.23-.5-.5 0-.28.23-.5.5-.5.28 0 .5.22.5.5zm-3.68 1.56c0 .27-.22.5-.5.5s-.5-.23-.5-.5c0-.28.22-.5.5-.5s.5.22.5.5zm-3.68 1.56c0 .28-.23.5-.5.5-.28 0-.5-.22-.5-.5s.22-.5.5-.5c.27 0 .5.22.5.5zm-3.68 1.56c0 .28-.23.5-.5.5-.28 0-.5-.22-.5-.5 0-.27.22-.5.5-.5.27 0 .5.23.5.5zm-3.68 1.56c0 .28-.23.5-.5.5-.28 0-.5-.22-.5-.5 0-.27.22-.5.5-.5.27 0 .5.23.5.5zm-3.7 1.56c0 .28-.2.5-.5.5-.26 0-.5-.22-.5-.5 0-.27.24-.5.5-.5.3 0 .5.23.5.5zm-3.67 1.56c0 .28-.23.5-.5.5-.28 0-.5-.22-.5-.5 0-.27.22-.5.5-.5.27 0 .5.23.5.5zm-3.7 1.56c0 .28-.2.5-.5.5-.27 0-.5-.22-.5-.5 0-.27.23-.5.5-.5.3 0 .5.23.5.5zm-3.67 1.57c0 .27-.23.5-.5.5-.28 0-.5-.23-.5-.5 0-.28.22-.5.5-.5.27 0 .5.22.5.5zm-3.68 1.56c0 .26-.23.5-.5.5-.28 0-.5-.24-.5-.5 0-.3.22-.5.5-.5.27 0 .5.2.5.5zm-3.68 1.55c0 .27-.23.5-.5.5-.28 0-.5-.23-.5-.5 0-.28.22-.5.5-.5.27 0 .5.22.5.5zm-3.7 1.56c0 .28-.2.5-.5.5-.26 0-.5-.22-.5-.5 0-.27.24-.5.5-.5.3 0 .5.23.5.5z" fill="#3a414a"/><path d="M1859.7 545.2l-.26-.64h1.78z" stroke="#3a414a" stroke-width=".05" fill="#3a414a"/><path d="M1076.5 876.77l11.3-9.83 3.63 8.53z" stroke="#3a414a" fill="#3a414a"/><path d="M1390 884.4a6 6 0 0 1 6-6h368a6 6 0 0 1 6 6V988.9a6 6 0 0 1-6 6h-368a6 6 0 0 1-6-6z" fill="#fcfcca"/><path d="M1391 884.4c0 .56-.45 1-1 1s-1-.44-1-1c0-.55.45-1 1-1s1 .45 1 1zm6-6c0 .56-.45 1-1 1s-1-.44-1-1c0-.55.45-1 1-1s1 .45 1 1zm8 0c0 .56-.45 1-1 1s-1-.44-1-1c0-.55.45-1 1-1s1 .45 1 1zm8 0c0 .56-.45 1-1 1s-1-.44-1-1c0-.55.45-1 1-1s1 .45 1 1zm8 0c0 .56-.45 1-1 1s-1-.44-1-1c0-.55.45-1 1-1s1 .45 1 1zm8 0c0 .56-.45 1-1 1s-1-.44-1-1c0-.55.45-1 1-1s1 .45 1 1zm8 0c0 .56-.45 1-1 1s-1-.44-1-1c0-.55.45-1 1-1s1 .45 1 1zm8 0c0 .56-.45 1-1 1s-1-.44-1-1c0-.55.45-1 1-1s1 .45 1 1zm8 0c0 .56-.45 1-1 1s-1-.44-1-1c0-.55.45-1 1-1s1 .45 1 1zm8 0c0 .56-.45 1-1 1s-1-.44-1-1c0-.55.45-1 1-1s1 .45 1 1zm8 0c0 .56-.45 1-1 1s-1-.44-1-1c0-.55.45-1 1-1s1 .45 1 1zm8 0c0 .56-.45 1-1 1s-1-.44-1-1c0-.55.45-1 1-1s1 .45 1 1zm8 0c0 .56-.45 1-1 1s-1-.44-1-1c0-.55.45-1 1-1s1 .45 1 1zm8 0c0 .56-.45 1-1 1s-1-.44-1-1c0-.55.45-1 1-1s1 .45 1 1zm8 0c0 .56-.45 1-1 1s-1-.44-1-1c0-.55.45-1 1-1s1 .45 1 1zm8 0c0 .56-.45 1-1 1s-1-.44-1-1c0-.55.45-1 1-1s1 .45 1 1zm8 0c0 .56-.45 1-1 1s-1-.44-1-1c0-.55.45-1 1-1s1 .45 1 1zm8 0c0 .56-.45 1-1 1s-1-.44-1-1c0-.55.45-1 1-1s1 .45 1 1zm8 0c0 .56-.45 1-1 1s-1-.44-1-1c0-.55.45-1 1-1s1 .45 1 1zm8 0c0 .56-.45 1-1 1s-1-.44-1-1c0-.55.45-1 1-1s1 .45 1 1zm8 0c0 .56-.45 1-1 1s-1-.44-1-1c0-.55.45-1 1-1s1 .45 1 1zm8 0c0 .56-.45 1-1 1s-1-.44-1-1c0-.55.45-1 1-1s1 .45 1 1zm8 0c0 .56-.45 1-1 1s-1-.44-1-1c0-.55.45-1 1-1s1 .45 1 1zm8 0c0 .56-.45 1-1 1s-1-.44-1-1c0-.55.45-1 1-1s1 .45 1 1zm8 0c0 .56-.45 1-1 1s-1-.44-1-1c0-.55.45-1 1-1s1 .45 1 1zm8 0c0 .56-.45 1-1 1s-1-.44-1-1c0-.55.45-1 1-1s1 .45 1 1zm8 0c0 .56-.45 1-1 1s-1-.44-1-1c0-.55.45-1 1-1s1 .45 1 1zm8 0c0 .56-.45 1-1 1s-1-.44-1-1c0-.55.45-1 1-1s1 .45 1 1zm8 0c0 .56-.45 1-1 1s-1-.44-1-1c0-.55.45-1 1-1s1 .45 1 1zm8 0c0 .56-.45 1-1 1s-1-.44-1-1c0-.55.45-1 1-1s1 .45 1 1zm8 0c0 .56-.45 1-1 1s-1-.44-1-1c0-.55.45-1 1-1s1 .45 1 1zm8 0c0 .56-.45 1-1 1s-1-.44-1-1c0-.55.45-1 1-1s1 .45 1 1zm8 0c0 .56-.45 1-1 1s-1-.44-1-1c0-.55.45-1 1-1s1 .45 1 1zm8 0c0 .56-.45 1-1 1s-1-.44-1-1c0-.55.45-1 1-1s1 .45 1 1zm8 0c0 .56-.45 1-1 1s-1-.44-1-1c0-.55.45-1 1-1s1 .45 1 1zm8 0c0 .56-.45 1-1 1s-1-.44-1-1c0-.55.45-1 1-1s1 .45 1 1zm8 0c0 .56-.45 1-1 1s-1-.44-1-1c0-.55.45-1 1-1s1 .45 1 1zm8 0c0 .56-.45 1-1 1s-1-.44-1-1c0-.55.45-1 1-1s1 .45 1 1zm8 0c0 .56-.45 1-1 1s-1-.44-1-1c0-.55.45-1 1-1s1 .45 1 1zm8 0c0 .56-.45 1-1 1s-1-.44-1-1c0-.55.45-1 1-1s1 .45 1 1zm8 0c0 .56-.45 1-1 1s-1-.44-1-1c0-.55.45-1 1-1s1 .45 1 1zm8 0c0 .56-.45 1-1 1s-1-.44-1-1c0-.55.45-1 1-1s1 .45 1 1zm8 0c0 .56-.45 1-1 1s-1-.44-1-1c0-.55.45-1 1-1s1 .45 1 1zm8 0c0 .56-.45 1-1 1s-1-.44-1-1c0-.55.45-1 1-1s1 .45 1 1zm8 0c0 .56-.45 1-1 1s-1-.44-1-1c0-.55.45-1 1-1s1 .45 1 1zm8 0c0 .56-.45 1-1 1s-1-.44-1-1c0-.55.45-1 1-1s1 .45 1 1zm8 0c0 .56-.45 1-1 1s-1-.44-1-1c0-.55.45-1 1-1s1 .45 1 1zm8 0c0 .56-.45 1-1 1s-1-.44-1-1c0-.55.45-1 1-1s1 .45 1 1zm6 6c0 .56-.45 1-1 1s-1-.44-1-1c0-.55.45-1 1-1s1 .45 1 1zm0 8.04c0 .55-.45 1-1 1s-1-.45-1-1 .45-1 1-1 1 .45 1 1zm0 8.04c0 .55-.45 1-1 1s-1-.45-1-1 .45-1 1-1 1 .45 1 1zm0 8.03c0 .57-.45 1-1 1s-1-.43-1-1c0-.54.45-1 1-1s1 .46 1 1zm0 8.05c0 .55-.45 1-1 1s-1-.45-1-1 .45-1 1-1 1 .45 1 1zm0 8.04c0 .54-.45 1-1 1s-1-.46-1-1c0-.56.45-1 1-1s1 .44 1 1zm0 8.02c0 .56-.45 1-1 1s-1-.44-1-1c0-.55.45-1 1-1s1 .45 1 1zm0 8.04c0 .55-.45 1-1 1s-1-.45-1-1 .45-1 1-1 1 .45 1 1zm0 8.04c0 .55-.45 1-1 1s-1-.45-1-1 .45-1 1-1 1 .45 1 1zm0 8.03c0 .56-.45 1-1 1s-1-.44-1-1c0-.55.45-1 1-1s1 .45 1 1zm0 8.04c0 .55-.45 1-1 1s-1-.45-1-1 .45-1 1-1 1 .45 1 1zm0 8.04c0 .56-.45 1-1 1s-1-.44-1-1c0-.54.45-1 1-1s1 .46 1 1zm0 8.05c0 .55-.45 1-1 1s-1-.45-1-1c0-.56.45-1 1-1s1 .44 1 1zm0 8.03c0 .55-.45 1-1 1s-1-.45-1-1 .45-1 1-1 1 .45 1 1zm-6 6c0 .55-.45 1-1 1s-1-.45-1-1 .45-1 1-1 1 .45 1 1zm-8 0c0 .55-.45 1-1 1s-1-.45-1-1 .45-1 1-1 1 .45 1 1zm-8 0c0 .55-.45 1-1 1s-1-.45-1-1 .45-1 1-1 1 .45 1 1zm-8 0c0 .55-.45 1-1 1s-1-.45-1-1 .45-1 1-1 1 .45 1 1zm-8 0c0 .55-.45 1-1 1s-1-.45-1-1 .45-1 1-1 1 .45 1 1zm-8 0c0 .55-.45 1-1 1s-1-.45-1-1 .45-1 1-1 1 .45 1 1zm-8 0c0 .55-.45 1-1 1s-1-.45-1-1 .45-1 1-1 1 .45 1 1zm-8 0c0 .55-.45 1-1 1s-1-.45-1-1 .45-1 1-1 1 .45 1 1zm-8 0c0 .55-.45 1-1 1s-1-.45-1-1 .45-1 1-1 1 .45 1 1zm-8 0c0 .55-.45 1-1 1s-1-.45-1-1 .45-1 1-1 1 .45 1 1zm-8 0c0 .55-.45 1-1 1s-1-.45-1-1 .45-1 1-1 1 .45 1 1zm-8 0c0 .55-.45 1-1 1s-1-.45-1-1 .45-1 1-1 1 .45 1 1zm-8 0c0 .55-.45 1-1 1s-1-.45-1-1 .45-1 1-1 1 .45 1 1zm-8 0c0 .55-.45 1-1 1s-1-.45-1-1 .45-1 1-1 1 .45 1 1zm-8 0c0 .55-.45 1-1 1s-1-.45-1-1 .45-1 1-1 1 .45 1 1zm-8 0c0 .55-.45 1-1 1s-1-.45-1-1 .45-1 1-1 1 .45 1 1zm-8 0c0 .55-.45 1-1 1s-1-.45-1-1 .45-1 1-1 1 .45 1 1zm-8 0c0 .55-.45 1-1 1s-1-.45-1-1 .45-1 1-1 1 .45 1 1zm-8 0c0 .55-.45 1-1 1s-1-.45-1-1 .45-1 1-1 1 .45 1 1zm-8 0c0 .55-.45 1-1 1s-1-.45-1-1 .45-1 1-1 1 .45 1 1zm-8 0c0 .55-.45 1-1 1s-1-.45-1-1 .45-1 1-1 1 .45 1 1zm-8 0c0 .55-.45 1-1 1s-1-.45-1-1 .45-1 1-1 1 .45 1 1zm-8 0c0 .55-.45 1-1 1s-1-.45-1-1 .45-1 1-1 1 .45 1 1zm-8 0c0 .55-.45 1-1 1s-1-.45-1-1 .45-1 1-1 1 .45 1 1zm-8 0c0 .55-.45 1-1 1s-1-.45-1-1 .45-1 1-1 1 .45 1 1zm-8 0c0 .55-.45 1-1 1s-1-.45-1-1 .45-1 1-1 1 .45 1 1zm-8 0c0 .55-.45 1-1 1s-1-.45-1-1 .45-1 1-1 1 .45 1 1zm-8 0c0 .55-.45 1-1 1s-1-.45-1-1 .45-1 1-1 1 .45 1 1zm-8 0c0 .55-.45 1-1 1s-1-.45-1-1 .45-1 1-1 1 .45 1 1zm-8 0c0 .55-.45 1-1 1s-1-.45-1-1 .45-1 1-1 1 .45 1 1zm-8 0c0 .55-.45 1-1 1s-1-.45-1-1 .45-1 1-1 1 .45 1 1zm-8 0c0 .55-.45 1-1 1s-1-.45-1-1 .45-1 1-1 1 .45 1 1zm-8 0c0 .55-.45 1-1 1s-1-.45-1-1 .45-1 1-1 1 .45 1 1zm-8 0c0 .55-.45 1-1 1s-1-.45-1-1 .45-1 1-1 1 .45 1 1zm-8 0c0 .55-.45 1-1 1s-1-.45-1-1 .45-1 1-1 1 .45 1 1zm-8 0c0 .55-.45 1-1 1s-1-.45-1-1 .45-1 1-1 1 .45 1 1zm-8 0c0 .55-.45 1-1 1s-1-.45-1-1 .45-1 1-1 1 .45 1 1zm-8 0c0 .55-.45 1-1 1s-1-.45-1-1 .45-1 1-1 1 .45 1 1zm-8 0c0 .55-.45 1-1 1s-1-.45-1-1 .45-1 1-1 1 .45 1 1zm-8 0c0 .55-.45 1-1 1s-1-.45-1-1 .45-1 1-1 1 .45 1 1zm-8 0c0 .55-.45 1-1 1s-1-.45-1-1 .45-1 1-1 1 .45 1 1zm-8 0c0 .55-.45 1-1 1s-1-.45-1-1 .45-1 1-1 1 .45 1 1zm-8 0c0 .55-.45 1-1 1s-1-.45-1-1 .45-1 1-1 1 .45 1 1zm-8 0c0 .55-.45 1-1 1s-1-.45-1-1 .45-1 1-1 1 .45 1 1zm-8 0c0 .55-.45 1-1 1s-1-.45-1-1 .45-1 1-1 1 .45 1 1zm-8 0c0 .55-.45 1-1 1s-1-.45-1-1 .45-1 1-1 1 .45 1 1zm-8 0c0 .55-.45 1-1 1s-1-.45-1-1 .45-1 1-1 1 .45 1 1zm-6-6c0 .55-.45 1-1 1s-1-.45-1-1 .45-1 1-1 1 .45 1 1zm0-8.03c0 .55-.45 1-1 1s-1-.45-1-1c0-.56.45-1 1-1s1 .44 1 1zm0-8.04c0 .56-.45 1-1 1s-1-.44-1-1c0-.54.45-1 1-1s1 .46 1 1zm0-8.03c0 .55-.45 1-1 1s-1-.45-1-1 .45-1 1-1 1 .45 1 1zm0-8.03c0 .55-.45 1-1 1s-1-.45-1-1c0-.56.45-1 1-1s1 .44 1 1zm0-8.04c0 .55-.45 1-1 1s-1-.45-1-1 .45-1 1-1 1 .45 1 1zm0-8.04c0 .55-.45 1-1 1s-1-.45-1-1 .45-1 1-1 1 .45 1 1zm0-8.03c0 .55-.45 1-1 1s-1-.45-1-1c0-.56.45-1 1-1s1 .44 1 1zm0-8.04c0 .54-.45 1-1 1s-1-.46-1-1c0-.56.45-1 1-1s1 .44 1 1zm0-8.05c0 .55-.45 1-1 1s-1-.45-1-1 .45-1 1-1 1 .45 1 1zm0-8.03c0 .55-.45 1-1 1s-1-.45-1-1c0-.56.45-1 1-1s1 .44 1 1zm0-8.04c0 .55-.45 1-1 1s-1-.45-1-1 .45-1 1-1 1 .45 1 1zm0-8.04c0 .55-.45 1-1 1s-1-.45-1-1 .45-1 1-1 1 .45 1 1z"/><use xlink:href="#i" transform="matrix(1,0,0,1,1402,890.4047226041665) translate(31.3203125 62)"/><use xlink:href="#j" transform="matrix(1,0,0,1,1402,890.4047226041665) translate(134.42578125 62)"/><path d="M1835 884.4a6 6 0 0 1 6-6h488a6 6 0 0 1 6 6V988.9a6 6 0 0 1-6 6h-488a6 6 0 0 1-6-6z" fill="#fcfcca"/><path d="M1836 884.4c0 .56-.45 1-1 1s-1-.44-1-1c0-.55.45-1 1-1s1 .45 1 1zm6-6c0 .56-.45 1-1 1s-1-.44-1-1c0-.55.45-1 1-1s1 .45 1 1zm8 0c0 .56-.45 1-1 1s-1-.44-1-1c0-.55.45-1 1-1s1 .45 1 1zm8 0c0 .56-.45 1-1 1s-1-.44-1-1c0-.55.45-1 1-1s1 .45 1 1zm8 0c0 .56-.45 1-1 1s-1-.44-1-1c0-.55.45-1 1-1s1 .45 1 1zm8 0c0 .56-.45 1-1 1s-1-.44-1-1c0-.55.45-1 1-1s1 .45 1 1zm8 0c0 .56-.45 1-1 1s-1-.44-1-1c0-.55.45-1 1-1s1 .45 1 1zm8 0c0 .56-.45 1-1 1s-1-.44-1-1c0-.55.45-1 1-1s1 .45 1 1zm8 0c0 .56-.45 1-1 1s-1-.44-1-1c0-.55.45-1 1-1s1 .45 1 1zm8 0c0 .56-.45 1-1 1s-1-.44-1-1c0-.55.45-1 1-1s1 .45 1 1zm8 0c0 .56-.45 1-1 1s-1-.44-1-1c0-.55.45-1 1-1s1 .45 1 1zm8 0c0 .56-.45 1-1 1s-1-.44-1-1c0-.55.45-1 1-1s1 .45 1 1zm8 0c0 .56-.45 1-1 1s-1-.44-1-1c0-.55.45-1 1-1s1 .45 1 1zm8 0c0 .56-.45 1-1 1s-1-.44-1-1c0-.55.45-1 1-1s1 .45 1 1zm8 0c0 .56-.45 1-1 1s-1-.44-1-1c0-.55.45-1 1-1s1 .45 1 1zm8 0c0 .56-.45 1-1 1s-1-.44-1-1c0-.55.45-1 1-1s1 .45 1 1zm8 0c0 .56-.45 1-1 1s-1-.44-1-1c0-.55.45-1 1-1s1 .45 1 1zm8 0c0 .56-.45 1-1 1s-1-.44-1-1c0-.55.45-1 1-1s1 .45 1 1zm8 0c0 .56-.45 1-1 1s-1-.44-1-1c0-.55.45-1 1-1s1 .45 1 1zm8 0c0 .56-.45 1-1 1s-1-.44-1-1c0-.55.45-1 1-1s1 .45 1 1zm8 0c0 .56-.45 1-1 1s-1-.44-1-1c0-.55.45-1 1-1s1 .45 1 1zm8 0c0 .56-.45 1-1 1s-1-.44-1-1c0-.55.45-1 1-1s1 .45 1 1zm8 0c0 .56-.45 1-1 1s-1-.44-1-1c0-.55.45-1 1-1s1 .45 1 1zm8 0c0 .56-.45 1-1 1s-1-.44-1-1c0-.55.45-1 1-1s1 .45 1 1zm8 0c0 .56-.45 1-1 1s-1-.44-1-1c0-.55.45-1 1-1s1 .45 1 1zm8 0c0 .56-.45 1-1 1s-1-.44-1-1c0-.55.45-1 1-1s1 .45 1 1zm8 0c0 .56-.45 1-1 1s-1-.44-1-1c0-.55.45-1 1-1s1 .45 1 1zm8 0c0 .56-.45 1-1 1s-1-.44-1-1c0-.55.45-1 1-1s1 .45 1 1zm8 0c0 .56-.45 1-1 1s-1-.44-1-1c0-.55.45-1 1-1s1 .45 1 1zm8 0c0 .56-.45 1-1 1s-1-.44-1-1c0-.55.45-1 1-1s1 .45 1 1zm8 0c0 .56-.45 1-1 1s-1-.44-1-1c0-.55.45-1 1-1s1 .45 1 1zm8 0c0 .56-.45 1-1 1s-1-.44-1-1c0-.55.45-1 1-1s1 .45 1 1zm8 0c0 .56-.45 1-1 1s-1-.44-1-1c0-.55.45-1 1-1s1 .45 1 1zm8 0c0 .56-.45 1-1 1s-1-.44-1-1c0-.55.45-1 1-1s1 .45 1 1zm8 0c0 .56-.45 1-1 1s-1-.44-1-1c0-.55.45-1 1-1s1 .45 1 1zm8 0c0 .56-.45 1-1 1s-1-.44-1-1c0-.55.45-1 1-1s1 .45 1 1zm8 0c0 .56-.45 1-1 1s-1-.44-1-1c0-.55.45-1 1-1s1 .45 1 1zm8 0c0 .56-.45 1-1 1s-1-.44-1-1c0-.55.45-1 1-1s1 .45 1 1zm8 0c0 .56-.45 1-1 1s-1-.44-1-1c0-.55.45-1 1-1s1 .45 1 1zm8 0c0 .56-.45 1-1 1s-1-.44-1-1c0-.55.45-1 1-1s1 .45 1 1zm8 0c0 .56-.45 1-1 1s-1-.44-1-1c0-.55.45-1 1-1s1 .45 1 1zm8 0c0 .56-.45 1-1 1s-1-.44-1-1c0-.55.45-1 1-1s1 .45 1 1zm8 0c0 .56-.45 1-1 1s-1-.44-1-1c0-.55.45-1 1-1s1 .45 1 1zm8 0c0 .56-.45 1-1 1s-1-.44-1-1c0-.55.45-1 1-1s1 .45 1 1zm8 0c0 .56-.45 1-1 1s-1-.44-1-1c0-.55.45-1 1-1s1 .45 1 1zm8 0c0 .56-.45 1-1 1s-1-.44-1-1c0-.55.45-1 1-1s1 .45 1 1zm8 0c0 .56-.45 1-1 1s-1-.44-1-1c0-.55.45-1 1-1s1 .45 1 1zm8 0c0 .56-.45 1-1 1s-1-.44-1-1c0-.55.45-1 1-1s1 .45 1 1zm8 0c0 .56-.45 1-1 1s-1-.44-1-1c0-.55.45-1 1-1s1 .45 1 1zm8 0c0 .56-.45 1-1 1s-1-.44-1-1c0-.55.45-1 1-1s1 .45 1 1zm8 0c0 .56-.45 1-1 1s-1-.44-1-1c0-.55.45-1 1-1s1 .45 1 1zm8 0c0 .56-.45 1-1 1s-1-.44-1-1c0-.55.45-1 1-1s1 .45 1 1zm8 0c0 .56-.45 1-1 1s-1-.44-1-1c0-.55.45-1 1-1s1 .45 1 1zm8 0c0 .56-.45 1-1 1s-1-.44-1-1c0-.55.45-1 1-1s1 .45 1 1zm8 0c0 .56-.45 1-1 1s-1-.44-1-1c0-.55.45-1 1-1s1 .45 1 1zm8 0c0 .56-.45 1-1 1s-1-.44-1-1c0-.55.45-1 1-1s1 .45 1 1zm8 0c0 .56-.45 1-1 1s-1-.44-1-1c0-.55.45-1 1-1s1 .45 1 1zm8 0c0 .56-.45 1-1 1s-1-.44-1-1c0-.55.45-1 1-1s1 .45 1 1zm8 0c0 .56-.45 1-1 1s-1-.44-1-1c0-.55.45-1 1-1s1 .45 1 1zm8 0c0 .56-.45 1-1 1s-1-.44-1-1c0-.55.45-1 1-1s1 .45 1 1zm8 0c0 .56-.45 1-1 1s-1-.44-1-1c0-.55.45-1 1-1s1 .45 1 1zm8 0c0 .56-.45 1-1 1s-1-.44-1-1c0-.55.45-1 1-1s1 .45 1 1zm8 0c0 .56-.45 1-1 1s-1-.44-1-1c0-.55.45-1 1-1s1 .45 1 1zm6 6c0 .56-.45 1-1 1s-1-.44-1-1c0-.55.45-1 1-1s1 .45 1 1zm0 8.04c0 .55-.45 1-1 1s-1-.45-1-1 .45-1 1-1 1 .45 1 1zm0 8.04c0 .55-.45 1-1 1s-1-.45-1-1 .45-1 1-1 1 .45 1 1zm0 8.03c0 .57-.45 1-1 1s-1-.43-1-1c0-.54.45-1 1-1s1 .46 1 1zm0 8.05c0 .55-.45 1-1 1s-1-.45-1-1 .45-1 1-1 1 .45 1 1zm0 8.04c0 .54-.45 1-1 1s-1-.46-1-1c0-.56.45-1 1-1s1 .44 1 1zm0 8.02c0 .56-.45 1-1 1s-1-.44-1-1c0-.55.45-1 1-1s1 .45 1 1zm0 8.04c0 .55-.45 1-1 1s-1-.45-1-1 .45-1 1-1 1 .45 1 1zm0 8.04c0 .55-.45 1-1 1s-1-.45-1-1 .45-1 1-1 1 .45 1 1zm0 8.03c0 .56-.45 1-1 1s-1-.44-1-1c0-.55.45-1 1-1s1 .45 1 1zm0 8.04c0 .55-.45 1-1 1s-1-.45-1-1 .45-1 1-1 1 .45 1 1zm0 8.04c0 .56-.45 1-1 1s-1-.44-1-1c0-.54.45-1 1-1s1 .46 1 1zm0 8.05c0 .55-.45 1-1 1s-1-.45-1-1c0-.56.45-1 1-1s1 .44 1 1zm0 8.03c0 .55-.45 1-1 1s-1-.45-1-1 .45-1 1-1 1 .45 1 1zm-6 6c0 .55-.45 1-1 1s-1-.45-1-1 .45-1 1-1 1 .45 1 1zm-8 0c0 .55-.45 1-1 1s-1-.45-1-1 .45-1 1-1 1 .45 1 1zm-8 0c0 .55-.45 1-1 1s-1-.45-1-1 .45-1 1-1 1 .45 1 1zm-8 0c0 .55-.45 1-1 1s-1-.45-1-1 .45-1 1-1 1 .45 1 1zm-8 0c0 .55-.45 1-1 1s-1-.45-1-1 .45-1 1-1 1 .45 1 1zm-8 0c0 .55-.45 1-1 1s-1-.45-1-1 .45-1 1-1 1 .45 1 1zm-8 0c0 .55-.45 1-1 1s-1-.45-1-1 .45-1 1-1 1 .45 1 1zm-8 0c0 .55-.45 1-1 1s-1-.45-1-1 .45-1 1-1 1 .45 1 1zm-8 0c0 .55-.45 1-1 1s-1-.45-1-1 .45-1 1-1 1 .45 1 1zm-8 0c0 .55-.45 1-1 1s-1-.45-1-1 .45-1 1-1 1 .45 1 1zm-8 0c0 .55-.45 1-1 1s-1-.45-1-1 .45-1 1-1 1 .45 1 1zm-8 0c0 .55-.45 1-1 1s-1-.45-1-1 .45-1 1-1 1 .45 1 1zm-8 0c0 .55-.45 1-1 1s-1-.45-1-1 .45-1 1-1 1 .45 1 1zm-8 0c0 .55-.45 1-1 1s-1-.45-1-1 .45-1 1-1 1 .45 1 1zm-8 0c0 .55-.45 1-1 1s-1-.45-1-1 .45-1 1-1 1 .45 1 1zm-8 0c0 .55-.45 1-1 1s-1-.45-1-1 .45-1 1-1 1 .45 1 1zm-8 0c0 .55-.45 1-1 1s-1-.45-1-1 .45-1 1-1 1 .45 1 1zm-8 0c0 .55-.45 1-1 1s-1-.45-1-1 .45-1 1-1 1 .45 1 1zm-8 0c0 .55-.45 1-1 1s-1-.45-1-1 .45-1 1-1 1 .45 1 1zm-8 0c0 .55-.45 1-1 1s-1-.45-1-1 .45-1 1-1 1 .45 1 1zm-8 0c0 .55-.45 1-1 1s-1-.45-1-1 .45-1 1-1 1 .45 1 1zm-8 0c0 .55-.45 1-1 1s-1-.45-1-1 .45-1 1-1 1 .45 1 1zm-8 0c0 .55-.45 1-1 1s-1-.45-1-1 .45-1 1-1 1 .45 1 1zm-8 0c0 .55-.45 1-1 1s-1-.45-1-1 .45-1 1-1 1 .45 1 1zm-8 0c0 .55-.45 1-1 1s-1-.45-1-1 .45-1 1-1 1 .45 1 1zm-8 0c0 .55-.45 1-1 1s-1-.45-1-1 .45-1 1-1 1 .45 1 1zm-8 0c0 .55-.45 1-1 1s-1-.45-1-1 .45-1 1-1 1 .45 1 1zm-8 0c0 .55-.45 1-1 1s-1-.45-1-1 .45-1 1-1 1 .45 1 1zm-8 0c0 .55-.45 1-1 1s-1-.45-1-1 .45-1 1-1 1 .45 1 1zm-8 0c0 .55-.45 1-1 1s-1-.45-1-1 .45-1 1-1 1 .45 1 1zm-8 0c0 .55-.45 1-1 1s-1-.45-1-1 .45-1 1-1 1 .45 1 1zm-8 0c0 .55-.45 1-1 1s-1-.45-1-1 .45-1 1-1 1 .45 1 1zm-8 0c0 .55-.45 1-1 1s-1-.45-1-1 .45-1 1-1 1 .45 1 1zm-8 0c0 .55-.45 1-1 1s-1-.45-1-1 .45-1 1-1 1 .45 1 1zm-8 0c0 .55-.45 1-1 1s-1-.45-1-1 .45-1 1-1 1 .45 1 1zm-8 0c0 .55-.45 1-1 1s-1-.45-1-1 .45-1 1-1 1 .45 1 1zm-8 0c0 .55-.45 1-1 1s-1-.45-1-1 .45-1 1-1 1 .45 1 1zm-8 0c0 .55-.45 1-1 1s-1-.45-1-1 .45-1 1-1 1 .45 1 1zm-8 0c0 .55-.45 1-1 1s-1-.45-1-1 .45-1 1-1 1 .45 1 1zm-8 0c0 .55-.45 1-1 1s-1-.45-1-1 .45-1 1-1 1 .45 1 1zm-8 0c0 .55-.45 1-1 1s-1-.45-1-1 .45-1 1-1 1 .45 1 1zm-8 0c0 .55-.45 1-1 1s-1-.45-1-1 .45-1 1-1 1 .45 1 1zm-8 0c0 .55-.45 1-1 1s-1-.45-1-1 .45-1 1-1 1 .45 1 1zm-8 0c0 .55-.45 1-1 1s-1-.45-1-1 .45-1 1-1 1 .45 1 1zm-8 0c0 .55-.45 1-1 1s-1-.45-1-1 .45-1 1-1 1 .45 1 1zm-8 0c0 .55-.45 1-1 1s-1-.45-1-1 .45-1 1-1 1 .45 1 1zm-8 0c0 .55-.45 1-1 1s-1-.45-1-1 .45-1 1-1 1 .45 1 1zm-8 0c0 .55-.45 1-1 1s-1-.45-1-1 .45-1 1-1 1 .45 1 1zm-8 0c0 .55-.45 1-1 1s-1-.45-1-1 .45-1 1-1 1 .45 1 1zm-8 0c0 .55-.45 1-1 1s-1-.45-1-1 .45-1 1-1 1 .45 1 1zm-8 0c0 .55-.45 1-1 1s-1-.45-1-1 .45-1 1-1 1 .45 1 1zm-8 0c0 .55-.45 1-1 1s-1-.45-1-1 .45-1 1-1 1 .45 1 1zm-8 0c0 .55-.45 1-1 1s-1-.45-1-1 .45-1 1-1 1 .45 1 1zm-8 0c0 .55-.45 1-1 1s-1-.45-1-1 .45-1 1-1 1 .45 1 1zm-8 0c0 .55-.45 1-1 1s-1-.45-1-1 .45-1 1-1 1 .45 1 1zm-8 0c0 .55-.45 1-1 1s-1-.45-1-1 .45-1 1-1 1 .45 1 1zm-8 0c0 .55-.45 1-1 1s-1-.45-1-1 .45-1 1-1 1 .45 1 1zm-8 0c0 .55-.45 1-1 1s-1-.45-1-1 .45-1 1-1 1 .45 1 1zm-8 0c0 .55-.45 1-1 1s-1-.45-1-1 .45-1 1-1 1 .45 1 1zm-8 0c0 .55-.45 1-1 1s-1-.45-1-1 .45-1 1-1 1 .45 1 1zm-8 0c0 .55-.45 1-1 1s-1-.45-1-1 .45-1 1-1 1 .45 1 1zm-8 0c0 .55-.45 1-1 1s-1-.45-1-1 .45-1 1-1 1 .45 1 1zm-6-6c0 .55-.45 1-1 1s-1-.45-1-1 .45-1 1-1 1 .45 1 1zm0-8.03c0 .55-.45 1-1 1s-1-.45-1-1c0-.56.45-1 1-1s1 .44 1 1zm0-8.04c0 .56-.45 1-1 1s-1-.44-1-1c0-.54.45-1 1-1s1 .46 1 1zm0-8.03c0 .55-.45 1-1 1s-1-.45-1-1 .45-1 1-1 1 .45 1 1zm0-8.03c0 .55-.45 1-1 1s-1-.45-1-1c0-.56.45-1 1-1s1 .44 1 1zm0-8.04c0 .55-.45 1-1 1s-1-.45-1-1 .45-1 1-1 1 .45 1 1zm0-8.04c0 .55-.45 1-1 1s-1-.45-1-1 .45-1 1-1 1 .45 1 1zm0-8.03c0 .55-.45 1-1 1s-1-.45-1-1c0-.56.45-1 1-1s1 .44 1 1zm0-8.04c0 .54-.45 1-1 1s-1-.46-1-1c0-.56.45-1 1-1s1 .44 1 1zm0-8.05c0 .55-.45 1-1 1s-1-.45-1-1 .45-1 1-1 1 .45 1 1zm0-8.03c0 .55-.45 1-1 1s-1-.45-1-1c0-.56.45-1 1-1s1 .44 1 1zm0-8.04c0 .55-.45 1-1 1s-1-.45-1-1 .45-1 1-1 1 .45 1 1zm0-8.04c0 .55-.45 1-1 1s-1-.45-1-1 .45-1 1-1 1 .45 1 1z"/><use xlink:href="#k" transform="matrix(1,0,0,1,1847,890.4047226041665) translate(44.767578125 62)"/><use xlink:href="#l" transform="matrix(1,0,0,1,1847,890.4047226041665) translate(177.404296875 62)"/><use xlink:href="#m" transform="matrix(1,0,0,1,1847,890.4047226041665) translate(346.486328125 62)"/><path d="M1860.18 544.94c0 .27-.23.5-.5.5-.28 0-.5-.23-.5-.5 0-.28.22-.5.5-.5.27 0 .5.22.5.5zm-2.57 3.05c.02.26-.2.5-.48.5-.28 0-.5-.24-.5-.5 0-.3.22-.5.5-.5.27 0 .5.2.5.5zm-2.55 3.03c0 .28-.22.5-.5.5-.27 0-.5-.22-.5-.5 0-.27.23-.5.5-.5.28 0 .5.23.5.5zm-2.56 3.05c0 .28-.23.5-.5.5-.3 0-.5-.22-.5-.5s.2-.5.5-.5c.27 0 .5.22.5.5zm-2.57 3.05c0 .27-.23.5-.5.5-.28 0-.5-.23-.5-.5 0-.28.22-.5.5-.5.27 0 .5.22.5.5zm-2.57 3.04c0 .28-.22.5-.5.5-.27 0-.5-.22-.5-.5 0-.27.23-.5.5-.5.28 0 .5.23.5.5zm-2.56 3.05c0 .28-.22.5-.5.5s-.5-.22-.5-.5.22-.5.5-.5.5.22.5.5zm-2.56 3.05c0 .27-.23.5-.5.5-.28 0-.5-.23-.5-.5 0-.28.22-.5.5-.5.27 0 .5.22.5.5zm-2.57 3.04c0 .3-.22.5-.5.5-.27 0-.5-.2-.5-.5 0-.26.23-.5.5-.5.28 0 .5.24.5.5zm-2.56 3.06c0 .28-.2.5-.5.5-.27 0-.5-.22-.5-.5 0-.27.23-.5.5-.5.3 0 .5.23.5.5zm-2.55 3.05c0 .28-.23.5-.5.5-.28 0-.5-.22-.5-.5 0-.27.22-.5.5-.5.27 0 .5.23.5.5zm-2.57 3.06c0 .27-.22.5-.5.5-.27 0-.5-.23-.5-.5 0-.28.23-.5.5-.5.28 0 .5.22.5.5zm-2.56 3.04c0 .28-.22.5-.5.5s-.5-.22-.5-.5c0-.27.22-.5.5-.5s.5.23.5.5zm-2.56 3.05c0 .28-.23.5-.5.5-.28 0-.5-.22-.5-.5s.22-.5.5-.5c.27 0 .5.22.5.5zm-2.57 3.05c0 .27-.23.5-.5.5-.28 0-.5-.23-.5-.5 0-.28.22-.5.5-.5.27 0 .5.22.5.5zm-2.57 3.04c0 .28-.22.5-.5.5s-.5-.22-.5-.5c0-.27.22-.5.5-.5s.5.23.5.5zm-2.56 3.05c0 .27-.23.5-.5.5-.28 0-.5-.23-.5-.5 0-.3.22-.5.5-.5.27 0 .5.2.5.5zm-2.57 3.04c0 .27-.22.5-.5.5-.27 0-.5-.23-.5-.5 0-.28.23-.5.5-.5.28 0 .5.22.5.5zm-2.56 3.04c0 .28-.22.5-.5.5-.27 0-.5-.22-.5-.5 0-.27.23-.5.5-.5.28 0 .5.23.5.5zm-2.56 3.05c0 .28-.23.5-.5.5-.28 0-.5-.22-.5-.5s.22-.5.5-.5c.27 0 .5.22.5.5zm-2.57 3.05c0 .27-.2.5-.5.5-.26 0-.5-.23-.5-.5 0-.28.24-.5.5-.5.3 0 .5.22.5.5zm-2.55 3.04c0 .28-.22.5-.5.5-.27 0-.5-.22-.5-.5 0-.27.23-.5.5-.5.28 0 .5.23.5.5zm-2.56 3.05c0 .28-.23.5-.5.5-.3 0-.5-.22-.5-.5 0-.27.2-.5.5-.5.27 0 .5.23.5.5zm-2.57 3.05c0 .27-.23.5-.5.5-.28 0-.5-.23-.5-.5 0-.28.22-.5.5-.5.27 0 .5.22.5.5zm-2.57 3.05c0 .27-.22.5-.5.5-.27 0-.5-.23-.5-.5 0-.28.23-.5.5-.5.28 0 .5.22.5.5zm-2.56 3.04c0 .3-.22.5-.5.5s-.5-.2-.5-.5c0-.26.22-.5.5-.5s.5.24.5.5zm-2.56 3.06c0 .27-.23.5-.5.5-.28 0-.5-.23-.5-.5 0-.28.22-.5.5-.5.27 0 .5.22.5.5zm-2.57 3.05c0 .28-.22.5-.5.5-.27 0-.5-.22-.5-.5 0-.27.23-.5.5-.5.28 0 .5.23.5.5zm-2.56 3.05c0 .28-.2.5-.5.5-.27 0-.5-.22-.5-.5 0-.27.23-.5.5-.5.3 0 .5.23.5.5zm-2.55 3.05c0 .28-.23.5-.5.5-.28 0-.5-.22-.5-.5s.22-.5.5-.5c.27 0 .5.22.5.5zm-2.57 3.05c0 .27-.22.5-.5.5-.27 0-.5-.23-.5-.5 0-.28.23-.5.5-.5.28 0 .5.22.5.5zm-2.56 3.04c0 .27-.22.5-.5.5s-.5-.23-.5-.5c0-.28.22-.5.5-.5s.5.22.5.5zm-2.56 3.04c0 .28-.23.5-.5.5-.28 0-.5-.22-.5-.5s.22-.5.5-.5c.27 0 .5.22.5.5zm-2.57 3.05c0 .26-.23.5-.5.5-.28 0-.5-.24-.5-.5 0-.3.22-.5.5-.5.27 0 .5.2.5.5zm-2.57 3.03c0 .28-.22.5-.5.5-.27 0-.5-.22-.5-.5 0-.27.23-.5.5-.5.28 0 .5.23.5.5zm-2.56 3.05c0 .28-.23.5-.5.5-.28 0-.5-.22-.5-.5s.22-.5.5-.5c.27 0 .5.22.5.5zm-2.57 3.05c0 .27-.22.5-.5.5-.27 0-.5-.23-.5-.5 0-.28.23-.5.5-.5.28 0 .5.22.5.5zm-2.56 3.04c0 .28-.22.5-.5.5-.27 0-.5-.22-.5-.5 0-.27.23-.5.5-.5.28 0 .5.23.5.5zm-2.56 3.05c0 .28-.23.5-.5.5-.28 0-.5-.22-.5-.5 0-.27.22-.5.5-.5.27 0 .5.23.5.5zm-2.57 3.05c0 .28-.2.5-.5.5-.26 0-.5-.22-.5-.5s.24-.5.5-.5c.3 0 .5.22.5.5zm-2.55 3.05c0 .27-.22.5-.5.5-.27 0-.5-.23-.5-.5 0-.28.23-.5.5-.5.28 0 .5.22.5.5zm-2.56 3.04c0 .28-.23.5-.5.5-.3 0-.5-.22-.5-.5 0-.27.2-.5.5-.5.27 0 .5.23.5.5zm-2.57 3.05c0 .3-.23.5-.5.5-.28 0-.5-.2-.5-.5 0-.27.22-.5.5-.5.27 0 .5.23.5.5zm-2.57 3.06c0 .27-.22.5-.5.5-.27 0-.5-.23-.5-.5 0-.28.23-.5.5-.5.28 0 .5.22.5.5zm-2.56 3.04c0 .28-.22.5-.5.5s-.5-.22-.5-.5c0-.27.22-.5.5-.5s.5.23.5.5zm-2.56 3.05c0 .28-.23.5-.5.5-.28 0-.5-.22-.5-.5 0-.27.22-.5.5-.5.27 0 .5.23.5.5zm-2.57 3.05c0 .27-.22.5-.5.5-.27 0-.5-.23-.5-.5 0-.28.23-.5.5-.5.28 0 .5.22.5.5zm-2.56 3.04c0 .28-.2.5-.5.5-.27 0-.5-.22-.5-.5 0-.27.23-.5.5-.5.3 0 .5.23.5.5zm-2.55 3.05c0 .27-.23.5-.5.5-.28 0-.5-.23-.5-.5 0-.28.22-.5.5-.5.27 0 .5.22.5.5zm-2.57 3.04c0 .27-.22.5-.5.5-.27 0-.5-.23-.5-.5 0-.28.23-.5.5-.5.28 0 .5.22.5.5zm-2.56 3.05c0 .26-.22.5-.5.5s-.5-.24-.5-.5c0-.3.22-.5.5-.5s.5.2.5.5zm-2.56 3.03c0 .28-.23.5-.5.5-.28 0-.5-.22-.5-.5 0-.27.22-.5.5-.5.27 0 .5.23.5.5zm-2.57 3.05c0 .28-.23.5-.5.5-.28 0-.5-.22-.5-.5s.22-.5.5-.5c.27 0 .5.22.5.5zm-2.57 3.05c0 .27-.22.5-.5.5-.27 0-.5-.23-.5-.5 0-.28.23-.5.5-.5.28 0 .5.22.5.5zm-2.56 3.04c0 .28-.23.5-.5.5-.28 0-.5-.22-.5-.5 0-.27.22-.5.5-.5.27 0 .5.23.5.5zm-2.57 3.05c0 .28-.22.5-.5.5-.27 0-.5-.22-.5-.5s.23-.5.5-.5c.28 0 .5.22.5.5zm-2.56 3.05c0 .27-.22.5-.5.5s-.5-.23-.5-.5c0-.28.22-.5.5-.5s.5.22.5.5zm-2.56 3.04c0 .3-.22.5-.5.5s-.5-.2-.5-.5c0-.26.22-.5.5-.5s.5.24.5.5zm-2.56 3.06c0 .28-.23.5-.5.5-.28 0-.5-.22-.5-.5 0-.27.22-.5.5-.5.27 0 .5.23.5.5zm-2.57 3.05c0 .28-.22.5-.5.5-.27 0-.5-.22-.5-.5 0-.27.23-.5.5-.5.28 0 .5.23.5.5zm-2.56 3.05c0 .28-.24.5-.5.5-.3 0-.5-.22-.5-.5 0-.27.2-.5.5-.5.26 0 .5.23.5.5zm-2.57 3.05c0 .28-.23.5-.5.5-.28 0-.5-.22-.5-.5 0-.27.22-.5.5-.5.27 0 .5.23.5.5zm-2.57 3.05c0 .27-.22.5-.5.5-.27 0-.5-.23-.5-.5 0-.28.23-.5.5-.5.28 0 .5.22.5.5zm-2.56 3.05c0 .27-.22.5-.5.5s-.5-.23-.5-.5c0-.28.22-.5.5-.5s.5.22.5.5zm-2.56 3.04c0 .28-.23.5-.5.5-.28 0-.5-.22-.5-.5 0-.27.22-.5.5-.5.27 0 .5.23.5.5zm-2.57 3.05c0 .27-.22.5-.5.5-.27 0-.5-.23-.5-.5 0-.3.23-.5.5-.5.28 0 .5.2.5.5zm-2.56 3.04c0 .27-.2.5-.5.5-.27 0-.5-.23-.5-.5 0-.28.23-.5.5-.5.3 0 .5.22.5.5zm-2.55 3.04c0 .28-.23.5-.5.5-.28 0-.5-.22-.5-.5 0-.27.22-.5.5-.5.27 0 .5.23.5.5zm-2.57 3.05c0 .28-.22.5-.5.5-.27 0-.5-.22-.5-.5s.23-.5.5-.5c.28 0 .5.22.5.5zm-2.56 3.05c0 .27-.22.5-.5.5s-.5-.23-.5-.5c0-.28.22-.5.5-.5s.5.22.5.5zm-2.56 3.04c0 .28-.23.5-.5.5-.28 0-.5-.22-.5-.5 0-.27.22-.5.5-.5.27 0 .5.23.5.5zm-2.57 3.05c0 .28-.23.5-.5.5-.28 0-.5-.22-.5-.5 0-.27.22-.5.5-.5.27 0 .5.23.5.5zm-2.57 3.05c0 .27-.22.5-.5.5s-.5-.23-.5-.5c0-.28.22-.5.5-.5s.5.22.5.5zm-2.56 3.04c0 .28-.23.5-.5.5-.28 0-.5-.22-.5-.5 0-.27.22-.5.5-.5.27 0 .5.23.5.5zm-2.56 3.05c0 .3-.22.5-.5.5-.27 0-.5-.2-.5-.5 0-.26.23-.5.5-.5.28 0 .5.24.5.5zm-2.56 3.06c0 .27-.22.5-.5.5s-.5-.23-.5-.5c0-.28.22-.5.5-.5s.5.22.5.5zm-2.56 3.05c0 .28-.23.5-.5.5-.28 0-.5-.22-.5-.5 0-.27.22-.5.5-.5.27 0 .5.23.5.5zm-2.57 3.05c.02.28-.2.5-.48.5-.28 0-.5-.22-.5-.5 0-.27.22-.5.5-.5.27 0 .5.23.5.5zm-2.55 3.05c0 .28-.22.5-.5.5-.27 0-.5-.22-.5-.5s.23-.5.5-.5c.28 0 .5.22.5.5zm-2.56 3.05c0 .27-.24.5-.5.5-.3 0-.5-.23-.5-.5 0-.28.2-.5.5-.5.26 0 .5.22.5.5zm-2.57 3.04c0 .27-.23.5-.5.5-.28 0-.5-.23-.5-.5 0-.28.22-.5.5-.5.27 0 .5.22.5.5zm-2.57 3.04c0 .28-.22.5-.5.5-.27 0-.5-.22-.5-.5 0-.27.23-.5.5-.5.28 0 .5.23.5.5zm-2.56 3.05c0 .26-.22.5-.5.5s-.5-.24-.5-.5c0-.3.22-.5.5-.5s.5.2.5.5zm-2.56 3.04c0 .27-.23.5-.5.5-.28 0-.5-.23-.5-.5 0-.28.22-.5.5-.5.27 0 .5.22.5.5zm-2.57 3.04c0 .28-.22.5-.5.5-.27 0-.5-.22-.5-.5 0-.27.23-.5.5-.5.28 0 .5.23.5.5zm-2.56 3.05c0 .28-.2.5-.5.5-.27 0-.5-.22-.5-.5s.23-.5.5-.5c.3 0 .5.22.5.5zm-2.55 3.05c0 .27-.23.5-.5.5-.28 0-.5-.23-.5-.5 0-.28.22-.5.5-.5.27 0 .5.22.5.5zm-2.57 3.04c0 .28-.22.5-.5.5-.27 0-.5-.22-.5-.5 0-.27.23-.5.5-.5.28 0 .5.23.5.5zm-2.56 3.05c0 .27-.22.5-.5.5s-.5-.23-.5-.5c0-.28.22-.5.5-.5s.5.22.5.5zm-2.56 3.05c0 .27-.23.5-.5.5-.28 0-.5-.23-.5-.5 0-.28.22-.5.5-.5.27 0 .5.22.5.5zm-2.57 3.04c0 .28-.23.5-.5.5-.28 0-.5-.22-.5-.5 0-.27.22-.5.5-.5.27 0 .5.23.5.5zm-2.57 3.05c0 .3-.22.5-.5.5s-.5-.2-.5-.5c0-.27.22-.5.5-.5s.5.23.5.5zm-2.56 3.06c0 .27-.23.5-.5.5-.28 0-.5-.23-.5-.5 0-.28.22-.5.5-.5.27 0 .5.22.5.5zm-2.56 3.04c0 .28-.22.5-.5.5-.27 0-.5-.22-.5-.5 0-.27.23-.5.5-.5.28 0 .5.23.5.5zm-2.56 3.05c0 .28-.22.5-.5.5-.27 0-.5-.22-.5-.5 0-.27.23-.5.5-.5.28 0 .5.23.5.5zm-2.56 3.05c0 .27-.23.5-.5.5-.28 0-.5-.23-.5-.5 0-.28.22-.5.5-.5.27 0 .5.22.5.5zm-2.57 3.05c.02.27-.2.5-.48.5-.28 0-.5-.23-.5-.5 0-.28.22-.5.5-.5.27 0 .5.22.5.5zm-2.55 3.04c0 .27-.22.5-.5.5-.27 0-.5-.23-.5-.5 0-.28.23-.5.5-.5.28 0 .5.22.5.5zm-2.56 3.04c0 .28-.23.5-.5.5-.3 0-.5-.22-.5-.5s.2-.5.5-.5c.27 0 .5.22.5.5zm-2.57 3.05c0 .26-.23.5-.5.5-.28 0-.5-.24-.5-.5 0-.3.22-.5.5-.5.27 0 .5.2.5.5zm-2.57 3.03c0 .28-.22.5-.5.5-.27 0-.5-.22-.5-.5 0-.27.23-.5.5-.5.28 0 .5.23.5.5zm-2.56 3.05c0 .28-.22.5-.5.5s-.5-.22-.5-.5.22-.5.5-.5.5.22.5.5zm-2.56 3.05c0 .27-.23.5-.5.5-.28 0-.5-.23-.5-.5 0-.28.22-.5.5-.5.27 0 .5.22.5.5zm-2.57 3.04c0 .28-.22.5-.5.5-.27 0-.5-.22-.5-.5 0-.27.23-.5.5-.5.28 0 .5.23.5.5zm-2.56 3.05c0 .28-.2.5-.5.5-.27 0-.5-.22-.5-.5s.23-.5.5-.5c.3 0 .5.22.5.5zm-2.55 3.05c0 .27-.23.5-.5.5-.28 0-.5-.23-.5-.5 0-.28.22-.5.5-.5.27 0 .5.22.5.5z" fill="#3a414a"/><path d="M1860.03 545.25l-.72-.6.08-.1h1.24z" stroke="#3a414a" stroke-width=".05" fill="#3a414a"/><path d="M1581.04 876.17l5.64-13.9 7.1 5.96z" stroke="#3a414a" fill="#3a414a"/><path d="M1860.78 544.97c0 .28-.22.5-.5.5s-.5-.22-.5-.5.22-.5.5-.5.5.22.5.5zm2.25 3.32c0 .27-.23.5-.5.5-.28 0-.5-.23-.5-.5 0-.28.22-.5.5-.5.27 0 .5.22.5.5zm2.24 3.3c0 .3-.22.5-.5.5s-.5-.2-.5-.5c0-.26.22-.5.5-.5s.5.24.5.5zm2.25 3.33c0 .28-.23.5-.5.5-.28 0-.5-.22-.5-.5 0-.27.22-.5.5-.5.27 0 .5.23.5.5zm2.24 3.33c0 .27-.22.5-.5.5s-.5-.23-.5-.5c0-.28.22-.5.5-.5s.5.22.5.5zm2.25 3.32c0 .27-.22.5-.5.5-.27 0-.5-.23-.5-.5 0-.28.23-.5.5-.5.28 0 .5.22.5.5zm2.25 3.32c0 .27-.22.5-.5.5s-.5-.23-.5-.5c0-.28.22-.5.5-.5s.5.22.5.5zm2.25 3.32c0 .28-.23.5-.5.5-.28 0-.5-.22-.5-.5 0-.27.22-.5.5-.5.27 0 .5.23.5.5zm2.24 3.32c0 .28-.22.5-.5.5-.27 0-.5-.22-.5-.5 0-.27.23-.5.5-.5.28 0 .5.23.5.5zm2.25 3.32c0 .28-.24.5-.5.5-.3 0-.5-.22-.5-.5 0-.27.2-.5.5-.5.26 0 .5.23.5.5zm2.23 3.32c0 .28-.22.5-.5.5-.27 0-.5-.22-.5-.5 0-.27.23-.5.5-.5.28 0 .5.23.5.5zm2.25 3.33c0 .28-.23.5-.5.5-.28 0-.5-.22-.5-.5 0-.27.22-.5.5-.5.27 0 .5.23.5.5zm2.24 3.33c0 .27-.22.5-.5.5-.27 0-.5-.23-.5-.5 0-.28.23-.5.5-.5.28 0 .5.22.5.5zm2.25 3.32c0 .28-.23.5-.5.5-.28 0-.5-.22-.5-.5s.22-.5.5-.5c.27 0 .5.22.5.5zm2.24 3.32c0 .28-.2.5-.5.5-.26 0-.5-.22-.5-.5 0-.27.24-.5.5-.5.3 0 .5.23.5.5zm2.26 3.32c0 .27-.23.5-.5.5-.28 0-.5-.23-.5-.5 0-.28.22-.5.5-.5.27 0 .5.22.5.5zm2.24 3.3c0 .3-.22.5-.5.5-.27 0-.5-.2-.5-.5 0-.26.23-.5.5-.5.28 0 .5.24.5.5zm2.25 3.33c0 .28-.23.5-.5.5-.28 0-.5-.22-.5-.5 0-.27.22-.5.5-.5.27 0 .5.23.5.5zm2.24 3.33c0 .27-.23.5-.5.5-.28 0-.5-.23-.5-.5 0-.28.22-.5.5-.5.27 0 .5.22.5.5zm2.24 3.32c0 .27-.22.5-.5.5s-.5-.23-.5-.5c0-.28.22-.5.5-.5s.5.22.5.5zm2.24 3.32c0 .28-.22.5-.5.5-.27 0-.5-.22-.5-.5s.23-.5.5-.5c.28 0 .5.22.5.5zm2.25 3.32c0 .28-.22.5-.5.5s-.5-.22-.5-.5c0-.27.22-.5.5-.5s.5.23.5.5zm2.25 3.32c0 .28-.23.5-.5.5-.28 0-.5-.22-.5-.5 0-.27.22-.5.5-.5.27 0 .5.23.5.5zm2.24 3.32c0 .28-.22.5-.5.5s-.5-.22-.5-.5c0-.27.22-.5.5-.5s.5.23.5.5zm2.25 3.33c0 .26-.23.5-.5.5-.28 0-.5-.24-.5-.5 0-.3.22-.5.5-.5.27 0 .5.2.5.5zm2.24 3.3c0 .28-.2.5-.5.5-.27 0-.5-.22-.5-.5 0-.27.23-.5.5-.5.3 0 .5.23.5.5zm2.26 3.33c0 .27-.23.5-.5.5-.28 0-.5-.23-.5-.5 0-.28.22-.5.5-.5.27 0 .5.22.5.5zm2.24 3.32c0 .28-.22.5-.5.5-.27 0-.5-.22-.5-.5s.23-.5.5-.5c.28 0 .5.22.5.5zm2.25 3.32c0 .28-.23.5-.5.5-.28 0-.5-.22-.5-.5 0-.27.22-.5.5-.5.27 0 .5.23.5.5zm2.24 3.32c0 .27-.23.5-.5.5-.28 0-.5-.23-.5-.5 0-.28.22-.5.5-.5.27 0 .5.22.5.5zm2.24 3.3c0 .3-.23.5-.5.5-.28 0-.5-.2-.5-.5 0-.26.22-.5.5-.5.27 0 .5.24.5.5zm2.24 3.34c0 .27-.22.5-.5.5-.27 0-.5-.23-.5-.5 0-.28.23-.5.5-.5.28 0 .5.22.5.5zm2.25 3.32c0 .27-.23.5-.5.5-.28 0-.5-.23-.5-.5 0-.28.22-.5.5-.5.27 0 .5.22.5.5zm2.24 3.32c0 .27-.22.5-.5.5-.27 0-.5-.23-.5-.5 0-.28.23-.5.5-.5.28 0 .5.22.5.5zm2.25 3.32c0 .28-.22.5-.5.5s-.5-.22-.5-.5.22-.5.5-.5.5.22.5.5zm2.24 3.32c0 .28-.22.5-.5.5-.27 0-.5-.22-.5-.5 0-.27.23-.5.5-.5.28 0 .5.23.5.5zm2.25 3.32c0 .28-.2.5-.5.5-.27 0-.5-.22-.5-.5 0-.27.23-.5.5-.5.3 0 .5.23.5.5zm2.25 3.33c0 .27-.22.5-.5.5-.27 0-.5-.23-.5-.5 0-.28.23-.5.5-.5.28 0 .5.22.5.5zm2.25 3.32c0 .26-.22.5-.5.5s-.5-.24-.5-.5c0-.3.22-.5.5-.5s.5.2.5.5zm2.25 3.3c0 .28-.23.5-.5.5-.28 0-.5-.22-.5-.5 0-.27.22-.5.5-.5.27 0 .5.23.5.5zm2.24 3.33c0 .27-.23.5-.5.5-.3 0-.5-.23-.5-.5 0-.28.2-.5.5-.5.27 0 .5.22.5.5zm2.24 3.32c0 .28-.23.5-.5.5-.28 0-.5-.22-.5-.5s.22-.5.5-.5c.27 0 .5.22.5.5zm2.24 3.32c0 .28-.22.5-.5.5-.27 0-.5-.22-.5-.5 0-.27.23-.5.5-.5.28 0 .5.23.5.5zm2.25 3.32c0 .27-.23.5-.5.5-.28 0-.5-.23-.5-.5 0-.28.22-.5.5-.5.27 0 .5.22.5.5zm2.24 3.32c0 .27-.22.5-.5.5-.27 0-.5-.23-.5-.5 0-.28.23-.5.5-.5.28 0 .5.22.5.5zm2.25 3.32c0 .27-.23.5-.5.5-.28 0-.5-.23-.5-.5 0-.28.22-.5.5-.5.27 0 .5.22.5.5zm2.24 3.32c0 .27-.22.5-.5.5-.27 0-.5-.23-.5-.5 0-.28.23-.5.5-.5.28 0 .5.22.5.5zm2.25 3.32c0 .28-.22.5-.5.5-.27 0-.5-.22-.5-.5s.23-.5.5-.5c.28 0 .5.22.5.5zm2.25 3.32c0 .28-.22.5-.5.5-.27 0-.5-.22-.5-.5 0-.27.23-.5.5-.5.28 0 .5.23.5.5zm2.25 3.32c0 .28-.23.5-.5.5-.28 0-.5-.22-.5-.5 0-.27.22-.5.5-.5.27 0 .5.23.5.5zm2.24 3.32c0 .28-.22.5-.5.5-.27 0-.5-.22-.5-.5 0-.27.23-.5.5-.5.28 0 .5.23.5.5zm2.25 3.33c0 .27-.24.5-.5.5-.3 0-.5-.23-.5-.5 0-.28.2-.5.5-.5.26 0 .5.22.5.5zm2.23 3.32c0 .26-.22.5-.5.5-.27 0-.5-.24-.5-.5 0-.3.23-.5.5-.5.28 0 .5.2.5.5zm2.25 3.3c0 .28-.22.5-.5.5s-.5-.22-.5-.5c0-.27.22-.5.5-.5s.5.23.5.5zm2.24 3.33c0 .28-.22.5-.5.5-.27 0-.5-.22-.5-.5s.23-.5.5-.5c.28 0 .5.22.5.5zm2.25 3.32c0 .28-.22.5-.5.5s-.5-.22-.5-.5c0-.27.22-.5.5-.5s.5.23.5.5zm2.24 3.32c0 .28-.2.5-.5.5-.26 0-.5-.22-.5-.5 0-.27.24-.5.5-.5.3 0 .5.23.5.5zm2.26 3.32c0 .27-.22.5-.5.5s-.5-.23-.5-.5c0-.28.22-.5.5-.5s.5.22.5.5zm2.25 3.32c0 .27-.22.5-.5.5-.27 0-.5-.23-.5-.5 0-.28.23-.5.5-.5.28 0 .5.22.5.5zm2.25 3.32c0 .27-.22.5-.5.5s-.5-.23-.5-.5c0-.28.22-.5.5-.5s.5.22.5.5zm2.24 3.32c0 .27-.23.5-.5.5-.28 0-.5-.23-.5-.5 0-.28.22-.5.5-.5.27 0 .5.22.5.5zm2.24 3.32c0 .28-.22.5-.5.5s-.5-.22-.5-.5.22-.5.5-.5.5.22.5.5zm2.25 3.32c0 .28-.24.5-.5.5-.3 0-.5-.22-.5-.5 0-.27.2-.5.5-.5.26 0 .5.23.5.5zm2.23 3.32c0 .28-.22.5-.5.5s-.5-.22-.5-.5c0-.27.22-.5.5-.5s.5.23.5.5zm2.25 3.32c0 .28-.23.5-.5.5-.28 0-.5-.22-.5-.5 0-.27.22-.5.5-.5.27 0 .5.23.5.5zm2.24 3.33c0 .27-.22.5-.5.5s-.5-.23-.5-.5c0-.28.22-.5.5-.5s.5.22.5.5zm2.25 3.32c0 .26-.23.5-.5.5-.28 0-.5-.24-.5-.5 0-.3.22-.5.5-.5.27 0 .5.2.5.5zm2.24 3.3c0 .28-.2.5-.5.5-.26 0-.5-.22-.5-.5 0-.27.24-.5.5-.5.3 0 .5.23.5.5zm2.26 3.33c0 .28-.23.5-.5.5-.28 0-.5-.22-.5-.5s.22-.5.5-.5c.27 0 .5.22.5.5zm2.24 3.32c0 .28-.22.5-.5.5-.27 0-.5-.22-.5-.5 0-.27.23-.5.5-.5.28 0 .5.23.5.5zm2.25 3.32c0 .28-.23.5-.5.5-.28 0-.5-.22-.5-.5 0-.27.22-.5.5-.5.27 0 .5.23.5.5zm2.24 3.32c0 .27-.23.5-.5.5-.28 0-.5-.23-.5-.5 0-.28.22-.5.5-.5.27 0 .5.22.5.5zm2.24 3.32c0 .27-.23.5-.5.5-.28 0-.5-.23-.5-.5 0-.28.22-.5.5-.5.27 0 .5.22.5.5zm2.24 3.32c0 .27-.22.5-.5.5-.27 0-.5-.23-.5-.5 0-.28.23-.5.5-.5.28 0 .5.22.5.5zm2.25 3.32c0 .27-.23.5-.5.5-.28 0-.5-.23-.5-.5 0-.28.22-.5.5-.5.27 0 .5.22.5.5zm2.24 3.32c0 .28-.22.5-.5.5-.27 0-.5-.22-.5-.5s.23-.5.5-.5c.28 0 .5.22.5.5zm2.25 3.32c0 .28-.22.5-.5.5s-.5-.22-.5-.5c0-.27.22-.5.5-.5s.5.23.5.5zm2.24 3.32c0 .28-.22.5-.5.5-.27 0-.5-.22-.5-.5 0-.27.23-.5.5-.5.28 0 .5.23.5.5zm2.25 3.32c0 .28-.2.5-.5.5-.27 0-.5-.22-.5-.5 0-.27.23-.5.5-.5.3 0 .5.23.5.5zm2.25 3.33c0 .27-.22.5-.5.5-.27 0-.5-.23-.5-.5 0-.28.23-.5.5-.5.28 0 .5.22.5.5zm2.25 3.32c0 .26-.22.5-.5.5s-.5-.24-.5-.5c0-.3.22-.5.5-.5s.5.2.5.5zm2.25 3.3c0 .28-.23.5-.5.5-.28 0-.5-.22-.5-.5 0-.27.22-.5.5-.5.27 0 .5.23.5.5zm2.24 3.33c0 .28-.23.5-.5.5-.3 0-.5-.22-.5-.5s.2-.5.5-.5c.27 0 .5.22.5.5zm2.24 3.32c0 .28-.23.5-.5.5-.28 0-.5-.22-.5-.5 0-.27.22-.5.5-.5.27 0 .5.23.5.5zm2.24 3.32c0 .28-.22.5-.5.5s-.5-.22-.5-.5c0-.27.22-.5.5-.5s.5.23.5.5zm2.25 3.32c0 .27-.23.5-.5.5-.28 0-.5-.23-.5-.5 0-.28.22-.5.5-.5.27 0 .5.22.5.5zm2.24 3.32c0 .27-.22.5-.5.5-.27 0-.5-.23-.5-.5 0-.28.23-.5.5-.5.28 0 .5.22.5.5zm2.25 3.32c0 .27-.23.5-.5.5-.28 0-.5-.23-.5-.5 0-.28.22-.5.5-.5.27 0 .5.22.5.5zm2.24 3.32c0 .28-.22.5-.5.5-.27 0-.5-.22-.5-.5s.23-.5.5-.5c.28 0 .5.22.5.5zm2.25 3.32c0 .28-.22.5-.5.5-.27 0-.5-.22-.5-.5s.23-.5.5-.5c.28 0 .5.22.5.5zm2.25 3.32c0 .28-.22.5-.5.5-.27 0-.5-.22-.5-.5 0-.27.23-.5.5-.5.28 0 .5.23.5.5zm2.25 3.32c0 .28-.23.5-.5.5-.28 0-.5-.22-.5-.5 0-.27.22-.5.5-.5.27 0 .5.23.5.5zm2.24 3.32c0 .28-.22.5-.5.5-.27 0-.5-.22-.5-.5 0-.27.23-.5.5-.5.28 0 .5.23.5.5zm2.25 3.33c0 .27-.24.5-.5.5-.3 0-.5-.23-.5-.5 0-.28.2-.5.5-.5.26 0 .5.22.5.5zm2.23 3.32c0 .26-.22.5-.5.5-.27 0-.5-.24-.5-.5 0-.3.23-.5.5-.5.28 0 .5.2.5.5zm2.25 3.3c0 .3-.22.5-.5.5s-.5-.2-.5-.5c0-.27.22-.5.5-.5s.5.23.5.5z" fill="#3a414a"/><path d="M1860.68 544.7l-.8.55-.45-.7h1.14z" stroke="#3a414a" stroke-width=".05" fill="#3a414a"/><path d="M2084.1 876.06l-11.84-9.22 7.68-5.2z" stroke="#3a414a" fill="#3a414a"/><path d="M2400 884.4a6 6 0 0 1 6-6h368a6 6 0 0 1 6 6V988.9a6 6 0 0 1-6 6h-368a6 6 0 0 1-6-6z" fill="#fcfcca"/><path d="M2401 884.4c0 .56-.45 1-1 1s-1-.44-1-1c0-.55.45-1 1-1s1 .45 1 1zm6-6c0 .56-.45 1-1 1s-1-.44-1-1c0-.55.45-1 1-1s1 .45 1 1zm8 0c0 .56-.45 1-1 1s-1-.44-1-1c0-.55.45-1 1-1s1 .45 1 1zm8 0c0 .56-.45 1-1 1s-1-.44-1-1c0-.55.45-1 1-1s1 .45 1 1zm8 0c0 .56-.45 1-1 1s-1-.44-1-1c0-.55.45-1 1-1s1 .45 1 1zm8 0c0 .56-.45 1-1 1s-1-.44-1-1c0-.55.45-1 1-1s1 .45 1 1zm8 0c0 .56-.45 1-1 1s-1-.44-1-1c0-.55.45-1 1-1s1 .45 1 1zm8 0c0 .56-.45 1-1 1s-1-.44-1-1c0-.55.45-1 1-1s1 .45 1 1zm8 0c0 .56-.45 1-1 1s-1-.44-1-1c0-.55.45-1 1-1s1 .45 1 1zm8 0c0 .56-.45 1-1 1s-1-.44-1-1c0-.55.45-1 1-1s1 .45 1 1zm8 0c0 .56-.45 1-1 1s-1-.44-1-1c0-.55.45-1 1-1s1 .45 1 1zm8 0c0 .56-.45 1-1 1s-1-.44-1-1c0-.55.45-1 1-1s1 .45 1 1zm8 0c0 .56-.45 1-1 1s-1-.44-1-1c0-.55.45-1 1-1s1 .45 1 1zm8 0c0 .56-.45 1-1 1s-1-.44-1-1c0-.55.45-1 1-1s1 .45 1 1zm8 0c0 .56-.45 1-1 1s-1-.44-1-1c0-.55.45-1 1-1s1 .45 1 1zm8 0c0 .56-.45 1-1 1s-1-.44-1-1c0-.55.45-1 1-1s1 .45 1 1zm8 0c0 .56-.45 1-1 1s-1-.44-1-1c0-.55.45-1 1-1s1 .45 1 1zm8 0c0 .56-.45 1-1 1s-1-.44-1-1c0-.55.45-1 1-1s1 .45 1 1zm8 0c0 .56-.45 1-1 1s-1-.44-1-1c0-.55.45-1 1-1s1 .45 1 1zm8 0c0 .56-.45 1-1 1s-1-.44-1-1c0-.55.45-1 1-1s1 .45 1 1zm8 0c0 .56-.45 1-1 1s-1-.44-1-1c0-.55.45-1 1-1s1 .45 1 1zm8 0c0 .56-.45 1-1 1s-1-.44-1-1c0-.55.45-1 1-1s1 .45 1 1zm8 0c0 .56-.45 1-1 1s-1-.44-1-1c0-.55.45-1 1-1s1 .45 1 1zm8 0c0 .56-.45 1-1 1s-1-.44-1-1c0-.55.45-1 1-1s1 .45 1 1zm8 0c0 .56-.45 1-1 1s-1-.44-1-1c0-.55.45-1 1-1s1 .45 1 1zm8 0c0 .56-.45 1-1 1s-1-.44-1-1c0-.55.45-1 1-1s1 .45 1 1zm8 0c0 .56-.45 1-1 1s-1-.44-1-1c0-.55.45-1 1-1s1 .45 1 1zm8 0c0 .56-.45 1-1 1s-1-.44-1-1c0-.55.45-1 1-1s1 .45 1 1zm8 0c0 .56-.45 1-1 1s-1-.44-1-1c0-.55.45-1 1-1s1 .45 1 1zm8 0c0 .56-.45 1-1 1s-1-.44-1-1c0-.55.45-1 1-1s1 .45 1 1zm8 0c0 .56-.45 1-1 1s-1-.44-1-1c0-.55.45-1 1-1s1 .45 1 1zm8 0c0 .56-.45 1-1 1s-1-.44-1-1c0-.55.45-1 1-1s1 .45 1 1zm8 0c0 .56-.45 1-1 1s-1-.44-1-1c0-.55.45-1 1-1s1 .45 1 1zm8 0c0 .56-.45 1-1 1s-1-.44-1-1c0-.55.45-1 1-1s1 .45 1 1zm8 0c0 .56-.45 1-1 1s-1-.44-1-1c0-.55.45-1 1-1s1 .45 1 1zm8 0c0 .56-.45 1-1 1s-1-.44-1-1c0-.55.45-1 1-1s1 .45 1 1zm8 0c0 .56-.45 1-1 1s-1-.44-1-1c0-.55.45-1 1-1s1 .45 1 1zm8 0c0 .56-.45 1-1 1s-1-.44-1-1c0-.55.45-1 1-1s1 .45 1 1zm8 0c0 .56-.45 1-1 1s-1-.44-1-1c0-.55.45-1 1-1s1 .45 1 1zm8 0c0 .56-.45 1-1 1s-1-.44-1-1c0-.55.45-1 1-1s1 .45 1 1zm8 0c0 .56-.45 1-1 1s-1-.44-1-1c0-.55.45-1 1-1s1 .45 1 1zm8 0c0 .56-.45 1-1 1s-1-.44-1-1c0-.55.45-1 1-1s1 .45 1 1zm8 0c0 .56-.45 1-1 1s-1-.44-1-1c0-.55.45-1 1-1s1 .45 1 1zm8 0c0 .56-.45 1-1 1s-1-.44-1-1c0-.55.45-1 1-1s1 .45 1 1zm8 0c0 .56-.45 1-1 1s-1-.44-1-1c0-.55.45-1 1-1s1 .45 1 1zm8 0c0 .56-.45 1-1 1s-1-.44-1-1c0-.55.45-1 1-1s1 .45 1 1zm8 0c0 .56-.45 1-1 1s-1-.44-1-1c0-.55.45-1 1-1s1 .45 1 1zm8 0c0 .56-.45 1-1 1s-1-.44-1-1c0-.55.45-1 1-1s1 .45 1 1zm6 6c0 .56-.45 1-1 1s-1-.44-1-1c0-.55.45-1 1-1s1 .45 1 1zm0 8.04c0 .55-.45 1-1 1s-1-.45-1-1 .45-1 1-1 1 .45 1 1zm0 8.04c0 .55-.45 1-1 1s-1-.45-1-1 .45-1 1-1 1 .45 1 1zm0 8.03c0 .57-.45 1-1 1s-1-.43-1-1c0-.54.45-1 1-1s1 .46 1 1zm0 8.05c0 .55-.45 1-1 1s-1-.45-1-1 .45-1 1-1 1 .45 1 1zm0 8.04c0 .54-.45 1-1 1s-1-.46-1-1c0-.56.45-1 1-1s1 .44 1 1zm0 8.02c0 .56-.45 1-1 1s-1-.44-1-1c0-.55.45-1 1-1s1 .45 1 1zm0 8.04c0 .55-.45 1-1 1s-1-.45-1-1 .45-1 1-1 1 .45 1 1zm0 8.04c0 .55-.45 1-1 1s-1-.45-1-1 .45-1 1-1 1 .45 1 1zm0 8.03c0 .56-.45 1-1 1s-1-.44-1-1c0-.55.45-1 1-1s1 .45 1 1zm0 8.04c0 .55-.45 1-1 1s-1-.45-1-1 .45-1 1-1 1 .45 1 1zm0 8.04c0 .56-.45 1-1 1s-1-.44-1-1c0-.54.45-1 1-1s1 .46 1 1zm0 8.05c0 .55-.45 1-1 1s-1-.45-1-1c0-.56.45-1 1-1s1 .44 1 1zm0 8.03c0 .55-.45 1-1 1s-1-.45-1-1 .45-1 1-1 1 .45 1 1zm-6 6c0 .55-.45 1-1 1s-1-.45-1-1 .45-1 1-1 1 .45 1 1zm-8 0c0 .55-.45 1-1 1s-1-.45-1-1 .45-1 1-1 1 .45 1 1zm-8 0c0 .55-.45 1-1 1s-1-.45-1-1 .45-1 1-1 1 .45 1 1zm-8 0c0 .55-.45 1-1 1s-1-.45-1-1 .45-1 1-1 1 .45 1 1zm-8 0c0 .55-.45 1-1 1s-1-.45-1-1 .45-1 1-1 1 .45 1 1zm-8 0c0 .55-.45 1-1 1s-1-.45-1-1 .45-1 1-1 1 .45 1 1zm-8 0c0 .55-.45 1-1 1s-1-.45-1-1 .45-1 1-1 1 .45 1 1zm-8 0c0 .55-.45 1-1 1s-1-.45-1-1 .45-1 1-1 1 .45 1 1zm-8 0c0 .55-.45 1-1 1s-1-.45-1-1 .45-1 1-1 1 .45 1 1zm-8 0c0 .55-.45 1-1 1s-1-.45-1-1 .45-1 1-1 1 .45 1 1zm-8 0c0 .55-.45 1-1 1s-1-.45-1-1 .45-1 1-1 1 .45 1 1zm-8 0c0 .55-.45 1-1 1s-1-.45-1-1 .45-1 1-1 1 .45 1 1zm-8 0c0 .55-.45 1-1 1s-1-.45-1-1 .45-1 1-1 1 .45 1 1zm-8 0c0 .55-.45 1-1 1s-1-.45-1-1 .45-1 1-1 1 .45 1 1zm-8 0c0 .55-.45 1-1 1s-1-.45-1-1 .45-1 1-1 1 .45 1 1zm-8 0c0 .55-.45 1-1 1s-1-.45-1-1 .45-1 1-1 1 .45 1 1zm-8 0c0 .55-.45 1-1 1s-1-.45-1-1 .45-1 1-1 1 .45 1 1zm-8 0c0 .55-.45 1-1 1s-1-.45-1-1 .45-1 1-1 1 .45 1 1zm-8 0c0 .55-.45 1-1 1s-1-.45-1-1 .45-1 1-1 1 .45 1 1zm-8 0c0 .55-.45 1-1 1s-1-.45-1-1 .45-1 1-1 1 .45 1 1zm-8 0c0 .55-.45 1-1 1s-1-.45-1-1 .45-1 1-1 1 .45 1 1zm-8 0c0 .55-.45 1-1 1s-1-.45-1-1 .45-1 1-1 1 .45 1 1zm-8 0c0 .55-.45 1-1 1s-1-.45-1-1 .45-1 1-1 1 .45 1 1zm-8 0c0 .55-.45 1-1 1s-1-.45-1-1 .45-1 1-1 1 .45 1 1zm-8 0c0 .55-.45 1-1 1s-1-.45-1-1 .45-1 1-1 1 .45 1 1zm-8 0c0 .55-.45 1-1 1s-1-.45-1-1 .45-1 1-1 1 .45 1 1zm-8 0c0 .55-.45 1-1 1s-1-.45-1-1 .45-1 1-1 1 .45 1 1zm-8 0c0 .55-.45 1-1 1s-1-.45-1-1 .45-1 1-1 1 .45 1 1zm-8 0c0 .55-.45 1-1 1s-1-.45-1-1 .45-1 1-1 1 .45 1 1zm-8 0c0 .55-.45 1-1 1s-1-.45-1-1 .45-1 1-1 1 .45 1 1zm-8 0c0 .55-.45 1-1 1s-1-.45-1-1 .45-1 1-1 1 .45 1 1zm-8 0c0 .55-.45 1-1 1s-1-.45-1-1 .45-1 1-1 1 .45 1 1zm-8 0c0 .55-.45 1-1 1s-1-.45-1-1 .45-1 1-1 1 .45 1 1zm-8 0c0 .55-.45 1-1 1s-1-.45-1-1 .45-1 1-1 1 .45 1 1zm-8 0c0 .55-.45 1-1 1s-1-.45-1-1 .45-1 1-1 1 .45 1 1zm-8 0c0 .55-.45 1-1 1s-1-.45-1-1 .45-1 1-1 1 .45 1 1zm-8 0c0 .55-.45 1-1 1s-1-.45-1-1 .45-1 1-1 1 .45 1 1zm-8 0c0 .55-.45 1-1 1s-1-.45-1-1 .45-1 1-1 1 .45 1 1zm-8 0c0 .55-.45 1-1 1s-1-.45-1-1 .45-1 1-1 1 .45 1 1zm-8 0c0 .55-.45 1-1 1s-1-.45-1-1 .45-1 1-1 1 .45 1 1zm-8 0c0 .55-.45 1-1 1s-1-.45-1-1 .45-1 1-1 1 .45 1 1zm-8 0c0 .55-.45 1-1 1s-1-.45-1-1 .45-1 1-1 1 .45 1 1zm-8 0c0 .55-.45 1-1 1s-1-.45-1-1 .45-1 1-1 1 .45 1 1zm-8 0c0 .55-.45 1-1 1s-1-.45-1-1 .45-1 1-1 1 .45 1 1zm-8 0c0 .55-.45 1-1 1s-1-.45-1-1 .45-1 1-1 1 .45 1 1zm-8 0c0 .55-.45 1-1 1s-1-.45-1-1 .45-1 1-1 1 .45 1 1zm-8 0c0 .55-.45 1-1 1s-1-.45-1-1 .45-1 1-1 1 .45 1 1zm-6-6c0 .55-.45 1-1 1s-1-.45-1-1 .45-1 1-1 1 .45 1 1zm0-8.03c0 .55-.45 1-1 1s-1-.45-1-1c0-.56.45-1 1-1s1 .44 1 1zm0-8.04c0 .56-.45 1-1 1s-1-.44-1-1c0-.54.45-1 1-1s1 .46 1 1zm0-8.03c0 .55-.45 1-1 1s-1-.45-1-1 .45-1 1-1 1 .45 1 1zm0-8.03c0 .55-.45 1-1 1s-1-.45-1-1c0-.56.45-1 1-1s1 .44 1 1zm0-8.04c0 .55-.45 1-1 1s-1-.45-1-1 .45-1 1-1 1 .45 1 1zm0-8.04c0 .55-.45 1-1 1s-1-.45-1-1 .45-1 1-1 1 .45 1 1zm0-8.03c0 .55-.45 1-1 1s-1-.45-1-1c0-.56.45-1 1-1s1 .44 1 1zm0-8.04c0 .54-.45 1-1 1s-1-.46-1-1c0-.56.45-1 1-1s1 .44 1 1zm0-8.05c0 .55-.45 1-1 1s-1-.45-1-1 .45-1 1-1 1 .45 1 1zm0-8.03c0 .55-.45 1-1 1s-1-.45-1-1c0-.56.45-1 1-1s1 .44 1 1zm0-8.04c0 .55-.45 1-1 1s-1-.45-1-1 .45-1 1-1 1 .45 1 1zm0-8.04c0 .55-.45 1-1 1s-1-.45-1-1 .45-1 1-1 1 .45 1 1z"/><use xlink:href="#n" transform="matrix(1,0,0,1,2412,890.4047226041665) translate(2.86328125 62)"/><use xlink:href="#c" transform="matrix(1,0,0,1,2412,890.4047226041665) translate(162.8828125 62)"/><path d="M1860.45 544.76L2575.1 870.6" stroke="#3a414a" fill="none"/><path d="M1860.27 545.2l-1.4-.64h1.7z" stroke="#3a414a" stroke-width=".05" fill="#3a414a"/><path d="M2588.53 876.73l-14.9-1.7 3.84-8.43z" stroke="#3a414a" fill="#3a414a"/><path d="M2845 884.4a6 6 0 0 1 6-6h488a6 6 0 0 1 6 6V988.9a6 6 0 0 1-6 6h-488a6 6 0 0 1-6-6z" fill="#fcfcca"/><path d="M2846 884.4c0 .56-.45 1-1 1s-1-.44-1-1c0-.55.45-1 1-1s1 .45 1 1zm6-6c0 .56-.45 1-1 1s-1-.44-1-1c0-.55.45-1 1-1s1 .45 1 1zm8 0c0 .56-.45 1-1 1s-1-.44-1-1c0-.55.45-1 1-1s1 .45 1 1zm8 0c0 .56-.45 1-1 1s-1-.44-1-1c0-.55.45-1 1-1s1 .45 1 1zm8 0c0 .56-.45 1-1 1s-1-.44-1-1c0-.55.45-1 1-1s1 .45 1 1zm8 0c0 .56-.45 1-1 1s-1-.44-1-1c0-.55.45-1 1-1s1 .45 1 1zm8 0c0 .56-.45 1-1 1s-1-.44-1-1c0-.55.45-1 1-1s1 .45 1 1zm8 0c0 .56-.45 1-1 1s-1-.44-1-1c0-.55.45-1 1-1s1 .45 1 1zm8 0c0 .56-.45 1-1 1s-1-.44-1-1c0-.55.45-1 1-1s1 .45 1 1zm8 0c0 .56-.45 1-1 1s-1-.44-1-1c0-.55.45-1 1-1s1 .45 1 1zm8 0c0 .56-.45 1-1 1s-1-.44-1-1c0-.55.45-1 1-1s1 .45 1 1zm8 0c0 .56-.45 1-1 1s-1-.44-1-1c0-.55.45-1 1-1s1 .45 1 1zm8 0c0 .56-.45 1-1 1s-1-.44-1-1c0-.55.45-1 1-1s1 .45 1 1zm8 0c0 .56-.45 1-1 1s-1-.44-1-1c0-.55.45-1 1-1s1 .45 1 1zm8 0c0 .56-.45 1-1 1s-1-.44-1-1c0-.55.45-1 1-1s1 .45 1 1zm8 0c0 .56-.45 1-1 1s-1-.44-1-1c0-.55.45-1 1-1s1 .45 1 1zm8 0c0 .56-.45 1-1 1s-1-.44-1-1c0-.55.45-1 1-1s1 .45 1 1zm8 0c0 .56-.45 1-1 1s-1-.44-1-1c0-.55.45-1 1-1s1 .45 1 1zm8 0c0 .56-.45 1-1 1s-1-.44-1-1c0-.55.45-1 1-1s1 .45 1 1zm8 0c0 .56-.45 1-1 1s-1-.44-1-1c0-.55.45-1 1-1s1 .45 1 1zm8 0c0 .56-.45 1-1 1s-1-.44-1-1c0-.55.45-1 1-1s1 .45 1 1zm8 0c0 .56-.45 1-1 1s-1-.44-1-1c0-.55.45-1 1-1s1 .45 1 1zm8 0c0 .56-.45 1-1 1s-1-.44-1-1c0-.55.45-1 1-1s1 .45 1 1zm8 0c0 .56-.45 1-1 1s-1-.44-1-1c0-.55.45-1 1-1s1 .45 1 1zm8 0c0 .56-.45 1-1 1s-1-.44-1-1c0-.55.45-1 1-1s1 .45 1 1zm8 0c0 .56-.45 1-1 1s-1-.44-1-1c0-.55.45-1 1-1s1 .45 1 1zm8 0c0 .56-.45 1-1 1s-1-.44-1-1c0-.55.45-1 1-1s1 .45 1 1zm8 0c0 .56-.45 1-1 1s-1-.44-1-1c0-.55.45-1 1-1s1 .45 1 1zm8 0c0 .56-.45 1-1 1s-1-.44-1-1c0-.55.45-1 1-1s1 .45 1 1zm8 0c0 .56-.45 1-1 1s-1-.44-1-1c0-.55.45-1 1-1s1 .45 1 1zm8 0c0 .56-.45 1-1 1s-1-.44-1-1c0-.55.45-1 1-1s1 .45 1 1zm8 0c0 .56-.45 1-1 1s-1-.44-1-1c0-.55.45-1 1-1s1 .45 1 1zm8 0c0 .56-.45 1-1 1s-1-.44-1-1c0-.55.45-1 1-1s1 .45 1 1zm8 0c0 .56-.45 1-1 1s-1-.44-1-1c0-.55.45-1 1-1s1 .45 1 1zm8 0c0 .56-.45 1-1 1s-1-.44-1-1c0-.55.45-1 1-1s1 .45 1 1zm8 0c0 .56-.45 1-1 1s-1-.44-1-1c0-.55.45-1 1-1s1 .45 1 1zm8 0c0 .56-.45 1-1 1s-1-.44-1-1c0-.55.45-1 1-1s1 .45 1 1zm8 0c0 .56-.45 1-1 1s-1-.44-1-1c0-.55.45-1 1-1s1 .45 1 1zm8 0c0 .56-.45 1-1 1s-1-.44-1-1c0-.55.45-1 1-1s1 .45 1 1zm8 0c0 .56-.45 1-1 1s-1-.44-1-1c0-.55.45-1 1-1s1 .45 1 1zm8 0c0 .56-.45 1-1 1s-1-.44-1-1c0-.55.45-1 1-1s1 .45 1 1zm8 0c0 .56-.45 1-1 1s-1-.44-1-1c0-.55.45-1 1-1s1 .45 1 1zm8 0c0 .56-.45 1-1 1s-1-.44-1-1c0-.55.45-1 1-1s1 .45 1 1zm8 0c0 .56-.45 1-1 1s-1-.44-1-1c0-.55.45-1 1-1s1 .45 1 1zm8 0c0 .56-.45 1-1 1s-1-.44-1-1c0-.55.45-1 1-1s1 .45 1 1zm8 0c0 .56-.45 1-1 1s-1-.44-1-1c0-.55.45-1 1-1s1 .45 1 1zm8 0c0 .56-.45 1-1 1s-1-.44-1-1c0-.55.45-1 1-1s1 .45 1 1zm8 0c0 .56-.45 1-1 1s-1-.44-1-1c0-.55.45-1 1-1s1 .45 1 1zm8 0c0 .56-.45 1-1 1s-1-.44-1-1c0-.55.45-1 1-1s1 .45 1 1zm8 0c0 .56-.45 1-1 1s-1-.44-1-1c0-.55.45-1 1-1s1 .45 1 1zm8 0c0 .56-.45 1-1 1s-1-.44-1-1c0-.55.45-1 1-1s1 .45 1 1zm8 0c0 .56-.45 1-1 1s-1-.44-1-1c0-.55.45-1 1-1s1 .45 1 1zm8 0c0 .56-.45 1-1 1s-1-.44-1-1c0-.55.45-1 1-1s1 .45 1 1zm8 0c0 .56-.45 1-1 1s-1-.44-1-1c0-.55.45-1 1-1s1 .45 1 1zm8 0c0 .56-.45 1-1 1s-1-.44-1-1c0-.55.45-1 1-1s1 .45 1 1zm8 0c0 .56-.45 1-1 1s-1-.44-1-1c0-.55.45-1 1-1s1 .45 1 1zm8 0c0 .56-.45 1-1 1s-1-.44-1-1c0-.55.45-1 1-1s1 .45 1 1zm8 0c0 .56-.45 1-1 1s-1-.44-1-1c0-.55.45-1 1-1s1 .45 1 1zm8 0c0 .56-.45 1-1 1s-1-.44-1-1c0-.55.45-1 1-1s1 .45 1 1zm8 0c0 .56-.45 1-1 1s-1-.44-1-1c0-.55.45-1 1-1s1 .45 1 1zm8 0c0 .56-.45 1-1 1s-1-.44-1-1c0-.55.45-1 1-1s1 .45 1 1zm8 0c0 .56-.45 1-1 1s-1-.44-1-1c0-.55.45-1 1-1s1 .45 1 1zm8 0c0 .56-.45 1-1 1s-1-.44-1-1c0-.55.45-1 1-1s1 .45 1 1zm6 6c0 .56-.45 1-1 1s-1-.44-1-1c0-.55.45-1 1-1s1 .45 1 1zm0 8.04c0 .55-.45 1-1 1s-1-.45-1-1 .45-1 1-1 1 .45 1 1zm0 8.04c0 .55-.45 1-1 1s-1-.45-1-1 .45-1 1-1 1 .45 1 1zm0 8.03c0 .57-.45 1-1 1s-1-.43-1-1c0-.54.45-1 1-1s1 .46 1 1zm0 8.05c0 .55-.45 1-1 1s-1-.45-1-1 .45-1 1-1 1 .45 1 1zm0 8.04c0 .54-.45 1-1 1s-1-.46-1-1c0-.56.45-1 1-1s1 .44 1 1zm0 8.02c0 .56-.45 1-1 1s-1-.44-1-1c0-.55.45-1 1-1s1 .45 1 1zm0 8.04c0 .55-.45 1-1 1s-1-.45-1-1 .45-1 1-1 1 .45 1 1zm0 8.04c0 .55-.45 1-1 1s-1-.45-1-1 .45-1 1-1 1 .45 1 1zm0 8.03c0 .56-.45 1-1 1s-1-.44-1-1c0-.55.45-1 1-1s1 .45 1 1zm0 8.04c0 .55-.45 1-1 1s-1-.45-1-1 .45-1 1-1 1 .45 1 1zm0 8.04c0 .56-.45 1-1 1s-1-.44-1-1c0-.54.45-1 1-1s1 .46 1 1zm0 8.05c0 .55-.45 1-1 1s-1-.45-1-1c0-.56.45-1 1-1s1 .44 1 1zm0 8.03c0 .55-.45 1-1 1s-1-.45-1-1 .45-1 1-1 1 .45 1 1zm-6 6c0 .55-.45 1-1 1s-1-.45-1-1 .45-1 1-1 1 .45 1 1zm-8 0c0 .55-.45 1-1 1s-1-.45-1-1 .45-1 1-1 1 .45 1 1zm-8 0c0 .55-.45 1-1 1s-1-.45-1-1 .45-1 1-1 1 .45 1 1zm-8 0c0 .55-.45 1-1 1s-1-.45-1-1 .45-1 1-1 1 .45 1 1zm-8 0c0 .55-.45 1-1 1s-1-.45-1-1 .45-1 1-1 1 .45 1 1zm-8 0c0 .55-.45 1-1 1s-1-.45-1-1 .45-1 1-1 1 .45 1 1zm-8 0c0 .55-.45 1-1 1s-1-.45-1-1 .45-1 1-1 1 .45 1 1zm-8 0c0 .55-.45 1-1 1s-1-.45-1-1 .45-1 1-1 1 .45 1 1zm-8 0c0 .55-.45 1-1 1s-1-.45-1-1 .45-1 1-1 1 .45 1 1zm-8 0c0 .55-.45 1-1 1s-1-.45-1-1 .45-1 1-1 1 .45 1 1zm-8 0c0 .55-.45 1-1 1s-1-.45-1-1 .45-1 1-1 1 .45 1 1zm-8 0c0 .55-.45 1-1 1s-1-.45-1-1 .45-1 1-1 1 .45 1 1zm-8 0c0 .55-.45 1-1 1s-1-.45-1-1 .45-1 1-1 1 .45 1 1zm-8 0c0 .55-.45 1-1 1s-1-.45-1-1 .45-1 1-1 1 .45 1 1zm-8 0c0 .55-.45 1-1 1s-1-.45-1-1 .45-1 1-1 1 .45 1 1zm-8 0c0 .55-.45 1-1 1s-1-.45-1-1 .45-1 1-1 1 .45 1 1zm-8 0c0 .55-.45 1-1 1s-1-.45-1-1 .45-1 1-1 1 .45 1 1zm-8 0c0 .55-.45 1-1 1s-1-.45-1-1 .45-1 1-1 1 .45 1 1zm-8 0c0 .55-.45 1-1 1s-1-.45-1-1 .45-1 1-1 1 .45 1 1zm-8 0c0 .55-.45 1-1 1s-1-.45-1-1 .45-1 1-1 1 .45 1 1zm-8 0c0 .55-.45 1-1 1s-1-.45-1-1 .45-1 1-1 1 .45 1 1zm-8 0c0 .55-.45 1-1 1s-1-.45-1-1 .45-1 1-1 1 .45 1 1zm-8 0c0 .55-.45 1-1 1s-1-.45-1-1 .45-1 1-1 1 .45 1 1zm-8 0c0 .55-.45 1-1 1s-1-.45-1-1 .45-1 1-1 1 .45 1 1zm-8 0c0 .55-.45 1-1 1s-1-.45-1-1 .45-1 1-1 1 .45 1 1zm-8 0c0 .55-.45 1-1 1s-1-.45-1-1 .45-1 1-1 1 .45 1 1zm-8 0c0 .55-.45 1-1 1s-1-.45-1-1 .45-1 1-1 1 .45 1 1zm-8 0c0 .55-.45 1-1 1s-1-.45-1-1 .45-1 1-1 1 .45 1 1zm-8 0c0 .55-.45 1-1 1s-1-.45-1-1 .45-1 1-1 1 .45 1 1zm-8 0c0 .55-.45 1-1 1s-1-.45-1-1 .45-1 1-1 1 .45 1 1zm-8 0c0 .55-.45 1-1 1s-1-.45-1-1 .45-1 1-1 1 .45 1 1zm-8 0c0 .55-.45 1-1 1s-1-.45-1-1 .45-1 1-1 1 .45 1 1zm-8 0c0 .55-.45 1-1 1s-1-.45-1-1 .45-1 1-1 1 .45 1 1zm-8 0c0 .55-.45 1-1 1s-1-.45-1-1 .45-1 1-1 1 .45 1 1zm-8 0c0 .55-.45 1-1 1s-1-.45-1-1 .45-1 1-1 1 .45 1 1zm-8 0c0 .55-.45 1-1 1s-1-.45-1-1 .45-1 1-1 1 .45 1 1zm-8 0c0 .55-.45 1-1 1s-1-.45-1-1 .45-1 1-1 1 .45 1 1zm-8 0c0 .55-.45 1-1 1s-1-.45-1-1 .45-1 1-1 1 .45 1 1zm-8 0c0 .55-.45 1-1 1s-1-.45-1-1 .45-1 1-1 1 .45 1 1zm-8 0c0 .55-.45 1-1 1s-1-.45-1-1 .45-1 1-1 1 .45 1 1zm-8 0c0 .55-.45 1-1 1s-1-.45-1-1 .45-1 1-1 1 .45 1 1zm-8 0c0 .55-.45 1-1 1s-1-.45-1-1 .45-1 1-1 1 .45 1 1zm-8 0c0 .55-.45 1-1 1s-1-.45-1-1 .45-1 1-1 1 .45 1 1zm-8 0c0 .55-.45 1-1 1s-1-.45-1-1 .45-1 1-1 1 .45 1 1zm-8 0c0 .55-.45 1-1 1s-1-.45-1-1 .45-1 1-1 1 .45 1 1zm-8 0c0 .55-.45 1-1 1s-1-.45-1-1 .45-1 1-1 1 .45 1 1zm-8 0c0 .55-.45 1-1 1s-1-.45-1-1 .45-1 1-1 1 .45 1 1zm-8 0c0 .55-.45 1-1 1s-1-.45-1-1 .45-1 1-1 1 .45 1 1zm-8 0c0 .55-.45 1-1 1s-1-.45-1-1 .45-1 1-1 1 .45 1 1zm-8 0c0 .55-.45 1-1 1s-1-.45-1-1 .45-1 1-1 1 .45 1 1zm-8 0c0 .55-.45 1-1 1s-1-.45-1-1 .45-1 1-1 1 .45 1 1zm-8 0c0 .55-.45 1-1 1s-1-.45-1-1 .45-1 1-1 1 .45 1 1zm-8 0c0 .55-.45 1-1 1s-1-.45-1-1 .45-1 1-1 1 .45 1 1zm-8 0c0 .55-.45 1-1 1s-1-.45-1-1 .45-1 1-1 1 .45 1 1zm-8 0c0 .55-.45 1-1 1s-1-.45-1-1 .45-1 1-1 1 .45 1 1zm-8 0c0 .55-.45 1-1 1s-1-.45-1-1 .45-1 1-1 1 .45 1 1zm-8 0c0 .55-.45 1-1 1s-1-.45-1-1 .45-1 1-1 1 .45 1 1zm-8 0c0 .55-.45 1-1 1s-1-.45-1-1 .45-1 1-1 1 .45 1 1zm-8 0c0 .55-.45 1-1 1s-1-.45-1-1 .45-1 1-1 1 .45 1 1zm-8 0c0 .55-.45 1-1 1s-1-.45-1-1 .45-1 1-1 1 .45 1 1zm-8 0c0 .55-.45 1-1 1s-1-.45-1-1 .45-1 1-1 1 .45 1 1zm-8 0c0 .55-.45 1-1 1s-1-.45-1-1 .45-1 1-1 1 .45 1 1zm-6-6c0 .55-.45 1-1 1s-1-.45-1-1 .45-1 1-1 1 .45 1 1zm0-8.03c0 .55-.45 1-1 1s-1-.45-1-1c0-.56.45-1 1-1s1 .44 1 1zm0-8.04c0 .56-.45 1-1 1s-1-.44-1-1c0-.54.45-1 1-1s1 .46 1 1zm0-8.03c0 .55-.45 1-1 1s-1-.45-1-1 .45-1 1-1 1 .45 1 1zm0-8.03c0 .55-.45 1-1 1s-1-.45-1-1c0-.56.45-1 1-1s1 .44 1 1zm0-8.04c0 .55-.45 1-1 1s-1-.45-1-1 .45-1 1-1 1 .45 1 1zm0-8.04c0 .55-.45 1-1 1s-1-.45-1-1 .45-1 1-1 1 .45 1 1zm0-8.03c0 .55-.45 1-1 1s-1-.45-1-1c0-.56.45-1 1-1s1 .44 1 1zm0-8.04c0 .54-.45 1-1 1s-1-.46-1-1c0-.56.45-1 1-1s1 .44 1 1zm0-8.05c0 .55-.45 1-1 1s-1-.45-1-1 .45-1 1-1 1 .45 1 1zm0-8.03c0 .55-.45 1-1 1s-1-.45-1-1c0-.56.45-1 1-1s1 .44 1 1zm0-8.04c0 .55-.45 1-1 1s-1-.45-1-1 .45-1 1-1 1 .45 1 1zm0-8.04c0 .55-.45 1-1 1s-1-.45-1-1 .45-1 1-1 1 .45 1 1z"/><g><use xlink:href="#k" transform="matrix(1,0,0,1,2857,890.4047226041665) translate(59.38671875 62)"/><use xlink:href="#o" transform="matrix(1,0,0,1,2857,890.4047226041665) translate(192.0234375 62)"/><use xlink:href="#m" transform="matrix(1,0,0,1,2857,890.4047226041665) translate(331.8671875 62)"/></g><path d="M1860.48 544.7l1218.7 328.44" stroke="#3a414a" fill="none"/><path d="M1860.37 545.15l-2.2-.6h2.36z" stroke="#3a414a" stroke-width=".05" fill="#3a414a"/><path d="M3093.44 876.98l-14.98.77 2.4-8.95z" stroke="#3a414a" fill="#3a414a"/><defs><path d="M180 0v-1490h908v168H370v486h669v168H370v500h727V0H180" id="p"/><path d="M65 0l393-574-370-544h210c88 136 192 297 267 435 67-142 176-302 264-435h206L661-564 1053 0H844c-94-144-206-310-287-458C484-308 366-142 273 0H65" id="q"/><path d="M628 24c-324 0-524-230-524-574 0-343 198-582 503-582 237 0 487 146 487 559v75H286c9 234 145 362 343 362 132 0 231-58 273-172l174 48C1024-91 857 24 628 24zM287-650h624c-17-190-120-322-304-322-192 0-309 151-320 322" id="r"/><path d="M613 24c-304 0-509-231-509-576 0-350 205-580 509-580 216 0 392 114 453 309l-173 49c-33-115-133-197-280-197-223 0-326 196-326 419 0 220 103 415 326 415 150 0 252-85 285-206l172 49C1010-95 832 24 613 24" id="s"/><path d="M537 14c-226 0-379-139-379-422v-710h180v695c0 172 97 275 253 275 160 0 281-109 281-300v-670h181V0H879v-209C806-46 684 14 537 14" id="t"/><path d="M598-1118v154H368v674c0 100 37 144 132 144 23 0 62-6 92-12L629-6c-37 13-88 20-134 20-193 0-307-107-307-290v-688H20v-154h168v-266h180v266h230" id="u"/><g id="a"><use transform="matrix(0.01953125,0,0,0.01953125,0,0)" xlink:href="#p"/><use transform="matrix(0.01953125,0,0,0.01953125,24.04296875,0)" xlink:href="#q"/><use transform="matrix(0.01953125,0,0,0.01953125,44.98046875,0)" xlink:href="#r"/><use transform="matrix(0.01953125,0,0,0.01953125,68.30078125,0)" xlink:href="#s"/><use transform="matrix(0.01953125,0,0,0.01953125,91.15234375,0)" xlink:href="#t"/><use transform="matrix(0.01953125,0,0,0.01953125,114.8046875,0)" xlink:href="#u"/><use transform="matrix(0.01953125,0,0,0.01953125,127.5,0)" xlink:href="#r"/></g><path d="M180 0v-1490h510c348 0 508 209 508 474 0 266-160 477-507 477H370V0H180zm190-706h312c236 0 327-133 327-310 0-176-91-307-329-307H370v617" id="v"/><path d="M338-1490V0H158v-1490h180" id="w"/><path d="M471 26C259 26 90-98 90-318c0-256 228-303 435-329 202-27 287-16 287-108 0-139-79-219-234-219-161 0-248 86-283 164l-173-57c86-203 278-265 451-265 150 0 419 46 419 395V0H815v-152h-12C765-73 660 26 471 26zm31-159c199 0 310-134 310-271v-155c-30 35-226 55-295 64-131 17-246 59-246 186 0 116 97 176 231 176" id="x"/><path d="M338-670V0H158v-1118h173l1 207c72-158 192-221 342-221 226 0 378 139 378 422V0H872v-695c0-172-96-275-252-275-161 0-282 109-282 300" id="y"/><g id="b"><use transform="matrix(0.01953125,0,0,0.01953125,0,0)" xlink:href="#v"/><use transform="matrix(0.01953125,0,0,0.01953125,25.546875,0)" xlink:href="#w"/><use transform="matrix(0.01953125,0,0,0.01953125,35.234375,0)" xlink:href="#x"/><use transform="matrix(0.01953125,0,0,0.01953125,57.6953125,0)" xlink:href="#y"/></g><path d="M657 26c-323 0-524-166-541-416h195c15 169 171 246 346 246 202 0 356-106 356-265 5-203-294-238-475-293-239-73-380-191-380-389 0-252 224-419 512-419 294 0 499 171 508 396H992c-17-145-151-228-328-228-193 0-321 102-321 242 0 156 175 211 284 241l149 41c160 44 422 134 422 412 0 244-197 432-541 432" id="z"/><path d="M1096 418H916v-591h-14C865-111 790 24 577 24c-279 0-473-224-473-580 0-354 195-576 474-576 218 0 287 134 324 193h20v-179h174V418zM604-137c203 0 314-172 314-421 0-247-108-413-314-413-212 0-317 181-317 413 0 235 108 421 317 421" id="A"/><g id="c"><use transform="matrix(0.01953125,0,0,0.01953125,0,0)" xlink:href="#z"/><use transform="matrix(0.01953125,0,0,0.01953125,25.6640625,0)" xlink:href="#r"/><use transform="matrix(0.01953125,0,0,0.01953125,48.984375,0)" xlink:href="#A"/><use transform="matrix(0.01953125,0,0,0.01953125,73.4765625,0)" xlink:href="#t"/><use transform="matrix(0.01953125,0,0,0.01953125,97.12890625,0)" xlink:href="#r"/><use transform="matrix(0.01953125,0,0,0.01953125,120.44921875,0)" xlink:href="#y"/><use transform="matrix(0.01953125,0,0,0.01953125,144.08203125,0)" xlink:href="#s"/><use transform="matrix(0.01953125,0,0,0.01953125,166.93359375,0)" xlink:href="#r"/></g><path d="M180 0v-1490h510c348 0 508 194 508 460 0 198-88 351-276 417L1256 0h-220L726-579c-117 2-238 0-356 1V0H180zm190-747h312c235 0 327-108 327-283 0-177-92-293-329-293H370v576" id="B"/><path d="M538 24C308 24 148-78 108-271l171-41c32 123 123 178 257 178 156 0 256-77 256-169 0-77-54-128-164-154l-186-44c-203-48-300-148-300-305 0-192 176-326 414-326 230 0 351 112 402 269l-163 42c-31-80-94-158-238-158-133 0-233 69-233 162 0 83 57 129 188 160l169 40c203 48 298 149 298 302 0 196-179 339-441 339" id="C"/><g id="d"><use transform="matrix(0.01953125,0,0,0.01953125,0,0)" xlink:href="#B"/><use transform="matrix(0.01953125,0,0,0.01953125,25.15625,0)" xlink:href="#r"/><use transform="matrix(0.01953125,0,0,0.01953125,48.4765625,0)" xlink:href="#w"/><use transform="matrix(0.01953125,0,0,0.01953125,58.1640625,0)" xlink:href="#r"/><use transform="matrix(0.01953125,0,0,0.01953125,81.875,0)" xlink:href="#x"/><use transform="matrix(0.01953125,0,0,0.01953125,104.3359375,0)" xlink:href="#C"/><use transform="matrix(0.01953125,0,0,0.01953125,125.44921875,0)" xlink:href="#r"/></g><path d="M784 20c-382 0-662-292-662-764 0-473 280-766 662-766s660 293 660 766c0 472-278 764-660 764zm0-176c266 0 475-207 475-588 0-383-209-590-475-590-268 0-477 208-477 590 0 380 209 588 477 588" id="D"/><path d="M677 24c-213 0-288-135-325-197h-20V0H158v-1490h180v551h14c37-59 106-193 324-193 279 0 474 222 474 576 0 356-194 580-473 580zm-27-161c209 0 317-186 317-421 0-232-105-413-317-413-206 0-314 166-314 413 0 249 111 421 314 421" id="E"/><g id="e"><use transform="matrix(0.01953125,0,0,0.01953125,0,0)" xlink:href="#D"/><use transform="matrix(0.01953125,0,0,0.01953125,30.5859375,0)" xlink:href="#E"/><use transform="matrix(0.01953125,0,0,0.01953125,55.078125,0)" xlink:href="#C"/><use transform="matrix(0.01953125,0,0,0.01953125,76.19140625,0)" xlink:href="#u"/><use transform="matrix(0.01953125,0,0,0.01953125,89.47265625,0)" xlink:href="#x"/><use transform="matrix(0.01953125,0,0,0.01953125,111.93359375,0)" xlink:href="#s"/><use transform="matrix(0.01953125,0,0,0.01953125,134.78515625,0)" xlink:href="#w"/><use transform="matrix(0.01953125,0,0,0.01953125,144.47265625,0)" xlink:href="#r"/></g><path d="M180 0v-1490h901v168H370v510h643v168H370V0H180" id="F"/><path d="M613 24c-304 0-509-231-509-576 0-350 205-580 509-580 305 0 511 230 511 580 0 345-206 576-511 576zm0-161c226 0 329-195 329-415 0-222-103-419-329-419-223 0-326 196-326 419 0 220 103 415 326 415" id="G"/><path d="M409 0L70-1118h191c89 329 165 560 243 925 75-353 154-601 240-925h192c85 325 161 564 235 922 77-354 157-598 244-922h191L1267 0h-179c-86-307-176-590-250-913C763-588 675-308 588 0H409" id="H"/><g id="f"><use transform="matrix(0.01953125,0,0,0.01953125,0,0)" xlink:href="#F"/><use transform="matrix(0.01953125,0,0,0.01953125,22.03125,0)" xlink:href="#G"/><use transform="matrix(0.01953125,0,0,0.01953125,46.015625,0)" xlink:href="#w"/><use transform="matrix(0.01953125,0,0,0.01953125,55.703125,0)" xlink:href="#w"/><use transform="matrix(0.01953125,0,0,0.01953125,65.390625,0)" xlink:href="#G"/><use transform="matrix(0.01953125,0,0,0.01953125,88.65234375,0)" xlink:href="#H"/></g><path d="M98-1322v-168h1126v168H757V0H567v-1322H98" id="I"/><path d="M158 0v-1118h174v172h12c41-113 157-188 290-188 26 0 70 2 91 3v181c-11-2-60-10-108-10-161 0-279 109-279 260V0H158" id="J"/><path d="M158 0v-1118h180V0H158zm91-1301c-68 0-125-53-125-119s57-119 125-119c69 0 126 53 126 119s-57 119-126 119" id="K"/><g id="g"><use transform="matrix(0.01953125,0,0,0.01953125,0,0)" xlink:href="#I"/><use transform="matrix(0.01953125,0,0,0.01953125,23.5546875,0)" xlink:href="#J"/><use transform="matrix(0.01953125,0,0,0.01953125,38.61328125,0)" xlink:href="#x"/><use transform="matrix(0.01953125,0,0,0.01953125,61.07421875,0)" xlink:href="#y"/><use transform="matrix(0.01953125,0,0,0.01953125,84.70703125,0)" xlink:href="#C"/><use transform="matrix(0.01953125,0,0,0.01953125,105.8203125,0)" xlink:href="#K"/><use transform="matrix(0.01953125,0,0,0.01953125,115.5078125,0)" xlink:href="#u"/></g><path d="M338-670V0H158v-1490h180v566c73-149 190-208 336-208 226 0 379 139 379 422V0H872v-695c0-172-96-275-252-275-161 0-282 109-282 300" id="L"/><g id="h"><use transform="matrix(0.01953125,0,0,0.01953125,0,0)" xlink:href="#v"/><use transform="matrix(0.01953125,0,0,0.01953125,25.546875,0)" xlink:href="#x"/><use transform="matrix(0.01953125,0,0,0.01953125,48.0078125,0)" xlink:href="#u"/><use transform="matrix(0.01953125,0,0,0.01953125,61.09375,0)" xlink:href="#L"/></g><path d="M789 20c-398 0-667-293-667-764 0-473 273-766 655-766 315 0 558 198 612 487h-196c-61-191-204-311-415-311-262 0-471 207-471 590 0 380 208 588 482 588 249 0 420-165 425-427H828v-166h572v163c0 370-256 606-611 606" id="M"/><g id="i"><use transform="matrix(0.01953125,0,0,0.01953125,0,0)" xlink:href="#M"/><use transform="matrix(0.01953125,0,0,0.01953125,29.84375,0)" xlink:href="#J"/><use transform="matrix(0.01953125,0,0,0.01953125,44.90234375,0)" xlink:href="#x"/><use transform="matrix(0.01953125,0,0,0.01953125,67.36328125,0)" xlink:href="#E"/></g><g id="j"><use transform="matrix(0.01953125,0,0,0.01953125,0,0)" xlink:href="#z"/><use transform="matrix(0.01953125,0,0,0.01953125,25.6640625,0)" xlink:href="#r"/><use transform="matrix(0.01953125,0,0,0.01953125,48.984375,0)" xlink:href="#A"/><use transform="matrix(0.01953125,0,0,0.01953125,73.4765625,0)" xlink:href="#t"/><use transform="matrix(0.01953125,0,0,0.01953125,97.12890625,0)" xlink:href="#r"/><use transform="matrix(0.01953125,0,0,0.01953125,120.44921875,0)" xlink:href="#y"/><use transform="matrix(0.01953125,0,0,0.01953125,144.08203125,0)" xlink:href="#s"/><use transform="matrix(0.01953125,0,0,0.01953125,166.93359375,0)" xlink:href="#r"/></g><g id="k"><use transform="matrix(0.01953125,0,0,0.01953125,0,0)" xlink:href="#F"/><use transform="matrix(0.01953125,0,0,0.01953125,22.03125,0)" xlink:href="#G"/><use transform="matrix(0.01953125,0,0,0.01953125,46.015625,0)" xlink:href="#w"/><use transform="matrix(0.01953125,0,0,0.01953125,55.703125,0)" xlink:href="#w"/><use transform="matrix(0.01953125,0,0,0.01953125,65.390625,0)" xlink:href="#G"/><use transform="matrix(0.01953125,0,0,0.01953125,88.65234375,0)" xlink:href="#H"/></g><path d="M678-1118v154H420V0H240v-964H20v-154h220v-149c0-194 155-293 318-293 85 0 141 18 168 30l-50 154c-19-6-47-17-97-17-111 0-159 58-159 166v109h258" id="N"/><g id="l"><use transform="matrix(0.01953125,0,0,0.01953125,0,0)" xlink:href="#I"/><use transform="matrix(0.01953125,0,0,0.01953125,23.5546875,0)" xlink:href="#J"/><use transform="matrix(0.01953125,0,0,0.01953125,38.61328125,0)" xlink:href="#x"/><use transform="matrix(0.01953125,0,0,0.01953125,61.07421875,0)" xlink:href="#y"/><use transform="matrix(0.01953125,0,0,0.01953125,84.70703125,0)" xlink:href="#C"/><use transform="matrix(0.01953125,0,0,0.01953125,105.8203125,0)" xlink:href="#N"/><use transform="matrix(0.01953125,0,0,0.01953125,119.453125,0)" xlink:href="#r"/><use transform="matrix(0.01953125,0,0,0.01953125,142.7734375,0)" xlink:href="#J"/></g><g id="m"><use transform="matrix(0.01953125,0,0,0.01953125,0,0)" xlink:href="#v"/><use transform="matrix(0.01953125,0,0,0.01953125,25.546875,0)" xlink:href="#x"/><use transform="matrix(0.01953125,0,0,0.01953125,48.0078125,0)" xlink:href="#u"/><use transform="matrix(0.01953125,0,0,0.01953125,61.09375,0)" xlink:href="#L"/></g><g id="n"><use transform="matrix(0.01953125,0,0,0.01953125,0,0)" xlink:href="#B"/><use transform="matrix(0.01953125,0,0,0.01953125,25.15625,0)" xlink:href="#r"/><use transform="matrix(0.01953125,0,0,0.01953125,48.4765625,0)" xlink:href="#w"/><use transform="matrix(0.01953125,0,0,0.01953125,58.1640625,0)" xlink:href="#r"/><use transform="matrix(0.01953125,0,0,0.01953125,81.875,0)" xlink:href="#x"/><use transform="matrix(0.01953125,0,0,0.01953125,104.3359375,0)" xlink:href="#C"/><use transform="matrix(0.01953125,0,0,0.01953125,125.44921875,0)" xlink:href="#r"/></g><g id="o"><use transform="matrix(0.01953125,0,0,0.01953125,0,0)" xlink:href="#I"/><use transform="matrix(0.01953125,0,0,0.01953125,23.5546875,0)" xlink:href="#J"/><use transform="matrix(0.01953125,0,0,0.01953125,38.61328125,0)" xlink:href="#x"/><use transform="matrix(0.01953125,0,0,0.01953125,61.07421875,0)" xlink:href="#y"/><use transform="matrix(0.01953125,0,0,0.01953125,84.70703125,0)" xlink:href="#C"/><use transform="matrix(0.01953125,0,0,0.01953125,105.8203125,0)" xlink:href="#K"/><use transform="matrix(0.01953125,0,0,0.01953125,115.5078125,0)" xlink:href="#u"/></g></defs></g></svg>