<svg xmlns="http://www.w3.org/2000/svg" xmlns:xlink="http://www.w3.org/1999/xlink" xmlns:lucid="lucid" width="2067" height="542"><g transform="translate(-1299 -1139)" lucid:page-tab-id="0_0"><path d="M1000 1000h2500v1000H1000z" fill="#fff"/><path d="M2040 1146a6 6 0 0 1 6-6h488a6 6 0 0 1 6 6v89.44a6 6 0 0 1-6 6h-488a6 6 0 0 1-6-6z" stroke="#000" stroke-width="2" fill="#fcfcca"/><use xlink:href="#a" transform="matrix(1,0,0,1,2052,1152) translate(91.3203125 53.375)"/><use xlink:href="#b" transform="matrix(1,0,0,1,2052,1152) translate(194.42578125 53.375)"/><path d="M2136.48 1582.96c26.8 0 48.52 21.72 48.52 48.52 0 26.8-21.72 48.52-48.52 48.52h-262.96c-26.8 0-48.52-21.72-48.52-48.52 0-26.8 21.72-48.52 48.52-48.52z" stroke="#000" stroke-width="2" fill="#e3fae3"/><use xlink:href="#c" transform="matrix(1,0,0,1,1830,1587.9610627916663) translate(39.84875 58)"/><use xlink:href="#d" transform="matrix(1,0,0,1,1830,1587.9610627916663) translate(142.36828125 58)"/><path d="M2289.55 1242.65L1557.4 1575.2" stroke="#3a414a" fill="none"/><path d="M2289.73 1243.1l-.3-.66h1.72z" stroke="#3a414a" stroke-width=".05" fill="#3a414a"/><path d="M1543.97 1581.3l11.08-10.13 3.83 8.44z" stroke="#3a414a" fill="#3a414a"/><path d="M2289.68 1242.83l-269.3 326.5" stroke="#3a414a" fill="none"/><path d="M2290.04 1243.14l-.73-.6.08-.1h1.24z" stroke="#3a414a" stroke-width=".05" fill="#3a414a"/><path d="M2011 1580.7l5.5-13.94 7.15 5.9z" stroke="#3a414a" fill="#3a414a"/><path d="M1736.48 1582.96c26.8 0 48.52 21.72 48.52 48.52 0 26.8-21.72 48.52-48.52 48.52h-387.96c-26.8 0-48.52-21.72-48.52-48.52 0-26.8 21.72-48.52 48.52-48.52z" stroke="#000" stroke-width="2" fill="#e3fae3"/><use xlink:href="#e" transform="matrix(1,0,0,1,1305,1587.9610627916663) translate(25.229609375000003 58)"/><use xlink:href="#f" transform="matrix(1,0,0,1,1305,1587.9610627916663) translate(176.108515625 58)"/><use xlink:href="#g" transform="matrix(1,0,0,1,1305,1587.9610627916663) translate(355.151484375 58)"/><path d="M2599.35 1582.96c25.2 0 45.65 20.44 45.65 45.65 0 25.22-20.44 45.66-45.65 45.66h-328.7c-25.2 0-45.65-20.44-45.65-45.65 0-25.2 20.44-45.64 45.65-45.64z" stroke="#000" stroke-width="2" fill="#e3fae3"/><use xlink:href="#h" transform="matrix(1,0,0,1,2230,1587.9610627916666) translate(26.059687500000003 56.6875)"/><use xlink:href="#i" transform="matrix(1,0,0,1,2230,1587.9610627916666) translate(131.93859375 56.6875)"/><use xlink:href="#j" transform="matrix(1,0,0,1,2230,1587.9610627916666) translate(286.5284375 56.6875)"/><path d="M3056.48 1582.96c26.8 0 48.52 21.72 48.52 48.52 0 26.8-21.72 48.52-48.52 48.52h-322.96c-26.8 0-48.52-21.72-48.52-48.52 0-26.8 21.72-48.52 48.52-48.52z" stroke="#000" stroke-width="2" fill="#e3fae3"/><use xlink:href="#k" transform="matrix(1,0,0,1,2690,1587.9610627916663) translate(23.325312500000003 58)"/><use xlink:href="#l" transform="matrix(1,0,0,1,2690,1587.9610627916663) translate(218.89171875 58)"/><path d="M3316.48 1580.1c26.8 0 48.52 21.7 48.52 48.5s-21.72 48.53-48.52 48.53h-122.96c-26.8 0-48.52-21.72-48.52-48.52 0-26.8 21.72-48.5 48.52-48.5z" stroke="#000" stroke-width="2" fill="#e3fae3"/><use xlink:href="#m" transform="matrix(1,0,0,1,3150,1585.0897186666666) translate(59.077265624999995 58)"/><path d="M2290.2 1242.9l138.37 324" stroke="#3a414a" fill="none"/><path d="M2290.64 1242.73l-.88.37-.28-.66h1.04z" stroke="#3a414a" stroke-width=".05" fill="#3a414a"/><path d="M2434.36 1580.47l-9.86-11.3 8.52-3.64z" stroke="#3a414a" fill="#3a414a"/><path d="M2290.44 1242.7l590.27 331.24" stroke="#3a414a" fill="none"/><path d="M2290.22 1243.1l-1.2-.66h1.57z" stroke="#3a414a" stroke-width=".05" fill="#3a414a"/><path d="M2893.6 1581.17l-14.72-2.94 4.54-8.1z" stroke="#3a414a" fill="#3a414a"/><path d="M2290.47 1242.6l949.06 331.1" stroke="#3a414a" fill="none"/><path d="M2290.33 1243.06l-1.77-.62h1.98z" stroke="#3a414a" stroke-width=".05" fill="#3a414a"/><path d="M3253.47 1578.56l-15-.33 3.06-8.75z" stroke="#3a414a" fill="#3a414a"/><defs><path d="M789 20c-398 0-667-293-667-764 0-473 273-766 655-766 315 0 558 198 612 487h-196c-61-191-204-311-415-311-262 0-471 207-471 590 0 380 208 588 482 588 249 0 420-165 425-427H828v-166h572v163c0 370-256 606-611 606" id="n"/><path d="M158 0v-1118h174v172h12c41-113 157-188 290-188 26 0 70 2 91 3v181c-11-2-60-10-108-10-161 0-279 109-279 260V0H158" id="o"/><path d="M471 26C259 26 90-98 90-318c0-256 228-303 435-329 202-27 287-16 287-108 0-139-79-219-234-219-161 0-248 86-283 164l-173-57c86-203 278-265 451-265 150 0 419 46 419 395V0H815v-152h-12C765-73 660 26 471 26zm31-159c199 0 310-134 310-271v-155c-30 35-226 55-295 64-131 17-246 59-246 186 0 116 97 176 231 176" id="p"/><path d="M677 24c-213 0-288-135-325-197h-20V0H158v-1490h180v551h14c37-59 106-193 324-193 279 0 474 222 474 576 0 356-194 580-473 580zm-27-161c209 0 317-186 317-421 0-232-105-413-317-413-206 0-314 166-314 413 0 249 111 421 314 421" id="q"/><g id="a"><use transform="matrix(0.01953125,0,0,0.01953125,0,0)" xlink:href="#n"/><use transform="matrix(0.01953125,0,0,0.01953125,29.84375,0)" xlink:href="#o"/><use transform="matrix(0.01953125,0,0,0.01953125,44.90234375,0)" xlink:href="#p"/><use transform="matrix(0.01953125,0,0,0.01953125,67.36328125,0)" xlink:href="#q"/></g><path d="M657 26c-323 0-524-166-541-416h195c15 169 171 246 346 246 202 0 356-106 356-265 5-203-294-238-475-293-239-73-380-191-380-389 0-252 224-419 512-419 294 0 499 171 508 396H992c-17-145-151-228-328-228-193 0-321 102-321 242 0 156 175 211 284 241l149 41c160 44 422 134 422 412 0 244-197 432-541 432" id="r"/><path d="M628 24c-324 0-524-230-524-574 0-343 198-582 503-582 237 0 487 146 487 559v75H286c9 234 145 362 343 362 132 0 231-58 273-172l174 48C1024-91 857 24 628 24zM287-650h624c-17-190-120-322-304-322-192 0-309 151-320 322" id="s"/><path d="M1096 418H916v-591h-14C865-111 790 24 577 24c-279 0-473-224-473-580 0-354 195-576 474-576 218 0 287 134 324 193h20v-179h174V418zM604-137c203 0 314-172 314-421 0-247-108-413-314-413-212 0-317 181-317 413 0 235 108 421 317 421" id="t"/><path d="M537 14c-226 0-379-139-379-422v-710h180v695c0 172 97 275 253 275 160 0 281-109 281-300v-670h181V0H879v-209C806-46 684 14 537 14" id="u"/><path d="M338-670V0H158v-1118h173l1 207c72-158 192-221 342-221 226 0 378 139 378 422V0H872v-695c0-172-96-275-252-275-161 0-282 109-282 300" id="v"/><path d="M613 24c-304 0-509-231-509-576 0-350 205-580 509-580 216 0 392 114 453 309l-173 49c-33-115-133-197-280-197-223 0-326 196-326 419 0 220 103 415 326 415 150 0 252-85 285-206l172 49C1010-95 832 24 613 24" id="w"/><g id="b"><use transform="matrix(0.01953125,0,0,0.01953125,0,0)" xlink:href="#r"/><use transform="matrix(0.01953125,0,0,0.01953125,25.6640625,0)" xlink:href="#s"/><use transform="matrix(0.01953125,0,0,0.01953125,48.984375,0)" xlink:href="#t"/><use transform="matrix(0.01953125,0,0,0.01953125,73.4765625,0)" xlink:href="#u"/><use transform="matrix(0.01953125,0,0,0.01953125,97.12890625,0)" xlink:href="#s"/><use transform="matrix(0.01953125,0,0,0.01953125,120.44921875,0)" xlink:href="#v"/><use transform="matrix(0.01953125,0,0,0.01953125,144.08203125,0)" xlink:href="#w"/><use transform="matrix(0.01953125,0,0,0.01953125,166.93359375,0)" xlink:href="#s"/></g><path d="M180 0v-1490h901v168H370v510h643v168H370V0H180" id="x"/><g id="c"><use transform="matrix(0.01953125,0,0,0.01953125,0,0)" xlink:href="#x"/><use transform="matrix(0.01953125,0,0,0.01953125,22.63671875,0)" xlink:href="#p"/><use transform="matrix(0.01953125,0,0,0.01953125,45.09765625,0)" xlink:href="#w"/><use transform="matrix(0.01953125,0,0,0.01953125,67.94921875,0)" xlink:href="#s"/></g><path d="M784 20c-382 0-662-292-662-764 0-473 280-766 662-766s660 293 660 766c0 472-278 764-660 764zm0-176c266 0 475-207 475-588 0-383-209-590-475-590-268 0-477 208-477 590 0 380 209 588 477 588" id="y"/><path d="M538 24C308 24 148-78 108-271l171-41c32 123 123 178 257 178 156 0 256-77 256-169 0-77-54-128-164-154l-186-44c-203-48-300-148-300-305 0-192 176-326 414-326 230 0 351 112 402 269l-163 42c-31-80-94-158-238-158-133 0-233 69-233 162 0 83 57 129 188 160l169 40c203 48 298 149 298 302 0 196-179 339-441 339" id="z"/><path d="M598-1118v154H368v674c0 100 37 144 132 144 23 0 62-6 92-12L629-6c-37 13-88 20-134 20-193 0-307-107-307-290v-688H20v-154h168v-266h180v266h230" id="A"/><path d="M338-1490V0H158v-1490h180" id="B"/><g id="d"><use transform="matrix(0.01953125,0,0,0.01953125,0,0)" xlink:href="#y"/><use transform="matrix(0.01953125,0,0,0.01953125,30.5859375,0)" xlink:href="#q"/><use transform="matrix(0.01953125,0,0,0.01953125,55.078125,0)" xlink:href="#z"/><use transform="matrix(0.01953125,0,0,0.01953125,76.19140625,0)" xlink:href="#A"/><use transform="matrix(0.01953125,0,0,0.01953125,89.47265625,0)" xlink:href="#p"/><use transform="matrix(0.01953125,0,0,0.01953125,111.93359375,0)" xlink:href="#w"/><use transform="matrix(0.01953125,0,0,0.01953125,134.78515625,0)" xlink:href="#B"/><use transform="matrix(0.01953125,0,0,0.01953125,144.47265625,0)" xlink:href="#s"/></g><path d="M645 0H180v-1490h484c435 0 692 280 692 742 0 466-257 748-711 748zM370-168h263c363 0 539-218 539-580 0-358-176-574-521-574H370v1154" id="C"/><path d="M158 0v-1118h180V0H158zm91-1301c-68 0-125-53-125-119s57-119 125-119c69 0 126 53 126 119s-57 119-126 119" id="D"/><g id="e"><use transform="matrix(0.01953125,0,0,0.01953125,0,0)" xlink:href="#C"/><use transform="matrix(0.01953125,0,0,0.01953125,28.8671875,0)" xlink:href="#D"/><use transform="matrix(0.01953125,0,0,0.01953125,38.5546875,0)" xlink:href="#z"/><use transform="matrix(0.01953125,0,0,0.01953125,59.66796875,0)" xlink:href="#p"/><use transform="matrix(0.01953125,0,0,0.01953125,82.12890625,0)" xlink:href="#q"/><use transform="matrix(0.01953125,0,0,0.01953125,106.62109375,0)" xlink:href="#B"/><use transform="matrix(0.01953125,0,0,0.01953125,116.30859375,0)" xlink:href="#s"/></g><g id="f"><use transform="matrix(0.01953125,0,0,0.01953125,0,0)" xlink:href="#y"/><use transform="matrix(0.01953125,0,0,0.01953125,30.5859375,0)" xlink:href="#q"/><use transform="matrix(0.01953125,0,0,0.01953125,55.078125,0)" xlink:href="#z"/><use transform="matrix(0.01953125,0,0,0.01953125,76.19140625,0)" xlink:href="#A"/><use transform="matrix(0.01953125,0,0,0.01953125,89.47265625,0)" xlink:href="#p"/><use transform="matrix(0.01953125,0,0,0.01953125,111.93359375,0)" xlink:href="#w"/><use transform="matrix(0.01953125,0,0,0.01953125,134.78515625,0)" xlink:href="#B"/><use transform="matrix(0.01953125,0,0,0.01953125,144.47265625,0)" xlink:href="#s"/></g><path d="M140 405l46-156c120 36 205 19 263-150l32-93L54-1118h197c107 313 237 620 324 950 87-331 219-637 326-950h196L606 167c-68 178-176 259-334 259-64 0-113-12-132-21" id="E"/><g id="g"><use transform="matrix(0.01953125,0,0,0.01953125,0,0)" xlink:href="#r"/><use transform="matrix(0.01953125,0,0,0.01953125,25.6640625,0)" xlink:href="#E"/><use transform="matrix(0.01953125,0,0,0.01953125,48.14453125,0)" xlink:href="#v"/><use transform="matrix(0.01953125,0,0,0.01953125,71.77734375,0)" xlink:href="#w"/></g><g id="h"><use transform="matrix(0.01953125,0,0,0.01953125,0,0)" xlink:href="#r"/><use transform="matrix(0.01953125,0,0,0.01953125,25.6640625,0)" xlink:href="#E"/><use transform="matrix(0.01953125,0,0,0.01953125,48.14453125,0)" xlink:href="#v"/><use transform="matrix(0.01953125,0,0,0.01953125,71.77734375,0)" xlink:href="#w"/></g><path d="M180 0v-1490h510c348 0 508 209 508 474 0 266-160 477-507 477H370V0H180zm190-706h312c236 0 327-133 327-310 0-176-91-307-329-307H370v617" id="F"/><g id="i"><use transform="matrix(0.01953125,0,0,0.01953125,0,0)" xlink:href="#F"/><use transform="matrix(0.01953125,0,0,0.01953125,25.546875,0)" xlink:href="#B"/><use transform="matrix(0.01953125,0,0,0.01953125,35.234375,0)" xlink:href="#p"/><use transform="matrix(0.01953125,0,0,0.01953125,57.6953125,0)" xlink:href="#v"/><use transform="matrix(0.01953125,0,0,0.01953125,81.328125,0)" xlink:href="#v"/><use transform="matrix(0.01953125,0,0,0.01953125,104.9609375,0)" xlink:href="#s"/><use transform="matrix(0.01953125,0,0,0.01953125,128.28125,0)" xlink:href="#o"/></g><g id="j"><use transform="matrix(0.01953125,0,0,0.01953125,0,0)" xlink:href="#r"/><use transform="matrix(0.01953125,0,0,0.01953125,25.6640625,0)" xlink:href="#A"/><use transform="matrix(0.01953125,0,0,0.01953125,38.9453125,0)" xlink:href="#p"/><use transform="matrix(0.01953125,0,0,0.01953125,61.40625,0)" xlink:href="#A"/><use transform="matrix(0.01953125,0,0,0.01953125,74.1015625,0)" xlink:href="#s"/></g><path d="M52 0l541-1490h220L1361 0h-200l-149-416H398L254 0H52zm404-582h497c-103-290-145-390-251-756-108 377-145 460-246 756" id="G"/><path d="M158 418v-1536h174v179h20c37-59 106-193 324-193 279 0 474 222 474 576 0 356-194 580-473 580-213 0-288-135-325-197h-14v591H158zm492-555c209 0 317-186 317-421 0-232-105-413-317-413-206 0-314 166-314 413 0 249 111 421 314 421" id="H"/><path d="M613 24c-304 0-509-231-509-576 0-350 205-580 509-580 305 0 511 230 511 580 0 345-206 576-511 576zm0-161c226 0 329-195 329-415 0-222-103-419-329-419-223 0-326 196-326 419 0 220 103 415 326 415" id="I"/><path d="M338-670V0H158v-1490h180v566c73-149 190-208 336-208 226 0 379 139 379 422V0H872v-695c0-172-96-275-252-275-161 0-282 109-282 300" id="J"/><g id="k"><use transform="matrix(0.01953125,0,0,0.01953125,0,0)" xlink:href="#G"/><use transform="matrix(0.01953125,0,0,0.01953125,27.59765625,0)" xlink:href="#H"/><use transform="matrix(0.01953125,0,0,0.01953125,52.08984375,0)" xlink:href="#H"/><use transform="matrix(0.01953125,0,0,0.01953125,76.58203125,0)" xlink:href="#o"/><use transform="matrix(0.01953125,0,0,0.01953125,90.9765625,0)" xlink:href="#I"/><use transform="matrix(0.01953125,0,0,0.01953125,115.3515625,0)" xlink:href="#p"/><use transform="matrix(0.01953125,0,0,0.01953125,137.8125,0)" xlink:href="#w"/><use transform="matrix(0.01953125,0,0,0.01953125,160.6640625,0)" xlink:href="#J"/></g><g id="l"><use transform="matrix(0.01953125,0,0,0.01953125,0,0)" xlink:href="#y"/><use transform="matrix(0.01953125,0,0,0.01953125,30.5859375,0)" xlink:href="#q"/><use transform="matrix(0.01953125,0,0,0.01953125,55.078125,0)" xlink:href="#z"/><use transform="matrix(0.01953125,0,0,0.01953125,76.19140625,0)" xlink:href="#A"/><use transform="matrix(0.01953125,0,0,0.01953125,89.47265625,0)" xlink:href="#p"/><use transform="matrix(0.01953125,0,0,0.01953125,111.93359375,0)" xlink:href="#w"/><use transform="matrix(0.01953125,0,0,0.01953125,134.78515625,0)" xlink:href="#B"/><use transform="matrix(0.01953125,0,0,0.01953125,144.47265625,0)" xlink:href="#s"/></g><g id="m"><use transform="matrix(0.01953125,0,0,0.01953125,0,0)" xlink:href="#n"/><use transform="matrix(0.01953125,0,0,0.01953125,29.84375,0)" xlink:href="#o"/><use transform="matrix(0.01953125,0,0,0.01953125,44.90234375,0)" xlink:href="#p"/><use transform="matrix(0.01953125,0,0,0.01953125,67.36328125,0)" xlink:href="#q"/></g></defs></g></svg>