<svg xmlns="http://www.w3.org/2000/svg" xmlns:xlink="http://www.w3.org/1999/xlink" xmlns:lucid="lucid" width="2062" height="1653.44"><g transform="translate(-159 1)" lucid:page-tab-id="0_0"><path d="M0-500h2500v2500H0z" fill="#fff"/><path d="M600.45 5.8A7.8 7.8 0 0 1 608 0h206a4.6 4.6 0 0 1 4.45 5.8l-28.9 108.4A7.8 7.8 0 0 1 782 120H576a4.6 4.6 0 0 1-4.45-5.8z" stroke="#000" stroke-width="2" fill="#fff3d9"/><use xlink:href="#a" transform="matrix(1,0,0,1,575,5) translate(51.04992187500001 69.6875)"/><path d="M564.28 208.56c30.77 0 55.72 24.94 55.72 55.72 0 30.77-24.95 55.72-55.72 55.72H215.72c-30.77 0-55.72-24.95-55.72-55.72s24.95-55.72 55.72-55.72z" stroke="#000" stroke-width="2" fill="#e3fae3"/><use xlink:href="#b" transform="matrix(1,0,0,1,165,213.5579427083333) translate(30.307734375000006 64.25)"/><use xlink:href="#c" transform="matrix(1,0,0,1,165,213.5579427083333) translate(276.362421875 64.25)"/><path d="M690.26 121.14l-284.5 81.9" stroke="#3a414a" fill="none"/><path d="M690.38 121.6l-.17-.6h2.26z" stroke="#3a414a" stroke-width=".05" fill="#3a414a"/><path d="M391.56 207.1l12.42-8.4 2.57 8.92z" stroke="#3a414a" fill="#3a414a"/><path d="M760 204.56a6 6 0 0 1 6-6h208a6 6 0 0 1 6 6V294a6 6 0 0 1-6 6H766a6 6 0 0 1-6-6z" stroke="#000" stroke-width="2" fill="#fcfcca"/><use xlink:href="#d" transform="matrix(1,0,0,1,772,210.55794270833346) translate(2.873046875 53.375)"/><path d="M691.2 121.2l163.73 69.92" stroke="#3a414a" fill="none"/><path d="M691.02 121.64l-1.5-.64h1.78z" stroke="#3a414a" stroke-width=".05" fill="#3a414a"/><path d="M868.5 196.92l-14.93-1.34 3.64-8.52z" stroke="#3a414a" fill="#3a414a"/><path d="M709.28 398.56c28 0 50.72 22.7 50.72 50.72 0 28-22.7 50.72-50.72 50.72H490.72c-28 0-50.72-22.7-50.72-50.72 0-28 22.7-50.72 50.72-50.72z" stroke="#000" stroke-width="2" fill="#e3fae3"/><use xlink:href="#e" transform="matrix(1,0,0,1,445,403.55794270833337) translate(27.583125000000003 61.75)"/><use xlink:href="#f" transform="matrix(1,0,0,1,445,403.55794270833337) translate(167.583125 61.75)"/><path d="M869.55 301.22l-184.97 89.22" stroke="#3a414a" fill="none"/><path d="M869.74 301.65l-.3-.65h1.65z" stroke="#3a414a" stroke-width=".05" fill="#3a414a"/><path d="M671.28 396.86l10.84-10.38 4.02 8.35z" stroke="#3a414a" fill="#3a414a"/><path d="M980 399.8a6 6 0 0 1 6-6h208a6 6 0 0 1 6 6v89.46a6 6 0 0 1-6 6H986a6 6 0 0 1-6-6z" stroke="#000" stroke-width="2" fill="#fcfcca"/><use xlink:href="#g" transform="matrix(1,0,0,1,992,405.8150541666665) translate(2.873046875 53.375)"/><path d="M870.46 301.2l204.42 85.3" stroke="#3a414a" fill="none"/><path d="M870.3 301.64l-1.53-.64h1.8z" stroke="#3a414a" stroke-width=".05" fill="#3a414a"/><path d="M1088.5 392.2l-14.94-1.22 3.57-8.56z" stroke="#3a414a" fill="#3a414a"/><path d="M544.42 709.66c30.7 0 55.58 24.88 55.58 55.58s-24.88 55.57-55.58 55.57H335.58c-30.7 0-55.58-24.87-55.58-55.56 0-30.7 24.88-55.58 55.57-55.58z" stroke="#000" stroke-width="2" fill="#e3fae3"/><use xlink:href="#h" transform="matrix(1,0,0,1,285,714.6630609375) translate(12.846796875000004 64.25)"/><use xlink:href="#i" transform="matrix(1,0,0,1,285,714.6630609375) translate(186.460078125 64.25)"/><path d="M1016.8 688.85c45.95 0 83.2 37.25 83.2 83.2 0 45.96-37.25 83.2-83.2 83.2H763.2c-45.95 0-83.2-37.24-83.2-83.2 0-45.95 37.25-83.2 83.2-83.2z" stroke="#000" stroke-width="2" fill="#e3fae3"/><use xlink:href="#j" transform="matrix(1,0,0,1,685,693.8495593749999) translate(41.09875 63.28125)"/><use xlink:href="#k" transform="matrix(1,0,0,1,685,693.8495593749999) translate(201.11828125 63.28125)"/><use xlink:href="#l" transform="matrix(1,0,0,1,685,693.8495593749999) translate(74.55578125000001 121.359375)"/><use xlink:href="#m" transform="matrix(1,0,0,1,685,693.8495593749999) translate(124.88781250000001 121.359375)"/><path d="M1089.52 496.4L439.72 703.7" stroke="#3a414a" fill="none"/><path d="M1089.66 496.87l-.2-.6h2.1z" stroke="#3a414a" stroke-width=".05" fill="#3a414a"/><path d="M425.65 708.17l12.18-8.75 2.82 8.83z" stroke="#3a414a" fill="#3a414a"/><path d="M1089.63 496.6L894.97 676.72" stroke="#3a414a" fill="none"/><path d="M1089.95 496.95l-.65-.7h1.4z" stroke="#3a414a" stroke-width=".05" fill="#3a414a"/><path d="M884.13 686.75l7.32-13.1 6.3 6.8z" stroke="#3a414a" fill="#3a414a"/><path d="M1424.42 709.66c30.7 0 55.58 24.88 55.58 55.58s-24.88 55.57-55.58 55.57h-188.85c-30.7 0-55.57-24.87-55.57-55.56 0-30.7 24.88-55.58 55.58-55.58z" stroke="#000" stroke-width="2" fill="#e3fae3"/><use xlink:href="#n" transform="matrix(1,0,0,1,1185,714.6630609375) translate(12.514765625000004 64.25)"/><use xlink:href="#o" transform="matrix(1,0,0,1,1185,714.6630609375) translate(196.167109375 64.25)"/><path d="M1090.37 496.6l227.36 201.2" stroke="#3a414a" fill="none"/><path d="M1090.07 496.95l-.8-.7h1.4z" stroke="#3a414a" stroke-width=".05" fill="#3a414a"/><path d="M1328.8 707.6l-13.77-6 6.15-6.94z" stroke="#3a414a" fill="#3a414a"/><path d="M1560 706a6 6 0 0 1 6-6h268a6 6 0 0 1 6 6v118.48a6 6 0 0 1-6 6h-268a6 6 0 0 1-6-6z" stroke="#000" stroke-width="2" fill="#fcfcca"/><use xlink:href="#p" transform="matrix(1,0,0,1,1572,712) translate(32.873046875 39.01171875)"/><use xlink:href="#q" transform="matrix(1,0,0,1,1572,712) translate(-2.625 97.08984375)"/><path d="M1090.48 496.4L1705.04 694" stroke="#3a414a" fill="none"/><path d="M1090.34 496.87l-1.9-.6h2.1z" stroke="#3a414a" stroke-width=".05" fill="#3a414a"/><path d="M1719.1 698.5l-15 .05 2.83-8.82z" stroke="#3a414a" fill="#3a414a"/><path d="M1411.8 1185.04c26.62 0 48.2 21.58 48.2 48.2 0 26.62-21.58 48.2-48.2 48.2h-303.6c-26.62 0-48.2-21.58-48.2-48.2 0-26.62 21.58-48.2 48.2-48.2z" stroke="#000" stroke-width="2" fill="#e3fae3"/><use xlink:href="#r" transform="matrix(1,0,0,1,1065,1190.0345052083335) translate(17.055781250000003 57.78125)"/><use xlink:href="#s" transform="matrix(1,0,0,1,1065,1190.0345052083335) translate(165.53234375 57.78125)"/><use xlink:href="#t" transform="matrix(1,0,0,1,1065,1190.0345052083335) translate(258.11046875 57.78125)"/><path d="M1440.1 973.4a13.05 13.05 0 0 1 9.9-4.55h120a13.05 13.05 0 0 1 9.9 4.55l36.2 42.2a7 7 0 0 1 0 9.1l-36.2 42.2a13.05 13.05 0 0 1-9.9 4.54h-120a13.05 13.05 0 0 1-9.9-4.55l-36.2-42.2a7 7 0 0 1 0-9.1z" stroke="#000" stroke-width="2" fill="#fff0f0"/><use xlink:href="#u" transform="matrix(1,0,0,1,1405,973.8495593750002) translate(26.713984375000006 62)"/><path d="M1699.6 831.77L1523.3 958.3" stroke="#3a414a" fill="none"/><path d="M1699.86 832.16l-.5-.68h1.46z" stroke="#3a414a" stroke-width=".05" fill="#3a414a"/><path d="M1511.3 966.9l8.9-12.08 5.4 7.53z" stroke="#3a414a" fill="#3a414a"/><path d="M1509.54 1072.65l-234.58 104.7" stroke="#3a414a" fill="none"/><path d="M1509.72 1073.1l-.28-.66h1.72z" stroke="#3a414a" stroke-width=".05" fill="#3a414a"/><path d="M1261.48 1183.38l11.13-10.05 3.8 8.46z" stroke="#3a414a" fill="#3a414a"/><path d="M1560 1184.85a6 6 0 0 1 6-6h208a6 6 0 0 1 6 6v90.6a6 6 0 0 1-6 6h-208a6 6 0 0 1-6-6z" stroke="#000" stroke-width="2" fill="#fcfcca"/><use xlink:href="#g" transform="matrix(1,0,0,1,1572,1190.8495593750001) translate(2.873046875 53.5625)"/><path d="M1510.4 1072.74l130.1 95.42" stroke="#3a414a" fill="none"/><path d="M1510.13 1073.13l-.93-.7h1.44z" stroke="#3a414a" stroke-width=".05" fill="#3a414a"/><path d="M1652.42 1176.9l-14.25-4.7 5.48-7.48z" stroke="#3a414a" fill="#3a414a"/><path d="M1347.02 1494.04c29.26 0 52.98 23.72 52.98 52.98 0 29.26-23.72 52.98-52.98 52.98h-234.04c-29.26 0-52.98-23.72-52.98-52.98 0-29.26 23.72-52.98 52.98-52.98z" stroke="#000" stroke-width="2" fill="#e3fae3"/><use xlink:href="#h" transform="matrix(1,0,0,1,1065,1499.0345552083331) translate(22.846796875000006 62.75)"/><use xlink:href="#i" transform="matrix(1,0,0,1,1065,1499.0345552083331) translate(196.460078125 62.75)"/><path d="M1761.3 1494.04c43.46 0 78.7 35.23 78.7 78.7 0 43.46-35.24 78.7-78.7 78.7h-222.6c-43.46 0-78.7-35.24-78.7-78.7 0-43.47 35.24-78.7 78.7-78.7z" stroke="#000" stroke-width="2" fill="#e3fae3"/><use xlink:href="#j" transform="matrix(1,0,0,1,1465,1499.0345552083331) translate(21.098750000000006 57.25)"/><use xlink:href="#v" transform="matrix(1,0,0,1,1465,1499.0345552083331) translate(181.11828125 57.25)"/><use xlink:href="#w" transform="matrix(1,0,0,1,1465,1499.0345552083331) translate(54.0284375 115.328125)"/><use xlink:href="#m" transform="matrix(1,0,0,1,1465,1499.0345552083331) translate(105.41515625000001 115.328125)"/><path d="M2167.02 1494.04c29.26 0 52.98 23.72 52.98 52.98 0 29.26-23.72 52.98-52.98 52.98h-174.04c-29.26 0-52.98-23.72-52.98-52.98 0-29.26 23.72-52.98 52.98-52.98z" stroke="#000" stroke-width="2" fill="#e3fae3"/><use xlink:href="#r" transform="matrix(1,0,0,1,1945,1499.0345552083331) translate(20.102656250000006 62.75)"/><use xlink:href="#o" transform="matrix(1,0,0,1,1945,1499.0345552083331) translate(168.57921875 62.75)"/><path d="M1669.55 1282.66l-424.77 203.3" stroke="#3a414a" fill="none"/><path d="M1669.74 1283.1l-.3-.66h1.66z" stroke="#3a414a" stroke-width=".05" fill="#3a414a"/><path d="M1231.46 1492.34l10.87-10.34 4 8.36z" stroke="#3a414a" fill="#3a414a"/><path d="M1669.95 1282.94l-18.4 193.78" stroke="#3a414a" fill="none"/><path d="M1670.42 1283l-.94-.1.04-.46h.96z" stroke="#3a414a" stroke-width=".05" fill="#3a414a"/><path d="M1650.15 1491.42l-3.26-14.64 9.22.88z" stroke="#3a414a" fill="#3a414a"/><path d="M1670.44 1282.67l395 202.88" stroke="#3a414a" fill="none"/><path d="M1670.24 1283.1l-1.28-.66h1.62z" stroke="#3a414a" stroke-width=".05" fill="#3a414a"/><path d="M2078.56 1492.3l-14.8-2.4 4.23-8.25z" stroke="#3a414a" fill="#3a414a"/><path d="M2024.28 964.42c30.77 0 55.72 24.95 55.72 55.73 0 30.77-24.95 55.72-55.72 55.72h-168.56c-30.77 0-55.72-24.95-55.72-55.72 0-30.78 24.95-55.73 55.72-55.73z" stroke="#000" stroke-width="2" fill="#e3fae3"/><g><use xlink:href="#x" transform="matrix(1,0,0,1,1805,969.4247796875002) translate(13.305781250000004 64.25)"/><use xlink:href="#y" transform="matrix(1,0,0,1,1805,969.4247796875002) translate(175.37609375 64.25)"/></g><path d="M1700.44 831.72l225.2 123.8" stroke="#3a414a" fill="none"/><path d="M1700.22 832.14l-1.2-.66h1.57z" stroke="#3a414a" stroke-width=".05" fill="#3a414a"/><path d="M1938.58 962.64l-14.73-2.8 4.46-8.13z" stroke="#3a414a" fill="#3a414a"/><defs><path d="M180 0v-1490h510c348 0 508 209 508 474 0 266-160 477-507 477H370V0H180zm190-706h312c236 0 327-133 327-310 0-176-91-307-329-307H370v617" id="z"/><path d="M471 26C259 26 90-98 90-318c0-256 228-303 435-329 202-27 287-16 287-108 0-139-79-219-234-219-161 0-248 86-283 164l-173-57c86-203 278-265 451-265 150 0 419 46 419 395V0H815v-152h-12C765-73 660 26 471 26zm31-159c199 0 310-134 310-271v-155c-30 35-226 55-295 64-131 17-246 59-246 186 0 116 97 176 231 176" id="A"/><path d="M158 0v-1118h174v172h12c41-113 157-188 290-188 26 0 70 2 91 3v181c-11-2-60-10-108-10-161 0-279 109-279 260V0H158" id="B"/><path d="M338-1490V0H158v-1490h180" id="C"/><path d="M628 24c-324 0-524-230-524-574 0-343 198-582 503-582 237 0 487 146 487 559v75H286c9 234 145 362 343 362 132 0 231-58 273-172l174 48C1024-91 857 24 628 24zM287-650h624c-17-190-120-322-304-322-192 0-309 151-320 322" id="D"/><g id="a"><use transform="matrix(0.01953125,0,0,0.01953125,0,0)" xlink:href="#z"/><use transform="matrix(0.01953125,0,0,0.01953125,25.546875,0)" xlink:href="#A"/><use transform="matrix(0.01953125,0,0,0.01953125,48.0078125,0)" xlink:href="#B"/><use transform="matrix(0.01953125,0,0,0.01953125,63.06640625,0)" xlink:href="#A"/><use transform="matrix(0.01953125,0,0,0.01953125,85.52734375,0)" xlink:href="#C"/><use transform="matrix(0.01953125,0,0,0.01953125,95.21484375,0)" xlink:href="#C"/><use transform="matrix(0.01953125,0,0,0.01953125,104.90234375,0)" xlink:href="#D"/><use transform="matrix(0.01953125,0,0,0.01953125,128.22265625,0)" xlink:href="#C"/></g><path d="M657 26c-323 0-524-166-541-416h195c15 169 171 246 346 246 202 0 356-106 356-265 5-203-294-238-475-293-239-73-380-191-380-389 0-252 224-419 512-419 294 0 499 171 508 396H992c-17-145-151-228-328-228-193 0-321 102-321 242 0 156 175 211 284 241l149 41c160 44 422 134 422 412 0 244-197 432-541 432" id="E"/><path d="M140 405l46-156c120 36 205 19 263-150l32-93L54-1118h197c107 313 237 620 324 950 87-331 219-637 326-950h196L606 167c-68 178-176 259-334 259-64 0-113-12-132-21" id="F"/><path d="M338-670V0H158v-1118h173l1 207c72-158 192-221 342-221 226 0 378 139 378 422V0H872v-695c0-172-96-275-252-275-161 0-282 109-282 300" id="G"/><path d="M613 24c-304 0-509-231-509-576 0-350 205-580 509-580 216 0 392 114 453 309l-173 49c-33-115-133-197-280-197-223 0-326 196-326 419 0 220 103 415 326 415 150 0 252-85 285-206l172 49C1010-95 832 24 613 24" id="H"/><path d="M338-670V0H158v-1490h180v566c73-149 190-208 336-208 226 0 379 139 379 422V0H872v-695c0-172-96-275-252-275-161 0-282 109-282 300" id="I"/><path d="M613 24c-304 0-509-231-509-576 0-350 205-580 509-580 305 0 511 230 511 580 0 345-206 576-511 576zm0-161c226 0 329-195 329-415 0-222-103-419-329-419-223 0-326 196-326 419 0 220 103 415 326 415" id="J"/><path d="M158 0v-1118h180V0H158zm91-1301c-68 0-125-53-125-119s57-119 125-119c69 0 126 53 126 119s-57 119-126 119" id="K"/><path d="M126 0v-134l627-806v-11H146v-167h839v143L376-178v11h629V0H126" id="L"/><g id="b"><use transform="matrix(0.01953125,0,0,0.01953125,0,0)" xlink:href="#E"/><use transform="matrix(0.01953125,0,0,0.01953125,25.6640625,0)" xlink:href="#F"/><use transform="matrix(0.01953125,0,0,0.01953125,48.14453125,0)" xlink:href="#G"/><use transform="matrix(0.01953125,0,0,0.01953125,71.77734375,0)" xlink:href="#H"/><use transform="matrix(0.01953125,0,0,0.01953125,94.62890625,0)" xlink:href="#I"/><use transform="matrix(0.01953125,0,0,0.01953125,118.28125,0)" xlink:href="#B"/><use transform="matrix(0.01953125,0,0,0.01953125,132.67578125,0)" xlink:href="#J"/><use transform="matrix(0.01953125,0,0,0.01953125,156.66015625,0)" xlink:href="#G"/><use transform="matrix(0.01953125,0,0,0.01953125,180.29296875,0)" xlink:href="#K"/><use transform="matrix(0.01953125,0,0,0.01953125,189.98046875,0)" xlink:href="#L"/><use transform="matrix(0.01953125,0,0,0.01953125,211.484375,0)" xlink:href="#D"/></g><g id="c"><use transform="matrix(0.01953125,0,0,0.01953125,0,0)" xlink:href="#z"/><use transform="matrix(0.01953125,0,0,0.01953125,25.546875,0)" xlink:href="#C"/><use transform="matrix(0.01953125,0,0,0.01953125,35.234375,0)" xlink:href="#A"/><use transform="matrix(0.01953125,0,0,0.01953125,57.6953125,0)" xlink:href="#G"/><use transform="matrix(0.01953125,0,0,0.01953125,81.328125,0)" xlink:href="#G"/><use transform="matrix(0.01953125,0,0,0.01953125,104.9609375,0)" xlink:href="#D"/><use transform="matrix(0.01953125,0,0,0.01953125,128.28125,0)" xlink:href="#B"/></g><path d="M1096 418H916v-591h-14C865-111 790 24 577 24c-279 0-473-224-473-580 0-354 195-576 474-576 218 0 287 134 324 193h20v-179h174V418zM604-137c203 0 314-172 314-421 0-247-108-413-314-413-212 0-317 181-317 413 0 235 108 421 317 421" id="M"/><path d="M537 14c-226 0-379-139-379-422v-710h180v695c0 172 97 275 253 275 160 0 281-109 281-300v-670h181V0H879v-209C806-46 684 14 537 14" id="N"/><g id="d"><use transform="matrix(0.01953125,0,0,0.01953125,0,0)" xlink:href="#E"/><use transform="matrix(0.01953125,0,0,0.01953125,25.6640625,0)" xlink:href="#D"/><use transform="matrix(0.01953125,0,0,0.01953125,48.984375,0)" xlink:href="#M"/><use transform="matrix(0.01953125,0,0,0.01953125,73.4765625,0)" xlink:href="#N"/><use transform="matrix(0.01953125,0,0,0.01953125,97.12890625,0)" xlink:href="#D"/><use transform="matrix(0.01953125,0,0,0.01953125,120.44921875,0)" xlink:href="#G"/><use transform="matrix(0.01953125,0,0,0.01953125,144.08203125,0)" xlink:href="#H"/><use transform="matrix(0.01953125,0,0,0.01953125,166.93359375,0)" xlink:href="#D"/></g><path d="M180 0v-1490h510c348 0 508 194 508 460 0 198-88 351-276 417L1256 0h-220L726-579c-117 2-238 0-356 1V0H180zm190-747h312c235 0 327-108 327-283 0-177-92-293-329-293H370v576" id="O"/><path d="M158 418v-1536h174v179h20c37-59 106-193 324-193 279 0 474 222 474 576 0 356-194 580-473 580-213 0-288-135-325-197h-14v591H158zm492-555c209 0 317-186 317-421 0-232-105-413-317-413-206 0-314 166-314 413 0 249 111 421 314 421" id="P"/><g id="e"><use transform="matrix(0.01953125,0,0,0.01953125,0,0)" xlink:href="#O"/><use transform="matrix(0.01953125,0,0,0.01953125,25.15625,0)" xlink:href="#D"/><use transform="matrix(0.01953125,0,0,0.01953125,48.4765625,0)" xlink:href="#P"/><use transform="matrix(0.01953125,0,0,0.01953125,72.96875,0)" xlink:href="#C"/><use transform="matrix(0.01953125,0,0,0.01953125,82.65625,0)" xlink:href="#A"/><use transform="matrix(0.01953125,0,0,0.01953125,105.1171875,0)" xlink:href="#G"/></g><path d="M789 20c-398 0-667-293-667-764 0-473 273-766 655-766 315 0 558 198 612 487h-196c-61-191-204-311-415-311-262 0-471 207-471 590 0 380 208 588 482 588 249 0 420-165 425-427H828v-166h572v163c0 370-256 606-611 606" id="Q"/><path d="M577 24c-279 0-473-224-473-580 0-354 195-576 474-576 218 0 287 134 324 193h14v-551h180V0H922v-173h-20C865-111 790 24 577 24zm27-161c203 0 314-172 314-421 0-247-108-413-314-413-212 0-317 181-317 413 0 235 108 421 317 421" id="R"/><g id="f"><use transform="matrix(0.01953125,0,0,0.01953125,0,0)" xlink:href="#Q"/><use transform="matrix(0.01953125,0,0,0.01953125,29.84375,0)" xlink:href="#N"/><use transform="matrix(0.01953125,0,0,0.01953125,53.49609375,0)" xlink:href="#A"/><use transform="matrix(0.01953125,0,0,0.01953125,75.95703125,0)" xlink:href="#B"/><use transform="matrix(0.01953125,0,0,0.01953125,90.3515625,0)" xlink:href="#R"/></g><g id="g"><use transform="matrix(0.01953125,0,0,0.01953125,0,0)" xlink:href="#E"/><use transform="matrix(0.01953125,0,0,0.01953125,25.6640625,0)" xlink:href="#D"/><use transform="matrix(0.01953125,0,0,0.01953125,48.984375,0)" xlink:href="#M"/><use transform="matrix(0.01953125,0,0,0.01953125,73.4765625,0)" xlink:href="#N"/><use transform="matrix(0.01953125,0,0,0.01953125,97.12890625,0)" xlink:href="#D"/><use transform="matrix(0.01953125,0,0,0.01953125,120.44921875,0)" xlink:href="#G"/><use transform="matrix(0.01953125,0,0,0.01953125,144.08203125,0)" xlink:href="#H"/><use transform="matrix(0.01953125,0,0,0.01953125,166.93359375,0)" xlink:href="#D"/></g><path d="M370-1490V0H180v-1490h190" id="S"/><path d="M598-1118v154H368v674c0 100 37 144 132 144 23 0 62-6 92-12L629-6c-37 13-88 20-134 20-193 0-307-107-307-290v-688H20v-154h168v-266h180v266h230" id="T"/><g id="h"><use transform="matrix(0.01953125,0,0,0.01953125,0,0)" xlink:href="#S"/><use transform="matrix(0.01953125,0,0,0.01953125,10.7421875,0)" xlink:href="#G"/><use transform="matrix(0.01953125,0,0,0.01953125,34.375,0)" xlink:href="#T"/><use transform="matrix(0.01953125,0,0,0.01953125,47.0703125,0)" xlink:href="#D"/><use transform="matrix(0.01953125,0,0,0.01953125,70.390625,0)" xlink:href="#B"/><use transform="matrix(0.01953125,0,0,0.01953125,86.07421875,0)" xlink:href="#B"/><use transform="matrix(0.01953125,0,0,0.01953125,101.1328125,0)" xlink:href="#N"/><use transform="matrix(0.01953125,0,0,0.01953125,124.78515625,0)" xlink:href="#P"/><use transform="matrix(0.01953125,0,0,0.01953125,149.27734375,0)" xlink:href="#T"/></g><path d="M677 24c-213 0-288-135-325-197h-20V0H158v-1490h180v551h14c37-59 106-193 324-193 279 0 474 222 474 576 0 356-194 580-473 580zm-27-161c209 0 317-186 317-421 0-232-105-413-317-413-206 0-314 166-314 413 0 249 111 421 314 421" id="U"/><g id="i"><use transform="matrix(0.01953125,0,0,0.01953125,0,0)" xlink:href="#O"/><use transform="matrix(0.01953125,0,0,0.01953125,25.15625,0)" xlink:href="#J"/><use transform="matrix(0.01953125,0,0,0.01953125,49.140625,0)" xlink:href="#U"/><use transform="matrix(0.01953125,0,0,0.01953125,73.6328125,0)" xlink:href="#J"/><use transform="matrix(0.01953125,0,0,0.01953125,97.6171875,0)" xlink:href="#T"/></g><path d="M538 24C308 24 148-78 108-271l171-41c32 123 123 178 257 178 156 0 256-77 256-169 0-77-54-128-164-154l-186-44c-203-48-300-148-300-305 0-192 176-326 414-326 230 0 351 112 402 269l-163 42c-31-80-94-158-238-158-133 0-233 69-233 162 0 83 57 129 188 160l169 40c203 48 298 149 298 302 0 196-179 339-441 339" id="V"/><g id="j"><use transform="matrix(0.01953125,0,0,0.01953125,0,0)" xlink:href="#O"/><use transform="matrix(0.01953125,0,0,0.01953125,25.15625,0)" xlink:href="#D"/><use transform="matrix(0.01953125,0,0,0.01953125,48.4765625,0)" xlink:href="#C"/><use transform="matrix(0.01953125,0,0,0.01953125,58.1640625,0)" xlink:href="#D"/><use transform="matrix(0.01953125,0,0,0.01953125,81.875,0)" xlink:href="#A"/><use transform="matrix(0.01953125,0,0,0.01953125,104.3359375,0)" xlink:href="#V"/><use transform="matrix(0.01953125,0,0,0.01953125,125.44921875,0)" xlink:href="#D"/></g><path d="M784 20c-382 0-662-292-662-764 0-473 280-766 662-766s660 293 660 766c0 472-278 764-660 764zm0-176c266 0 475-207 475-588 0-383-209-590-475-590-268 0-477 208-477 590 0 380 209 588 477 588" id="W"/><g id="k"><use transform="matrix(0.01953125,0,0,0.01953125,0,0)" xlink:href="#W"/><use transform="matrix(0.01953125,0,0,0.01953125,30.5859375,0)" xlink:href="#U"/><use transform="matrix(0.01953125,0,0,0.01953125,55.078125,0)" xlink:href="#V"/><use transform="matrix(0.01953125,0,0,0.01953125,76.19140625,0)" xlink:href="#T"/><use transform="matrix(0.01953125,0,0,0.01953125,89.47265625,0)" xlink:href="#A"/><use transform="matrix(0.01953125,0,0,0.01953125,111.93359375,0)" xlink:href="#H"/><use transform="matrix(0.01953125,0,0,0.01953125,134.78515625,0)" xlink:href="#C"/><use transform="matrix(0.01953125,0,0,0.01953125,144.47265625,0)" xlink:href="#D"/></g><path d="M218-607c0-325 108-727 258-974h175c-155 315-250 682-250 974 0 265 78 531 250 886H476C306-10 218-315 218-607" id="X"/><path d="M678-1118v154H420V0H240v-964H20v-154h220v-149c0-194 155-293 318-293 85 0 141 18 168 30l-50 154c-19-6-47-17-97-17-111 0-159 58-159 166v109h258" id="Y"/><g id="l"><use transform="matrix(0.01953125,0,0,0.01953125,0,0)" xlink:href="#X"/><use transform="matrix(0.01953125,0,0,0.01953125,14.58984375,0)" xlink:href="#K"/><use transform="matrix(0.01953125,0,0,0.01953125,24.27734375,0)" xlink:href="#Y"/></g><path d="M96 279C273-86 346-350 346-607c0-292-95-659-250-974h175c150 246 258 650 258 974 0 297-91 602-258 886H96" id="Z"/><g id="m"><use transform="matrix(0.01953125,0,0,0.01953125,0,0)" xlink:href="#G"/><use transform="matrix(0.01953125,0,0,0.01953125,23.6328125,0)" xlink:href="#D"/><use transform="matrix(0.01953125,0,0,0.01953125,46.953125,0)" xlink:href="#H"/><use transform="matrix(0.01953125,0,0,0.01953125,69.8046875,0)" xlink:href="#D"/><use transform="matrix(0.01953125,0,0,0.01953125,93.125,0)" xlink:href="#V"/><use transform="matrix(0.01953125,0,0,0.01953125,114.23828125,0)" xlink:href="#V"/><use transform="matrix(0.01953125,0,0,0.01953125,135.3515625,0)" xlink:href="#A"/><use transform="matrix(0.01953125,0,0,0.01953125,157.8125,0)" xlink:href="#B"/><use transform="matrix(0.01953125,0,0,0.01953125,173.49609375,0)" xlink:href="#F"/><use transform="matrix(0.01953125,0,0,0.01953125,195.9765625,0)" xlink:href="#Z"/></g><path d="M783 20c-382 0-661-292-661-764 0-473 279-766 661-766 302 0 548 182 601 489h-190c-42-204-217-313-411-313-268 0-476 208-476 590 0 381 209 588 476 588 195 0 369-110 411-313h190c-52 303-296 489-601 489" id="aa"/><path d="M158 0v-1118h175l1 205c55-151 181-225 313-225 147 0 245 90 285 228 53-141 190-228 352-228 194 0 352 125 352 384V0h-181v-749c0-161-105-225-225-225-151 0-243 103-243 244V0H807v-767c0-124-93-207-219-207-131 0-250 92-250 270V0H158" id="ab"/><g id="n"><use transform="matrix(0.01953125,0,0,0.01953125,0,0)" xlink:href="#aa"/><use transform="matrix(0.01953125,0,0,0.01953125,29.21875,0)" xlink:href="#J"/><use transform="matrix(0.01953125,0,0,0.01953125,53.203125,0)" xlink:href="#ab"/><use transform="matrix(0.01953125,0,0,0.01953125,88.2421875,0)" xlink:href="#P"/><use transform="matrix(0.01953125,0,0,0.01953125,112.734375,0)" xlink:href="#N"/><use transform="matrix(0.01953125,0,0,0.01953125,136.38671875,0)" xlink:href="#T"/><use transform="matrix(0.01953125,0,0,0.01953125,149.08203125,0)" xlink:href="#D"/></g><g id="o"><use transform="matrix(0.01953125,0,0,0.01953125,0,0)" xlink:href="#z"/><use transform="matrix(0.01953125,0,0,0.01953125,25.546875,0)" xlink:href="#C"/><use transform="matrix(0.01953125,0,0,0.01953125,35.234375,0)" xlink:href="#A"/><use transform="matrix(0.01953125,0,0,0.01953125,57.6953125,0)" xlink:href="#G"/></g><g id="p"><use transform="matrix(0.01953125,0,0,0.01953125,0,0)" xlink:href="#E"/><use transform="matrix(0.01953125,0,0,0.01953125,25.6640625,0)" xlink:href="#D"/><use transform="matrix(0.01953125,0,0,0.01953125,48.984375,0)" xlink:href="#M"/><use transform="matrix(0.01953125,0,0,0.01953125,73.4765625,0)" xlink:href="#N"/><use transform="matrix(0.01953125,0,0,0.01953125,97.12890625,0)" xlink:href="#D"/><use transform="matrix(0.01953125,0,0,0.01953125,120.44921875,0)" xlink:href="#G"/><use transform="matrix(0.01953125,0,0,0.01953125,144.08203125,0)" xlink:href="#H"/><use transform="matrix(0.01953125,0,0,0.01953125,166.93359375,0)" xlink:href="#D"/></g><path d="M180 0v-1490h270l367 940c28 72 75 218 110 339 35-117 81-264 110-339l362-940h271V0h-187c2-448-5-837 7-1287-157 497-311 829-483 1287H842C666-458 514-784 354-1284c12 438 5 843 7 1284H180" id="ac"/><g id="q"><use transform="matrix(0.01953125,0,0,0.01953125,0,0)" xlink:href="#X"/><use transform="matrix(0.01953125,0,0,0.01953125,14.58984375,0)" xlink:href="#ac"/><use transform="matrix(0.01953125,0,0,0.01953125,50.72265625,0)" xlink:href="#D"/><use transform="matrix(0.01953125,0,0,0.01953125,74.04296875,0)" xlink:href="#ab"/><use transform="matrix(0.01953125,0,0,0.01953125,109.08203125,0)" xlink:href="#J"/><use transform="matrix(0.01953125,0,0,0.01953125,133.06640625,0)" xlink:href="#B"/><use transform="matrix(0.01953125,0,0,0.01953125,148.75,0)" xlink:href="#F"/><use transform="matrix(0.01953125,0,0,0.01953125,171.42578125,0)" xlink:href="#C"/><use transform="matrix(0.01953125,0,0,0.01953125,181.11328125,0)" xlink:href="#D"/><use transform="matrix(0.01953125,0,0,0.01953125,204.43359375,0)" xlink:href="#V"/><use transform="matrix(0.01953125,0,0,0.01953125,225.546875,0)" xlink:href="#V"/><use transform="matrix(0.01953125,0,0,0.01953125,246.66015625,0)" xlink:href="#Z"/></g><path d="M763 24c-353 0-583-224-583-531v-983h190v968c0 214 149 370 393 370 243 0 391-156 391-370v-968h190v983c0 307-230 531-581 531" id="ad"/><g id="r"><use transform="matrix(0.01953125,0,0,0.01953125,0,0)" xlink:href="#ad"/><use transform="matrix(0.01953125,0,0,0.01953125,29.765625,0)" xlink:href="#P"/><use transform="matrix(0.01953125,0,0,0.01953125,54.2578125,0)" xlink:href="#R"/><use transform="matrix(0.01953125,0,0,0.01953125,78.75,0)" xlink:href="#A"/><use transform="matrix(0.01953125,0,0,0.01953125,101.2109375,0)" xlink:href="#T"/><use transform="matrix(0.01953125,0,0,0.01953125,113.90625,0)" xlink:href="#D"/></g><g id="s"><use transform="matrix(0.01953125,0,0,0.01953125,0,0)" xlink:href="#z"/><use transform="matrix(0.01953125,0,0,0.01953125,25.546875,0)" xlink:href="#C"/><use transform="matrix(0.01953125,0,0,0.01953125,35.234375,0)" xlink:href="#A"/><use transform="matrix(0.01953125,0,0,0.01953125,57.6953125,0)" xlink:href="#G"/></g><g id="t"><use transform="matrix(0.01953125,0,0,0.01953125,0,0)" xlink:href="#Q"/><use transform="matrix(0.01953125,0,0,0.01953125,29.84375,0)" xlink:href="#N"/><use transform="matrix(0.01953125,0,0,0.01953125,53.49609375,0)" xlink:href="#A"/><use transform="matrix(0.01953125,0,0,0.01953125,75.95703125,0)" xlink:href="#B"/><use transform="matrix(0.01953125,0,0,0.01953125,90.3515625,0)" xlink:href="#R"/></g><g id="u"><use transform="matrix(0.01953125,0,0,0.01953125,0,0)" xlink:href="#E"/><use transform="matrix(0.01953125,0,0,0.01953125,25.6640625,0)" xlink:href="#D"/><use transform="matrix(0.01953125,0,0,0.01953125,48.984375,0)" xlink:href="#C"/><use transform="matrix(0.01953125,0,0,0.01953125,58.671875,0)" xlink:href="#D"/><use transform="matrix(0.01953125,0,0,0.01953125,81.9921875,0)" xlink:href="#H"/><use transform="matrix(0.01953125,0,0,0.01953125,104.84375,0)" xlink:href="#T"/><use transform="matrix(0.01953125,0,0,0.01953125,117.5390625,0)" xlink:href="#J"/><use transform="matrix(0.01953125,0,0,0.01953125,141.5234375,0)" xlink:href="#B"/></g><g id="v"><use transform="matrix(0.01953125,0,0,0.01953125,0,0)" xlink:href="#W"/><use transform="matrix(0.01953125,0,0,0.01953125,30.5859375,0)" xlink:href="#U"/><use transform="matrix(0.01953125,0,0,0.01953125,55.078125,0)" xlink:href="#V"/><use transform="matrix(0.01953125,0,0,0.01953125,76.19140625,0)" xlink:href="#T"/><use transform="matrix(0.01953125,0,0,0.01953125,89.47265625,0)" xlink:href="#A"/><use transform="matrix(0.01953125,0,0,0.01953125,111.93359375,0)" xlink:href="#H"/><use transform="matrix(0.01953125,0,0,0.01953125,134.78515625,0)" xlink:href="#C"/><use transform="matrix(0.01953125,0,0,0.01953125,144.47265625,0)" xlink:href="#D"/></g><g id="w"><use transform="matrix(0.01953125,0,0,0.01953125,0,0)" xlink:href="#X"/><use transform="matrix(0.01953125,0,0,0.01953125,14.58984375,0)" xlink:href="#S"/><use transform="matrix(0.01953125,0,0,0.01953125,25.33203125,0)" xlink:href="#Y"/></g><path d="M180 0v-1490h908v168H370v486h669v168H370v500h727V0H180" id="ae"/><path d="M65 0l393-574-370-544h210c88 136 192 297 267 435 67-142 176-302 264-435h206L661-564 1053 0H844c-94-144-206-310-287-458C484-308 366-142 273 0H65" id="af"/><g id="x"><use transform="matrix(0.01953125,0,0,0.01953125,0,0)" xlink:href="#ae"/><use transform="matrix(0.01953125,0,0,0.01953125,24.04296875,0)" xlink:href="#af"/><use transform="matrix(0.01953125,0,0,0.01953125,44.98046875,0)" xlink:href="#D"/><use transform="matrix(0.01953125,0,0,0.01953125,68.30078125,0)" xlink:href="#H"/><use transform="matrix(0.01953125,0,0,0.01953125,91.15234375,0)" xlink:href="#N"/><use transform="matrix(0.01953125,0,0,0.01953125,114.8046875,0)" xlink:href="#T"/><use transform="matrix(0.01953125,0,0,0.01953125,127.5,0)" xlink:href="#D"/></g><g id="y"><use transform="matrix(0.01953125,0,0,0.01953125,0,0)" xlink:href="#z"/><use transform="matrix(0.01953125,0,0,0.01953125,25.546875,0)" xlink:href="#C"/><use transform="matrix(0.01953125,0,0,0.01953125,35.234375,0)" xlink:href="#A"/><use transform="matrix(0.01953125,0,0,0.01953125,57.6953125,0)" xlink:href="#G"/></g></defs></g></svg>