<svg xmlns="http://www.w3.org/2000/svg" xmlns:xlink="http://www.w3.org/1999/xlink" xmlns:lucid="lucid" width="2682" height="1437.24"><g transform="translate(741 81)" lucid:page-tab-id="0_0"><path d="M-1000-500h3000v2000h-3000z" fill="#fff"/><path d="M-409.55 205.8A7.8 7.8 0 0 1-402 200h206a4.6 4.6 0 0 1 4.45 5.8l-28.9 108.4A7.8 7.8 0 0 1-228 320h-206a4.6 4.6 0 0 1-4.45-5.8z" stroke="#000" stroke-width="2" fill="#fff3d9"/><use xlink:href="#a" transform="matrix(1,0,0,1,-435,205) translate(51.04992187500001 69.6875)"/><path d="M-328.35 418.56c26.7 0 48.35 21.64 48.35 48.35 0 26.7-21.65 48.36-48.35 48.36h-363.3c-26.7 0-48.35-21.65-48.35-48.35 0-26.7 21.65-48.34 48.35-48.34z" stroke="#000" stroke-width="2" fill="#e3fae3"/><use xlink:href="#b" transform="matrix(1,0,0,1,-735,423.5579427083335) translate(30.307734375000003 57.78125)"/><use xlink:href="#c" transform="matrix(1,0,0,1,-735,423.5579427083335) translate(276.362421875 57.78125)"/><path d="M-319.44 321.23l-175.94 88.94" stroke="#3a414a" fill="none"/><path d="M-319.23 321.65l-.34-.65h1.63z" stroke="#3a414a" stroke-width=".05" fill="#3a414a"/><path d="M-508.56 416.83l10.64-10.57 4.2 8.27z" stroke="#3a414a" fill="#3a414a"/><path d="M400 206a6 6 0 0 1 6-6h508a6 6 0 0 1 6 6v74.32a6 6 0 0 1-6 6H406a6 6 0 0 1-6-6z" stroke="#000" stroke-width="2" fill="#fcfcca"/><use xlink:href="#d" transform="matrix(1,0,0,1,412,212) translate(21.65234375 46.625)"/><use xlink:href="#e" transform="matrix(1,0,0,1,412,212) translate(223.15625 46.625)"/><use xlink:href="#f" transform="matrix(1,0,0,1,412,212) translate(303.1171875 46.625)"/><path d="M416.84 389.96c23.84 0 43.16 19.33 43.16 43.16 0 23.84-19.32 43.16-43.16 43.16H183.16c-23.84 0-43.16-19.32-43.16-43.16 0-23.83 19.32-43.16 43.16-43.16z" stroke="#000" stroke-width="2" fill="#e3fae3"/><use xlink:href="#g" transform="matrix(1,0,0,1,145,394.9644811822909) translate(27.583125000000003 53.1875)"/><use xlink:href="#h" transform="matrix(1,0,0,1,145,394.9644811822909) translate(167.583125 53.1875)"/><path d="M659.53 287.5l-260.47 95.8" stroke="#3a414a" fill="none"/><path d="M659.68 287.94l-.23-.62h1.93z" stroke="#3a414a" stroke-width=".05" fill="#3a414a"/><path d="M385.2 388.4l11.8-9.27 3.2 8.7z" stroke="#3a414a" fill="#3a414a"/><path d="M880 388.4a6 6 0 0 1 6-6h208a6 6 0 0 1 6 6v89.44a6 6 0 0 1-6 6H886a6 6 0 0 1-6-6z" stroke="#000" stroke-width="2" fill="#fcfcca"/><use xlink:href="#i" transform="matrix(1,0,0,1,892,394.40205602083296) translate(2.873046875 53.375)"/><path d="M660.48 287.45l313.76 89.46" stroke="#3a414a" fill="none"/><path d="M660.36 287.92l-2.1-.6h2.27z" stroke="#3a414a" stroke-width=".05" fill="#3a414a"/><path d="M988.44 380.96l-15 .55 2.56-8.9z" stroke="#3a414a" fill="#3a414a"/><path d="M481.65 638.56c26.7 0 48.35 21.65 48.35 48.35 0 26.7-21.65 48.36-48.35 48.36h-223.3c-26.7 0-48.35-21.65-48.35-48.35 0-26.7 21.65-48.34 48.35-48.34z" stroke="#000" stroke-width="2" fill="#e3fae3"/><use xlink:href="#j" transform="matrix(1,0,0,1,215,643.5579427083336) translate(12.846796875000004 57.78125)"/><use xlink:href="#k" transform="matrix(1,0,0,1,215,643.5579427083336) translate(186.460078125 57.78125)"/><path d="M941.8 638.87c26.62 0 48.2 21.58 48.2 48.2 0 26.6-21.58 48.2-48.2 48.2H618.2c-26.62 0-48.2-21.6-48.2-48.2 0-26.62 21.58-48.2 48.2-48.2z" stroke="#000" stroke-width="2" fill="#e3fae3"/><use xlink:href="#l" transform="matrix(1,0,0,1,575,643.8722205729168) translate(41.09875 57.78125)"/><use xlink:href="#m" transform="matrix(1,0,0,1,575,643.8722205729168) translate(201.11828125 57.78125)"/><path d="M989.5 484.96L370 633.73" stroke="#3a414a" fill="none"/><path d="M989.6 485.43l-.13-.6h2.56z" stroke="#3a414a" stroke-width=".05" fill="#3a414a"/><path d="M355.64 637.18l12.8-7.84 2.16 9.02z" stroke="#3a414a" fill="#3a414a"/><path d="M989.6 485.13l-203.33 143.3" stroke="#3a414a" fill="none"/><path d="M989.85 485.53l-.48-.7h1.46z" stroke="#3a414a" stroke-width=".05" fill="#3a414a"/><path d="M774.2 636.94l9-12 5.33 7.57z" stroke="#3a414a" fill="#3a414a"/><path d="M1281.8 638.87c26.62 0 48.2 21.58 48.2 48.2 0 26.6-21.58 48.2-48.2 48.2h-203.6c-26.62 0-48.2-21.6-48.2-48.2 0-26.62 21.58-48.2 48.2-48.2z" stroke="#000" stroke-width="2" fill="#e3fae3"/><use xlink:href="#n" transform="matrix(1,0,0,1,1035,643.8722205729168) translate(12.514765625000004 57.78125)"/><use xlink:href="#o" transform="matrix(1,0,0,1,1035,643.8722205729168) translate(196.167109375 57.78125)"/><path d="M990.4 485.16l176.84 142.44" stroke="#3a414a" fill="none"/><path d="M990.1 485.54l-.86-.7h1.42z" stroke="#3a414a" stroke-width=".05" fill="#3a414a"/><path d="M1178.74 636.86l-14.02-5.34 5.82-7.22z" stroke="#3a414a" fill="#3a414a"/><path d="M1370 644.87a6 6 0 0 1 6-6h538a6 6 0 0 1 6 6v84.4a6 6 0 0 1-6 6h-538a6 6 0 0 1-6-6z" stroke="#000" stroke-width="2" fill="#fcfcca"/><use xlink:href="#d" transform="matrix(1,0,0,1,1382,650.8722205729168) translate(36.65234375 50.15625)"/><use xlink:href="#p" transform="matrix(1,0,0,1,1382,650.8722205729168) translate(238.15625 50.15625)"/><use xlink:href="#q" transform="matrix(1,0,0,1,1382,650.8722205729168) translate(318.1171875 50.15625)"/><path d="M990.5 484.95l679.25 149.4" stroke="#3a414a" fill="none"/><path d="M990.4 485.42l-2.6-.58h2.73z" stroke="#3a414a" stroke-width=".05" fill="#3a414a"/><path d="M1684.17 637.52l-14.93 1.47 2-9.07z" stroke="#3a414a" fill="#3a414a"/><path d="M1171.8 1027.65c26.62 0 48.2 21.58 48.2 48.2 0 26.63-21.58 48.2-48.2 48.2H868.2c-26.62 0-48.2-21.57-48.2-48.2 0-26.62 21.58-48.2 48.2-48.2z" stroke="#000" stroke-width="2" fill="#e3fae3"/><use xlink:href="#r" transform="matrix(1,0,0,1,825,1032.6496642083334) translate(17.055781250000003 57.78125)"/><use xlink:href="#s" transform="matrix(1,0,0,1,825,1032.6496642083334) translate(165.53234375 57.78125)"/><use xlink:href="#h" transform="matrix(1,0,0,1,825,1032.6496642083334) translate(258.11046875 57.78125)"/><path d="M1160.1 827.3a13.05 13.05 0 0 1 9.9-4.56h120a13.05 13.05 0 0 1 9.9 4.56l36.2 42.2a7 7 0 0 1 0 9.1l-36.2 42.18a13.05 13.05 0 0 1-9.9 4.56h-120a13.05 13.05 0 0 1-9.9-4.56l-36.2-42.2a7 7 0 0 1 0-9.1z" stroke="#000" stroke-width="2" fill="#fff0f0"/><use xlink:href="#t" transform="matrix(1,0,0,1,1125,827.7429887187496) translate(26.713984375000006 62)"/><path d="M1644.5 736.36l-398.45 82.08" stroke="#3a414a" fill="none"/><path d="M1644.6 736.83l-.12-.57h2.87z" stroke="#3a414a" stroke-width=".05" fill="#3a414a"/><path d="M1231.6 821.42l13.02-7.42 1.87 9.08z" stroke="#3a414a" fill="#3a414a"/><path d="M1229.55 926.55l-194.77 93.04" stroke="#3a414a" fill="none"/><path d="M1229.74 927l-.3-.66h1.66z" stroke="#3a414a" stroke-width=".05" fill="#3a414a"/><path d="M1021.46 1025.95l10.88-10.33 4 8.37z" stroke="#3a414a" fill="#3a414a"/><path d="M1320 1027.46a6 6 0 0 1 6-6h208a6 6 0 0 1 6 6v90.6a6 6 0 0 1-6 6h-208a6 6 0 0 1-6-6z" stroke="#000" stroke-width="2" fill="#fcfcca"/><use xlink:href="#i" transform="matrix(1,0,0,1,1332,1033.4647183749998) translate(2.873046875 53.5625)"/><path d="M1230.44 926.56l168.7 86.43" stroke="#3a414a" fill="none"/><path d="M1230.24 927l-1.28-.66h1.62z" stroke="#3a414a" stroke-width=".05" fill="#3a414a"/><path d="M1412.28 1019.73l-14.8-2.38 4.22-8.25z" stroke="#3a414a" fill="#3a414a"/><path d="M1147.02 1249.28c29.26 0 52.98 23.72 52.98 52.98 0 29.26-23.72 52.98-52.98 52.98H912.98c-29.26 0-52.98-23.72-52.98-52.98 0-29.26 23.72-52.98 52.98-52.98z" stroke="#000" stroke-width="2" fill="#e3fae3"/><use xlink:href="#j" transform="matrix(1,0,0,1,865,1254.278370177082) translate(22.846796875000006 62.75)"/><use xlink:href="#k" transform="matrix(1,0,0,1,865,1254.278370177082) translate(196.460078125 62.75)"/><path d="M1567.02 1249.28c29.26 0 52.98 23.72 52.98 52.98 0 29.26-23.72 52.98-52.98 52.98h-274.04c-29.26 0-52.98-23.72-52.98-52.98 0-29.26 23.72-52.98 52.98-52.98z" stroke="#000" stroke-width="2" fill="#e3fae3"/><use xlink:href="#l" transform="matrix(1,0,0,1,1245,1254.278370177082) translate(21.098750000000006 62.75)"/><use xlink:href="#u" transform="matrix(1,0,0,1,1245,1254.278370177082) translate(181.11828125 62.75)"/><path d="M1887.02 1249.28c29.26 0 52.98 23.72 52.98 52.98 0 29.26-23.72 52.98-52.98 52.98h-174.04c-29.26 0-52.98-23.72-52.98-52.98 0-29.26 23.72-52.98 52.98-52.98z" stroke="#000" stroke-width="2" fill="#e3fae3"/><use xlink:href="#r" transform="matrix(1,0,0,1,1665,1254.278370177082) translate(20.102656250000006 62.75)"/><use xlink:href="#o" transform="matrix(1,0,0,1,1665,1254.278370177082) translate(168.57921875 62.75)"/><path d="M1429.52 1125.2l-383.86 118.25" stroke="#3a414a" fill="none"/><path d="M1429.65 1125.66l-.2-.6h2.16z" stroke="#3a414a" stroke-width=".05" fill="#3a414a"/><path d="M1031.55 1247.8l12.27-8.63 2.73 8.86z" stroke="#3a414a" fill="#3a414a"/><path d="M1430 1125.56v106.33" stroke="#3a414a" fill="none"/><path d="M1430.47 1125.57h-.94v-.5h.94z" stroke="#3a414a" stroke-width=".05" fill="#3a414a"/><path d="M1430 1246.66l-4.63-14.27h9.27z" stroke="#3a414a" fill="#3a414a"/><path d="M1430.47 1125.2l353.98 117.9" stroke="#3a414a" fill="none"/><path d="M1430.34 1125.67l-1.84-.6h2.04z" stroke="#3a414a" stroke-width=".05" fill="#3a414a"/><path d="M1798.46 1247.77l-15-.1 2.93-8.8z" stroke="#3a414a" fill="#3a414a"/><path d="M1645.43 736.52l110.6 67.94" stroke="#3a414a" fill="none"/><path d="M1645.2 736.93l-1.1-.67h1.5z" stroke="#3a414a" stroke-width=".05" fill="#3a414a"/><path d="M1768.62 812.2l-14.58-3.53 4.85-7.9z" stroke="#3a414a" fill="#3a414a"/><path d="M1630 820.04a6 6 0 0 1 6-6h268a6 6 0 0 1 6 6v108a6 6 0 0 1-6 6h-268a6 6 0 0 1-6-6z" fill="#fff7a1"/><path d="M1631 820.04c0 .55-.45 1-1 1s-1-.45-1-1 .45-1 1-1 1 .45 1 1zm6-6c0 .55-.45 1-1 1s-1-.45-1-1 .45-1 1-1 1 .45 1 1zm7.88 0c0 .55-.45 1-1 1s-1-.45-1-1 .45-1 1-1 1 .45 1 1zm7.88 0c0 .55-.44 1-1 1-.55 0-1-.45-1-1s.45-1 1-1c.56 0 1 .45 1 1zm7.9 0c0 .55-.46 1-1 1-.57 0-1-.45-1-1s.43-1 1-1c.54 0 1 .45 1 1zm7.87 0c0 .55-.45 1-1 1s-1-.45-1-1 .45-1 1-1 1 .45 1 1zm7.88 0c0 .55-.44 1-1 1-.54 0-1-.45-1-1s.46-1 1-1c.56 0 1 .45 1 1zm7.9 0c0 .55-.45 1-1 1-.56 0-1-.45-1-1s.44-1 1-1c.55 0 1 .45 1 1zm7.88 0c0 .55-.45 1-1 1-.56 0-1-.45-1-1s.44-1 1-1c.55 0 1 .45 1 1zm7.88 0c0 .55-.45 1-1 1s-1-.45-1-1 .45-1 1-1 1 .45 1 1zm7.88 0c0 .55-.45 1-1 1s-1-.45-1-1 .45-1 1-1 1 .45 1 1zm7.88 0c0 .55-.44 1-1 1-.55 0-1-.45-1-1s.45-1 1-1c.56 0 1 .45 1 1zm7.9 0c0 .55-.46 1-1 1-.57 0-1-.45-1-1s.43-1 1-1c.54 0 1 .45 1 1zm7.87 0c0 .55-.46 1-1 1-.56 0-1-.45-1-1s.44-1 1-1c.54 0 1 .45 1 1zm7.87 0c0 .55-.45 1-1 1s-1-.45-1-1 .45-1 1-1 1 .45 1 1zm7.88 0c0 .55-.44 1-1 1-.55 0-1-.45-1-1s.45-1 1-1c.56 0 1 .45 1 1zm7.88 0c0 .55-.44 1-1 1-.55 0-1-.45-1-1s.45-1 1-1c.56 0 1 .45 1 1zm7.9 0c0 .55-.46 1-1 1-.57 0-1-.45-1-1s.43-1 1-1c.54 0 1 .45 1 1zm7.87 0c0 .55-.45 1-1 1s-1-.45-1-1 .45-1 1-1 1 .45 1 1zm7.88 0c0 .55-.45 1-1 1s-1-.45-1-1 .45-1 1-1 1 .45 1 1zm7.88 0c0 .55-.44 1-1 1-.55 0-1-.45-1-1s.45-1 1-1c.56 0 1 .45 1 1zm7.9 0c0 .55-.46 1-1 1-.57 0-1-.45-1-1s.43-1 1-1c.54 0 1 .45 1 1zm7.87 0c0 .55-.45 1-1 1s-1-.45-1-1 .45-1 1-1 1 .45 1 1zm7.88 0c0 .55-.44 1-1 1-.54 0-1-.45-1-1s.46-1 1-1c.56 0 1 .45 1 1zm7.9 0c0 .55-.45 1-1 1-.56 0-1-.45-1-1s.44-1 1-1c.55 0 1 .45 1 1zm7.88 0c0 .55-.45 1-1 1-.56 0-1-.45-1-1s.44-1 1-1c.55 0 1 .45 1 1zm7.88 0c0 .55-.45 1-1 1s-1-.45-1-1 .45-1 1-1 1 .45 1 1zm7.88 0c0 .55-.45 1-1 1s-1-.45-1-1 .45-1 1-1 1 .45 1 1zm7.88 0c0 .55-.44 1-1 1-.55 0-1-.45-1-1s.45-1 1-1c.56 0 1 .45 1 1zm7.9 0c0 .55-.46 1-1 1-.57 0-1-.45-1-1s.43-1 1-1c.54 0 1 .45 1 1zm7.87 0c0 .55-.46 1-1 1-.56 0-1-.45-1-1s.44-1 1-1c.54 0 1 .45 1 1zm7.87 0c0 .55-.45 1-1 1s-1-.45-1-1 .45-1 1-1 1 .45 1 1zm7.88 0c0 .55-.44 1-1 1-.55 0-1-.45-1-1s.45-1 1-1c.56 0 1 .45 1 1zm7.88 0c0 .55-.44 1-1 1-.55 0-1-.45-1-1s.45-1 1-1c.56 0 1 .45 1 1zm7.9 0c0 .55-.46 1-1 1-.57 0-1-.45-1-1s.43-1 1-1c.54 0 1 .45 1 1zm7.87 0c0 .55-.45 1-1 1s-1-.45-1-1 .45-1 1-1 1 .45 1 1zm6 6c0 .55-.45 1-1 1s-1-.45-1-1 .45-1 1-1 1 .45 1 1zm0 7.7c0 .57-.45 1-1 1s-1-.43-1-1c0-.54.45-1 1-1s1 .46 1 1zm0 7.73c0 .55-.45 1-1 1s-1-.45-1-1 .45-1 1-1 1 .45 1 1zm0 7.7c0 .56-.45 1-1 1s-1-.44-1-1c0-.54.45-1 1-1s1 .46 1 1zm0 7.73c0 .55-.45 1-1 1s-1-.45-1-1c0-.56.45-1 1-1s1 .44 1 1zm0 7.7c0 .56-.45 1-1 1s-1-.44-1-1c0-.54.45-1 1-1s1 .46 1 1zm0 7.73c0 .55-.45 1-1 1s-1-.45-1-1c0-.56.45-1 1-1s1 .44 1 1zm0 7.7c0 .56-.45 1-1 1s-1-.44-1-1c0-.54.45-1 1-1s1 .46 1 1zm0 7.72c0 .56-.45 1-1 1s-1-.44-1-1c0-.55.45-1 1-1s1 .45 1 1zm0 7.72c0 .55-.45 1-1 1s-1-.45-1-1 .45-1 1-1 1 .45 1 1zm0 7.7c0 .56-.45 1-1 1s-1-.44-1-1c0-.54.45-1 1-1s1 .46 1 1zm0 7.73c0 .55-.45 1-1 1s-1-.45-1-1c0-.56.45-1 1-1s1 .44 1 1zm0 7.7c0 .56-.45 1-1 1s-1-.44-1-1c0-.54.45-1 1-1s1 .46 1 1zm0 7.73c0 .55-.45 1-1 1s-1-.45-1-1c0-.56.45-1 1-1s1 .44 1 1zm0 7.7c0 .56-.45 1-1 1s-1-.44-1-1c0-.54.45-1 1-1s1 .46 1 1zm-6 6c0 .56-.45 1-1 1s-1-.44-1-1c0-.54.45-1 1-1s1 .46 1 1zm-7.88 0c0 .56-.45 1-1 1s-1-.44-1-1c0-.54.45-1 1-1s1 .46 1 1zm-7.88 0c0 .56-.45 1-1 1-.56 0-1-.44-1-1 0-.54.44-1 1-1 .55 0 1 .46 1 1zm-7.9 0c0 .56-.43 1-1 1-.54 0-1-.44-1-1 0-.54.46-1 1-1 .57 0 1 .46 1 1zm-7.87 0c0 .56-.45 1-1 1s-1-.44-1-1c0-.54.45-1 1-1s1 .46 1 1zm-7.88 0c0 .56-.46 1-1 1-.56 0-1-.44-1-1 0-.54.44-1 1-1 .54 0 1 .46 1 1zm-7.9 0c0 .56-.44 1-1 1-.55 0-1-.44-1-1 0-.54.45-1 1-1 .56 0 1 .46 1 1zm-7.88 0c0 .56-.44 1-1 1-.55 0-1-.44-1-1 0-.54.45-1 1-1 .56 0 1 .46 1 1zm-7.88 0c0 .56-.45 1-1 1s-1-.44-1-1c0-.54.45-1 1-1s1 .46 1 1zm-7.88 0c0 .56-.45 1-1 1s-1-.44-1-1c0-.54.45-1 1-1s1 .46 1 1zm-7.88 0c0 .56-.45 1-1 1-.56 0-1-.44-1-1 0-.54.44-1 1-1 .55 0 1 .46 1 1zm-7.9 0c0 .56-.43 1-1 1-.54 0-1-.44-1-1 0-.54.46-1 1-1 .57 0 1 .46 1 1zm-7.87 0c0 .56-.44 1-1 1-.54 0-1-.44-1-1 0-.54.46-1 1-1 .56 0 1 .46 1 1zm-7.87 0c0 .56-.45 1-1 1s-1-.44-1-1c0-.54.45-1 1-1s1 .46 1 1zm-7.88 0c0 .56-.45 1-1 1-.56 0-1-.44-1-1 0-.54.44-1 1-1 .55 0 1 .46 1 1zm-7.88 0c0 .56-.45 1-1 1-.56 0-1-.44-1-1 0-.54.44-1 1-1 .55 0 1 .46 1 1zm-7.9 0c0 .56-.43 1-1 1-.54 0-1-.44-1-1 0-.54.46-1 1-1 .57 0 1 .46 1 1zm-7.87 0c0 .56-.45 1-1 1s-1-.44-1-1c0-.54.45-1 1-1s1 .46 1 1zm-7.88 0c0 .56-.45 1-1 1s-1-.44-1-1c0-.54.45-1 1-1s1 .46 1 1zm-7.88 0c0 .56-.45 1-1 1-.56 0-1-.44-1-1 0-.54.44-1 1-1 .55 0 1 .46 1 1zm-7.9 0c0 .56-.43 1-1 1-.54 0-1-.44-1-1 0-.54.46-1 1-1 .57 0 1 .46 1 1zm-7.87 0c0 .56-.45 1-1 1s-1-.44-1-1c0-.54.45-1 1-1s1 .46 1 1zm-7.88 0c0 .56-.46 1-1 1-.56 0-1-.44-1-1 0-.54.44-1 1-1 .54 0 1 .46 1 1zm-7.9 0c0 .56-.44 1-1 1-.55 0-1-.44-1-1 0-.54.45-1 1-1 .56 0 1 .46 1 1zm-7.88 0c0 .56-.44 1-1 1-.55 0-1-.44-1-1 0-.54.45-1 1-1 .56 0 1 .46 1 1zm-7.88 0c0 .56-.45 1-1 1s-1-.44-1-1c0-.54.45-1 1-1s1 .46 1 1zm-7.88 0c0 .56-.45 1-1 1s-1-.44-1-1c0-.54.45-1 1-1s1 .46 1 1zm-7.88 0c0 .56-.45 1-1 1-.56 0-1-.44-1-1 0-.54.44-1 1-1 .55 0 1 .46 1 1zm-7.9 0c0 .56-.43 1-1 1-.54 0-1-.44-1-1 0-.54.46-1 1-1 .57 0 1 .46 1 1zm-7.87 0c0 .56-.44 1-1 1-.54 0-1-.44-1-1 0-.54.46-1 1-1 .56 0 1 .46 1 1zm-7.87 0c0 .56-.45 1-1 1s-1-.44-1-1c0-.54.45-1 1-1s1 .46 1 1zm-7.88 0c0 .56-.45 1-1 1-.56 0-1-.44-1-1 0-.54.44-1 1-1 .55 0 1 .46 1 1zm-7.88 0c0 .56-.45 1-1 1-.56 0-1-.44-1-1 0-.54.44-1 1-1 .55 0 1 .46 1 1zm-7.9 0c0 .56-.43 1-1 1-.54 0-1-.44-1-1 0-.54.46-1 1-1 .57 0 1 .46 1 1zm-7.87 0c0 .56-.45 1-1 1s-1-.44-1-1c0-.54.45-1 1-1s1 .46 1 1zm-6-6c0 .56-.45 1-1 1s-1-.44-1-1c0-.54.45-1 1-1s1 .46 1 1zm0-7.7c0 .55-.45 1-1 1s-1-.45-1-1c0-.56.45-1 1-1s1 .44 1 1zm0-7.72c0 .56-.45 1-1 1s-1-.44-1-1c0-.54.45-1 1-1s1 .46 1 1zm0-7.7c0 .55-.45 1-1 1s-1-.45-1-1c0-.56.45-1 1-1s1 .44 1 1zm0-7.72c0 .55-.45 1-1 1s-1-.45-1-1 .45-1 1-1 1 .45 1 1zm0-7.7c0 .54-.45 1-1 1s-1-.46-1-1c0-.56.45-1 1-1s1 .44 1 1zm0-7.73c0 .56-.45 1-1 1s-1-.44-1-1c0-.55.45-1 1-1s1 .45 1 1zm0-7.7c0 .54-.45 1-1 1s-1-.46-1-1c0-.56.45-1 1-1s1 .44 1 1zm0-7.72c0 .55-.45 1-1 1s-1-.45-1-1c0-.56.45-1 1-1s1 .44 1 1zm0-7.72c0 .56-.45 1-1 1s-1-.44-1-1c0-.54.45-1 1-1s1 .46 1 1zm0-7.7c0 .55-.45 1-1 1s-1-.45-1-1c0-.56.45-1 1-1s1 .44 1 1zm0-7.72c0 .55-.45 1-1 1s-1-.45-1-1 .45-1 1-1 1 .45 1 1zm0-7.7c0 .54-.45 1-1 1s-1-.46-1-1c0-.56.45-1 1-1s1 .44 1 1zm0-7.73c0 .56-.45 1-1 1s-1-.44-1-1c0-.55.45-1 1-1s1 .45 1 1zm0-7.7c0 .54-.45 1-1 1s-1-.46-1-1c0-.56.45-1 1-1s1 .44 1 1z"/><use xlink:href="#v" transform="matrix(1,0,0,1,1642,826.0392376770828) translate(6.30078125 62.75)"/><use xlink:href="#w" transform="matrix(1,0,0,1,1642,826.0392376770828) translate(168.37109375 62.75)"/><path d="M120-74a6 6 0 0 1 6-6h208a6 6 0 0 1 6 6v89.44a6 6 0 0 1-6 6H126a6 6 0 0 1-6-6z" stroke="#000" stroke-width="2" fill="#fcfcca"/><use xlink:href="#i" transform="matrix(1,0,0,1,132,-68) translate(2.873046875 53.375)"/><path d="M229.52 22.6L-299.4 193.95" stroke="#3a414a" fill="none"/><path d="M229.66 23.05l-.2-.6h2.08z" stroke="#3a414a" stroke-width=".05" fill="#3a414a"/><path d="M-313.46 198.5l12.14-8.8 2.86 8.8z" stroke="#3a414a" fill="#3a414a"/><path d="M230.46 22.63l414.38 170.15" stroke="#3a414a" fill="none"/><path d="M230.3 23.08l-1.55-.64h1.8z" stroke="#3a414a" stroke-width=".05" fill="#3a414a"/><path d="M658.5 198.38l-14.95-1.13 3.52-8.57z" stroke="#3a414a" fill="#3a414a"/><path d="M-240 424.56a6 6 0 0 1 6-6H-6a6 6 0 0 1 6 6v84.7a6 6 0 0 1-6 6h-228a6 6 0 0 1-6-6z" stroke="#000" stroke-width="2" fill="#fcfcca"/><use xlink:href="#i" transform="matrix(1,0,0,1,-228,430.55794270833337) translate(12.873046875 50.15625)"/><path d="M-314.55 321.22l179.87 89.07" stroke="#3a414a" fill="none"/><path d="M-314.75 321.65l-1.32-.65h1.64z" stroke="#3a414a" stroke-width=".05" fill="#3a414a"/><path d="M-121.45 416.84l-14.84-2.18 4.12-8.3z" stroke="#3a414a" fill="#3a414a"/><path d="M-119.77 516.7l54.36 106.27" stroke="#3a414a" fill="none"/><path d="M-119.34 516.5l-.85.43-.33-.67h1.06z" stroke="#3a414a" stroke-width=".05" fill="#3a414a"/><path d="M-58.68 636.12l-10.63-10.6 8.25-4.2z" stroke="#3a414a" fill="#3a414a"/><path d="M-338.35 633.82c26.7 0 48.35 21.64 48.35 48.34 0 26.7-21.65 48.35-48.35 48.35h-323.3c-26.7 0-48.35-21.63-48.35-48.34 0-26.7 21.65-48.34 48.35-48.34z" stroke="#000" stroke-width="2" fill="#e3fae3"/><g><use xlink:href="#x" transform="matrix(1,0,0,1,-705,638.8150541666666) translate(45.034296875 57.78125)"/><use xlink:href="#y" transform="matrix(1,0,0,1,-705,638.8150541666666) translate(138.901484375 57.78125)"/><use xlink:href="#z" transform="matrix(1,0,0,1,-705,638.8150541666666) translate(202.827265625 57.78125)"/><use xlink:href="#A" transform="matrix(1,0,0,1,-705,638.8150541666666) translate(271.225703125 57.78125)"/></g><path d="M121.65 638.56c26.7 0 48.35 21.65 48.35 48.35 0 26.7-21.65 48.36-48.35 48.36h-323.3c-26.7 0-48.35-21.65-48.35-48.35 0-26.7 21.65-48.34 48.35-48.34z" stroke="#000" stroke-width="2" fill="#e3fae3"/><g><use xlink:href="#x" transform="matrix(1,0,0,1,-245,643.5579427083335) translate(30.424921875000003 57.78125)"/><use xlink:href="#y" transform="matrix(1,0,0,1,-245,643.5579427083335) translate(124.29210937500001 57.78125)"/><use xlink:href="#B" transform="matrix(1,0,0,1,-245,643.5579427083335) translate(188.217890625 57.78125)"/><use xlink:href="#A" transform="matrix(1,0,0,1,-245,643.5579427083335) translate(285.835078125 57.78125)"/></g><path d="M-120.48 516.4L-484.34 628" stroke="#3a414a" fill="none"/><path d="M-120.35 516.86l-.2-.6h2.17z" stroke="#3a414a" stroke-width=".05" fill="#3a414a"/><path d="M-498.45 632.34l12.28-8.6 2.72 8.85z" stroke="#3a414a" fill="#3a414a"/><path d="M553.07 389.3a19.15 19.15 0 0 1 10.93-3.43h192a19.15 19.15 0 0 1 10.93 3.43l58.14 40.4a4.17 4.17 0 0 1 0 6.85l-58.14 40.4a19.15 19.15 0 0 1-10.93 3.42H564a19.15 19.15 0 0 1-10.93-3.42l-58.14-40.4a4.17 4.17 0 0 1 0-6.85z" fill="#ffd9d9"/><path d="M560.53 386.2l1.15-.2 1.16-.1 1.16-.03h3.03m4.04 0h6.07m4.04 0h6.06m4.04 0h6.07m4.04 0h6.05m4.04 0h6.06m4.04 0h6.06m4.05 0h6.07m4.04 0h6.07m4.05 0h6.06m4.04 0h6.06m4.05 0h6.06m4.03 0h6.06m4.04 0h6.06m4.04 0h6.06m4.05 0h6.06m4.05 0h6.07m4.04 0h6.06m4.04 0h6.07m4.04 0H756l1.16.04 1.16.1 1.15.2m4.43 1.38l1.04.5 1 .58 1 .64 2.48 1.73m3.32 2.3l5 3.47m3.3 2.3l5 3.47m3.32 2.3l4.98 3.47m3.32 2.3l5 3.48m3.3 2.3l5 3.47m3.3 2.3l5 3.46m3.32 2.3l2.5 1.74.6.52.5.63.38.7m0 3.14l-.38.7-.5.63-.6.52-2.5 1.73m-3.32 2.3l-5 3.47m-3.3 2.3l-5 3.47m-3.32 2.3l-4.98 3.47m-3.32 2.3l-5 3.47m-3.3 2.3l-5 3.47m-3.3 2.3l-5 3.47m-3.32 2.32l-2.5 1.73-.97.63-1 .58-1.05.5m-4.43 1.4l-1.15.17-1.16.1-1.16.04h-3.03m-4.04 0h-6.07m-4.04 0h-6.06m-4.04 0h-6.07m-4.04 0h-6.05m-4.04 0h-6.06m-4.04 0h-6.06m-4.05 0h-6.07m-4.04 0h-6.07m-4.05 0h-6.06m-4.04 0h-6.06m-4.05 0h-6.06m-4.03 0h-6.06m-4.04 0h-6.06m-4.04 0h-6.06m-4.05 0h-6.06m-4.05 0h-6.07m-4.04 0h-6.06m-4.04 0h-6.07m-4.04 0H564l-1.16-.03-1.16-.1-1.15-.18m-4.43-1.4l-1.04-.5-1-.58-1-.63-2.48-1.73m-3.32-2.3l-5-3.47m-3.3-2.3l-5-3.48m-3.32-2.3l-4.98-3.47m-3.32-2.3l-5-3.47m-3.3-2.3l-5-3.47m-3.3-2.3l-5-3.47m-3.32-2.32l-2.5-1.73-.6-.52-.5-.63-.38-.7m0-3.14l.38-.7.5-.64.6-.52 2.5-1.73m3.32-2.3l5-3.47m3.3-2.3l5-3.48m3.32-2.3l4.98-3.47m3.32-2.3l5-3.47m3.3-2.3l5-3.47m3.3-2.3l5-3.46m3.32-2.3l2.5-1.74.97-.64 1-.57 1.05-.52" stroke="#000" stroke-width="2" fill="none"/><g><use xlink:href="#C" transform="matrix(1,0,0,1,495,390.8730721666663) translate(35.854609375 60)"/><use xlink:href="#D" transform="matrix(1,0,0,1,495,390.8730721666663) translate(132.573359375 60)"/></g><path d="M660 287.82v80.67" stroke="#3a414a" fill="none"/><path d="M660.48 287.83h-.96v-.5h.96z" stroke="#3a414a" stroke-width=".05" fill="#3a414a"/><path d="M660 383.25L655.37 369h9.26z" stroke="#3a414a" fill="#3a414a"/><defs><path d="M180 0v-1490h510c348 0 508 209 508 474 0 266-160 477-507 477H370V0H180zm190-706h312c236 0 327-133 327-310 0-176-91-307-329-307H370v617" id="E"/><path d="M471 26C259 26 90-98 90-318c0-256 228-303 435-329 202-27 287-16 287-108 0-139-79-219-234-219-161 0-248 86-283 164l-173-57c86-203 278-265 451-265 150 0 419 46 419 395V0H815v-152h-12C765-73 660 26 471 26zm31-159c199 0 310-134 310-271v-155c-30 35-226 55-295 64-131 17-246 59-246 186 0 116 97 176 231 176" id="F"/><path d="M158 0v-1118h174v172h12c41-113 157-188 290-188 26 0 70 2 91 3v181c-11-2-60-10-108-10-161 0-279 109-279 260V0H158" id="G"/><path d="M338-1490V0H158v-1490h180" id="H"/><path d="M628 24c-324 0-524-230-524-574 0-343 198-582 503-582 237 0 487 146 487 559v75H286c9 234 145 362 343 362 132 0 231-58 273-172l174 48C1024-91 857 24 628 24zM287-650h624c-17-190-120-322-304-322-192 0-309 151-320 322" id="I"/><g id="a"><use transform="matrix(0.01953125,0,0,0.01953125,0,0)" xlink:href="#E"/><use transform="matrix(0.01953125,0,0,0.01953125,25.546875,0)" xlink:href="#F"/><use transform="matrix(0.01953125,0,0,0.01953125,48.0078125,0)" xlink:href="#G"/><use transform="matrix(0.01953125,0,0,0.01953125,63.06640625,0)" xlink:href="#F"/><use transform="matrix(0.01953125,0,0,0.01953125,85.52734375,0)" xlink:href="#H"/><use transform="matrix(0.01953125,0,0,0.01953125,95.21484375,0)" xlink:href="#H"/><use transform="matrix(0.01953125,0,0,0.01953125,104.90234375,0)" xlink:href="#I"/><use transform="matrix(0.01953125,0,0,0.01953125,128.22265625,0)" xlink:href="#H"/></g><path d="M657 26c-323 0-524-166-541-416h195c15 169 171 246 346 246 202 0 356-106 356-265 5-203-294-238-475-293-239-73-380-191-380-389 0-252 224-419 512-419 294 0 499 171 508 396H992c-17-145-151-228-328-228-193 0-321 102-321 242 0 156 175 211 284 241l149 41c160 44 422 134 422 412 0 244-197 432-541 432" id="J"/><path d="M140 405l46-156c120 36 205 19 263-150l32-93L54-1118h197c107 313 237 620 324 950 87-331 219-637 326-950h196L606 167c-68 178-176 259-334 259-64 0-113-12-132-21" id="K"/><path d="M338-670V0H158v-1118h173l1 207c72-158 192-221 342-221 226 0 378 139 378 422V0H872v-695c0-172-96-275-252-275-161 0-282 109-282 300" id="L"/><path d="M613 24c-304 0-509-231-509-576 0-350 205-580 509-580 216 0 392 114 453 309l-173 49c-33-115-133-197-280-197-223 0-326 196-326 419 0 220 103 415 326 415 150 0 252-85 285-206l172 49C1010-95 832 24 613 24" id="M"/><path d="M338-670V0H158v-1490h180v566c73-149 190-208 336-208 226 0 379 139 379 422V0H872v-695c0-172-96-275-252-275-161 0-282 109-282 300" id="N"/><path d="M613 24c-304 0-509-231-509-576 0-350 205-580 509-580 305 0 511 230 511 580 0 345-206 576-511 576zm0-161c226 0 329-195 329-415 0-222-103-419-329-419-223 0-326 196-326 419 0 220 103 415 326 415" id="O"/><path d="M158 0v-1118h180V0H158zm91-1301c-68 0-125-53-125-119s57-119 125-119c69 0 126 53 126 119s-57 119-126 119" id="P"/><path d="M126 0v-134l627-806v-11H146v-167h839v143L376-178v11h629V0H126" id="Q"/><g id="b"><use transform="matrix(0.01953125,0,0,0.01953125,0,0)" xlink:href="#J"/><use transform="matrix(0.01953125,0,0,0.01953125,25.6640625,0)" xlink:href="#K"/><use transform="matrix(0.01953125,0,0,0.01953125,48.14453125,0)" xlink:href="#L"/><use transform="matrix(0.01953125,0,0,0.01953125,71.77734375,0)" xlink:href="#M"/><use transform="matrix(0.01953125,0,0,0.01953125,94.62890625,0)" xlink:href="#N"/><use transform="matrix(0.01953125,0,0,0.01953125,118.28125,0)" xlink:href="#G"/><use transform="matrix(0.01953125,0,0,0.01953125,132.67578125,0)" xlink:href="#O"/><use transform="matrix(0.01953125,0,0,0.01953125,156.66015625,0)" xlink:href="#L"/><use transform="matrix(0.01953125,0,0,0.01953125,180.29296875,0)" xlink:href="#P"/><use transform="matrix(0.01953125,0,0,0.01953125,189.98046875,0)" xlink:href="#Q"/><use transform="matrix(0.01953125,0,0,0.01953125,211.484375,0)" xlink:href="#I"/></g><g id="c"><use transform="matrix(0.01953125,0,0,0.01953125,0,0)" xlink:href="#E"/><use transform="matrix(0.01953125,0,0,0.01953125,25.546875,0)" xlink:href="#H"/><use transform="matrix(0.01953125,0,0,0.01953125,35.234375,0)" xlink:href="#F"/><use transform="matrix(0.01953125,0,0,0.01953125,57.6953125,0)" xlink:href="#L"/><use transform="matrix(0.01953125,0,0,0.01953125,81.328125,0)" xlink:href="#L"/><use transform="matrix(0.01953125,0,0,0.01953125,104.9609375,0)" xlink:href="#I"/><use transform="matrix(0.01953125,0,0,0.01953125,128.28125,0)" xlink:href="#G"/></g><path d="M1096 418H916v-591h-14C865-111 790 24 577 24c-279 0-473-224-473-580 0-354 195-576 474-576 218 0 287 134 324 193h20v-179h174V418zM604-137c203 0 314-172 314-421 0-247-108-413-314-413-212 0-317 181-317 413 0 235 108 421 317 421" id="R"/><path d="M537 14c-226 0-379-139-379-422v-710h180v695c0 172 97 275 253 275 160 0 281-109 281-300v-670h181V0H879v-209C806-46 684 14 537 14" id="S"/><g id="d"><use transform="matrix(0.01953125,0,0,0.01953125,0,0)" xlink:href="#J"/><use transform="matrix(0.01953125,0,0,0.01953125,25.6640625,0)" xlink:href="#I"/><use transform="matrix(0.01953125,0,0,0.01953125,48.984375,0)" xlink:href="#R"/><use transform="matrix(0.01953125,0,0,0.01953125,73.4765625,0)" xlink:href="#S"/><use transform="matrix(0.01953125,0,0,0.01953125,97.12890625,0)" xlink:href="#I"/><use transform="matrix(0.01953125,0,0,0.01953125,120.44921875,0)" xlink:href="#L"/><use transform="matrix(0.01953125,0,0,0.01953125,144.08203125,0)" xlink:href="#M"/><use transform="matrix(0.01953125,0,0,0.01953125,166.93359375,0)" xlink:href="#I"/></g><path d="M218-607c0-325 108-727 258-974h175c-155 315-250 682-250 974 0 265 78 531 250 886H476C306-10 218-315 218-607" id="T"/><path d="M180 0v-1490h224l606 953c40 63 108 177 176 312-27-437-7-821-13-1265h190V0h-226C860-448 622-778 356-1262c27 476 11 792 15 1262H180" id="U"/><g id="e"><use transform="matrix(0.01953125,0,0,0.01953125,0,0)" xlink:href="#T"/><use transform="matrix(0.01953125,0,0,0.01953125,14.58984375,0)" xlink:href="#U"/><use transform="matrix(0.01953125,0,0,0.01953125,44.7265625,0)" xlink:href="#O"/></g><path d="M180 0v-1490h270l367 940c28 72 75 218 110 339 35-117 81-264 110-339l362-940h271V0h-187c2-448-5-837 7-1287-157 497-311 829-483 1287H842C666-458 514-784 354-1284c12 438 5 843 7 1284H180" id="V"/><path d="M158 0v-1118h175l1 205c55-151 181-225 313-225 147 0 245 90 285 228 53-141 190-228 352-228 194 0 352 125 352 384V0h-181v-749c0-161-105-225-225-225-151 0-243 103-243 244V0H807v-767c0-124-93-207-219-207-131 0-250 92-250 270V0H158" id="W"/><path d="M96 279C273-86 346-350 346-607c0-292-95-659-250-974h175c150 246 258 650 258 974 0 297-91 602-258 886H96" id="X"/><g id="f"><use transform="matrix(0.01953125,0,0,0.01953125,0,0)" xlink:href="#V"/><use transform="matrix(0.01953125,0,0,0.01953125,36.1328125,0)" xlink:href="#I"/><use transform="matrix(0.01953125,0,0,0.01953125,59.453125,0)" xlink:href="#W"/><use transform="matrix(0.01953125,0,0,0.01953125,94.4921875,0)" xlink:href="#O"/><use transform="matrix(0.01953125,0,0,0.01953125,118.4765625,0)" xlink:href="#G"/><use transform="matrix(0.01953125,0,0,0.01953125,134.16015625,0)" xlink:href="#K"/><use transform="matrix(0.01953125,0,0,0.01953125,156.640625,0)" xlink:href="#X"/></g><path d="M180 0v-1490h510c348 0 508 194 508 460 0 198-88 351-276 417L1256 0h-220L726-579c-117 2-238 0-356 1V0H180zm190-747h312c235 0 327-108 327-283 0-177-92-293-329-293H370v576" id="Y"/><path d="M158 418v-1536h174v179h20c37-59 106-193 324-193 279 0 474 222 474 576 0 356-194 580-473 580-213 0-288-135-325-197h-14v591H158zm492-555c209 0 317-186 317-421 0-232-105-413-317-413-206 0-314 166-314 413 0 249 111 421 314 421" id="Z"/><g id="g"><use transform="matrix(0.01953125,0,0,0.01953125,0,0)" xlink:href="#Y"/><use transform="matrix(0.01953125,0,0,0.01953125,25.15625,0)" xlink:href="#I"/><use transform="matrix(0.01953125,0,0,0.01953125,48.4765625,0)" xlink:href="#Z"/><use transform="matrix(0.01953125,0,0,0.01953125,72.96875,0)" xlink:href="#H"/><use transform="matrix(0.01953125,0,0,0.01953125,82.65625,0)" xlink:href="#F"/><use transform="matrix(0.01953125,0,0,0.01953125,105.1171875,0)" xlink:href="#L"/></g><path d="M789 20c-398 0-667-293-667-764 0-473 273-766 655-766 315 0 558 198 612 487h-196c-61-191-204-311-415-311-262 0-471 207-471 590 0 380 208 588 482 588 249 0 420-165 425-427H828v-166h572v163c0 370-256 606-611 606" id="aa"/><path d="M577 24c-279 0-473-224-473-580 0-354 195-576 474-576 218 0 287 134 324 193h14v-551h180V0H922v-173h-20C865-111 790 24 577 24zm27-161c203 0 314-172 314-421 0-247-108-413-314-413-212 0-317 181-317 413 0 235 108 421 317 421" id="ab"/><g id="h"><use transform="matrix(0.01953125,0,0,0.01953125,0,0)" xlink:href="#aa"/><use transform="matrix(0.01953125,0,0,0.01953125,29.84375,0)" xlink:href="#S"/><use transform="matrix(0.01953125,0,0,0.01953125,53.49609375,0)" xlink:href="#F"/><use transform="matrix(0.01953125,0,0,0.01953125,75.95703125,0)" xlink:href="#G"/><use transform="matrix(0.01953125,0,0,0.01953125,90.3515625,0)" xlink:href="#ab"/></g><g id="i"><use transform="matrix(0.01953125,0,0,0.01953125,0,0)" xlink:href="#J"/><use transform="matrix(0.01953125,0,0,0.01953125,25.6640625,0)" xlink:href="#I"/><use transform="matrix(0.01953125,0,0,0.01953125,48.984375,0)" xlink:href="#R"/><use transform="matrix(0.01953125,0,0,0.01953125,73.4765625,0)" xlink:href="#S"/><use transform="matrix(0.01953125,0,0,0.01953125,97.12890625,0)" xlink:href="#I"/><use transform="matrix(0.01953125,0,0,0.01953125,120.44921875,0)" xlink:href="#L"/><use transform="matrix(0.01953125,0,0,0.01953125,144.08203125,0)" xlink:href="#M"/><use transform="matrix(0.01953125,0,0,0.01953125,166.93359375,0)" xlink:href="#I"/></g><path d="M370-1490V0H180v-1490h190" id="ac"/><path d="M598-1118v154H368v674c0 100 37 144 132 144 23 0 62-6 92-12L629-6c-37 13-88 20-134 20-193 0-307-107-307-290v-688H20v-154h168v-266h180v266h230" id="ad"/><g id="j"><use transform="matrix(0.01953125,0,0,0.01953125,0,0)" xlink:href="#ac"/><use transform="matrix(0.01953125,0,0,0.01953125,10.7421875,0)" xlink:href="#L"/><use transform="matrix(0.01953125,0,0,0.01953125,34.375,0)" xlink:href="#ad"/><use transform="matrix(0.01953125,0,0,0.01953125,47.0703125,0)" xlink:href="#I"/><use transform="matrix(0.01953125,0,0,0.01953125,70.390625,0)" xlink:href="#G"/><use transform="matrix(0.01953125,0,0,0.01953125,86.07421875,0)" xlink:href="#G"/><use transform="matrix(0.01953125,0,0,0.01953125,101.1328125,0)" xlink:href="#S"/><use transform="matrix(0.01953125,0,0,0.01953125,124.78515625,0)" xlink:href="#Z"/><use transform="matrix(0.01953125,0,0,0.01953125,149.27734375,0)" xlink:href="#ad"/></g><path d="M677 24c-213 0-288-135-325-197h-20V0H158v-1490h180v551h14c37-59 106-193 324-193 279 0 474 222 474 576 0 356-194 580-473 580zm-27-161c209 0 317-186 317-421 0-232-105-413-317-413-206 0-314 166-314 413 0 249 111 421 314 421" id="ae"/><g id="k"><use transform="matrix(0.01953125,0,0,0.01953125,0,0)" xlink:href="#Y"/><use transform="matrix(0.01953125,0,0,0.01953125,25.15625,0)" xlink:href="#O"/><use transform="matrix(0.01953125,0,0,0.01953125,49.140625,0)" xlink:href="#ae"/><use transform="matrix(0.01953125,0,0,0.01953125,73.6328125,0)" xlink:href="#O"/><use transform="matrix(0.01953125,0,0,0.01953125,97.6171875,0)" xlink:href="#ad"/></g><path d="M538 24C308 24 148-78 108-271l171-41c32 123 123 178 257 178 156 0 256-77 256-169 0-77-54-128-164-154l-186-44c-203-48-300-148-300-305 0-192 176-326 414-326 230 0 351 112 402 269l-163 42c-31-80-94-158-238-158-133 0-233 69-233 162 0 83 57 129 188 160l169 40c203 48 298 149 298 302 0 196-179 339-441 339" id="af"/><g id="l"><use transform="matrix(0.01953125,0,0,0.01953125,0,0)" xlink:href="#Y"/><use transform="matrix(0.01953125,0,0,0.01953125,25.15625,0)" xlink:href="#I"/><use transform="matrix(0.01953125,0,0,0.01953125,48.4765625,0)" xlink:href="#H"/><use transform="matrix(0.01953125,0,0,0.01953125,58.1640625,0)" xlink:href="#I"/><use transform="matrix(0.01953125,0,0,0.01953125,81.875,0)" xlink:href="#F"/><use transform="matrix(0.01953125,0,0,0.01953125,104.3359375,0)" xlink:href="#af"/><use transform="matrix(0.01953125,0,0,0.01953125,125.44921875,0)" xlink:href="#I"/></g><path d="M784 20c-382 0-662-292-662-764 0-473 280-766 662-766s660 293 660 766c0 472-278 764-660 764zm0-176c266 0 475-207 475-588 0-383-209-590-475-590-268 0-477 208-477 590 0 380 209 588 477 588" id="ag"/><g id="m"><use transform="matrix(0.01953125,0,0,0.01953125,0,0)" xlink:href="#ag"/><use transform="matrix(0.01953125,0,0,0.01953125,30.5859375,0)" xlink:href="#ae"/><use transform="matrix(0.01953125,0,0,0.01953125,55.078125,0)" xlink:href="#af"/><use transform="matrix(0.01953125,0,0,0.01953125,76.19140625,0)" xlink:href="#ad"/><use transform="matrix(0.01953125,0,0,0.01953125,89.47265625,0)" xlink:href="#F"/><use transform="matrix(0.01953125,0,0,0.01953125,111.93359375,0)" xlink:href="#M"/><use transform="matrix(0.01953125,0,0,0.01953125,134.78515625,0)" xlink:href="#H"/><use transform="matrix(0.01953125,0,0,0.01953125,144.47265625,0)" xlink:href="#I"/></g><path d="M783 20c-382 0-661-292-661-764 0-473 279-766 661-766 302 0 548 182 601 489h-190c-42-204-217-313-411-313-268 0-476 208-476 590 0 381 209 588 476 588 195 0 369-110 411-313h190c-52 303-296 489-601 489" id="ah"/><g id="n"><use transform="matrix(0.01953125,0,0,0.01953125,0,0)" xlink:href="#ah"/><use transform="matrix(0.01953125,0,0,0.01953125,29.21875,0)" xlink:href="#O"/><use transform="matrix(0.01953125,0,0,0.01953125,53.203125,0)" xlink:href="#W"/><use transform="matrix(0.01953125,0,0,0.01953125,88.2421875,0)" xlink:href="#Z"/><use transform="matrix(0.01953125,0,0,0.01953125,112.734375,0)" xlink:href="#S"/><use transform="matrix(0.01953125,0,0,0.01953125,136.38671875,0)" xlink:href="#ad"/><use transform="matrix(0.01953125,0,0,0.01953125,149.08203125,0)" xlink:href="#I"/></g><g id="o"><use transform="matrix(0.01953125,0,0,0.01953125,0,0)" xlink:href="#E"/><use transform="matrix(0.01953125,0,0,0.01953125,25.546875,0)" xlink:href="#H"/><use transform="matrix(0.01953125,0,0,0.01953125,35.234375,0)" xlink:href="#F"/><use transform="matrix(0.01953125,0,0,0.01953125,57.6953125,0)" xlink:href="#L"/></g><g id="p"><use transform="matrix(0.01953125,0,0,0.01953125,0,0)" xlink:href="#T"/><use transform="matrix(0.01953125,0,0,0.01953125,14.58984375,0)" xlink:href="#U"/><use transform="matrix(0.01953125,0,0,0.01953125,44.7265625,0)" xlink:href="#O"/></g><g id="q"><use transform="matrix(0.01953125,0,0,0.01953125,0,0)" xlink:href="#V"/><use transform="matrix(0.01953125,0,0,0.01953125,36.1328125,0)" xlink:href="#I"/><use transform="matrix(0.01953125,0,0,0.01953125,59.453125,0)" xlink:href="#W"/><use transform="matrix(0.01953125,0,0,0.01953125,94.4921875,0)" xlink:href="#O"/><use transform="matrix(0.01953125,0,0,0.01953125,118.4765625,0)" xlink:href="#G"/><use transform="matrix(0.01953125,0,0,0.01953125,134.16015625,0)" xlink:href="#K"/><use transform="matrix(0.01953125,0,0,0.01953125,156.640625,0)" xlink:href="#X"/></g><path d="M763 24c-353 0-583-224-583-531v-983h190v968c0 214 149 370 393 370 243 0 391-156 391-370v-968h190v983c0 307-230 531-581 531" id="ai"/><g id="r"><use transform="matrix(0.01953125,0,0,0.01953125,0,0)" xlink:href="#ai"/><use transform="matrix(0.01953125,0,0,0.01953125,29.765625,0)" xlink:href="#Z"/><use transform="matrix(0.01953125,0,0,0.01953125,54.2578125,0)" xlink:href="#ab"/><use transform="matrix(0.01953125,0,0,0.01953125,78.75,0)" xlink:href="#F"/><use transform="matrix(0.01953125,0,0,0.01953125,101.2109375,0)" xlink:href="#ad"/><use transform="matrix(0.01953125,0,0,0.01953125,113.90625,0)" xlink:href="#I"/></g><g id="s"><use transform="matrix(0.01953125,0,0,0.01953125,0,0)" xlink:href="#E"/><use transform="matrix(0.01953125,0,0,0.01953125,25.546875,0)" xlink:href="#H"/><use transform="matrix(0.01953125,0,0,0.01953125,35.234375,0)" xlink:href="#F"/><use transform="matrix(0.01953125,0,0,0.01953125,57.6953125,0)" xlink:href="#L"/></g><g id="t"><use transform="matrix(0.01953125,0,0,0.01953125,0,0)" xlink:href="#J"/><use transform="matrix(0.01953125,0,0,0.01953125,25.6640625,0)" xlink:href="#I"/><use transform="matrix(0.01953125,0,0,0.01953125,48.984375,0)" xlink:href="#H"/><use transform="matrix(0.01953125,0,0,0.01953125,58.671875,0)" xlink:href="#I"/><use transform="matrix(0.01953125,0,0,0.01953125,81.9921875,0)" xlink:href="#M"/><use transform="matrix(0.01953125,0,0,0.01953125,104.84375,0)" xlink:href="#ad"/><use transform="matrix(0.01953125,0,0,0.01953125,117.5390625,0)" xlink:href="#O"/><use transform="matrix(0.01953125,0,0,0.01953125,141.5234375,0)" xlink:href="#G"/></g><g id="u"><use transform="matrix(0.01953125,0,0,0.01953125,0,0)" xlink:href="#ag"/><use transform="matrix(0.01953125,0,0,0.01953125,30.5859375,0)" xlink:href="#ae"/><use transform="matrix(0.01953125,0,0,0.01953125,55.078125,0)" xlink:href="#af"/><use transform="matrix(0.01953125,0,0,0.01953125,76.19140625,0)" xlink:href="#ad"/><use transform="matrix(0.01953125,0,0,0.01953125,89.47265625,0)" xlink:href="#F"/><use transform="matrix(0.01953125,0,0,0.01953125,111.93359375,0)" xlink:href="#M"/><use transform="matrix(0.01953125,0,0,0.01953125,134.78515625,0)" xlink:href="#H"/><use transform="matrix(0.01953125,0,0,0.01953125,144.47265625,0)" xlink:href="#I"/></g><path d="M180 0v-1490h908v168H370v486h669v168H370v500h727V0H180" id="aj"/><path d="M65 0l393-574-370-544h210c88 136 192 297 267 435 67-142 176-302 264-435h206L661-564 1053 0H844c-94-144-206-310-287-458C484-308 366-142 273 0H65" id="ak"/><g id="v"><use transform="matrix(0.01953125,0,0,0.01953125,0,0)" xlink:href="#aj"/><use transform="matrix(0.01953125,0,0,0.01953125,24.04296875,0)" xlink:href="#ak"/><use transform="matrix(0.01953125,0,0,0.01953125,44.98046875,0)" xlink:href="#I"/><use transform="matrix(0.01953125,0,0,0.01953125,68.30078125,0)" xlink:href="#M"/><use transform="matrix(0.01953125,0,0,0.01953125,91.15234375,0)" xlink:href="#S"/><use transform="matrix(0.01953125,0,0,0.01953125,114.8046875,0)" xlink:href="#ad"/><use transform="matrix(0.01953125,0,0,0.01953125,127.5,0)" xlink:href="#I"/></g><g id="w"><use transform="matrix(0.01953125,0,0,0.01953125,0,0)" xlink:href="#E"/><use transform="matrix(0.01953125,0,0,0.01953125,25.546875,0)" xlink:href="#H"/><use transform="matrix(0.01953125,0,0,0.01953125,35.234375,0)" xlink:href="#F"/><use transform="matrix(0.01953125,0,0,0.01953125,57.6953125,0)" xlink:href="#L"/></g><path d="M458 0L52-1490h194c108 439 233 855 324 1313 92-459 221-873 331-1313h216c110 438 234 854 330 1307 92-455 216-869 323-1307h196L1558 0h-221l-256-944c-26-95-50-200-73-331-22 122-44 223-73 331L680 0H458" id="al"/><g id="x"><use transform="matrix(0.01953125,0,0,0.01953125,0,0)" xlink:href="#al"/><use transform="matrix(0.01953125,0,0,0.01953125,37.3828125,0)" xlink:href="#F"/><use transform="matrix(0.01953125,0,0,0.01953125,59.84375,0)" xlink:href="#P"/><use transform="matrix(0.01953125,0,0,0.01953125,69.53125,0)" xlink:href="#ad"/></g><path d="M678-1118v154H420V0H240v-964H20v-154h220v-149c0-194 155-293 318-293 85 0 141 18 168 30l-50 154c-19-6-47-17-97-17-111 0-159 58-159 166v109h258" id="am"/><g id="y"><use transform="matrix(0.01953125,0,0,0.01953125,0,0)" xlink:href="#am"/><use transform="matrix(0.01953125,0,0,0.01953125,13.6328125,0)" xlink:href="#O"/><use transform="matrix(0.01953125,0,0,0.01953125,37.6171875,0)" xlink:href="#G"/></g><g id="z"><use transform="matrix(0.01953125,0,0,0.01953125,0,0)" xlink:href="#ac"/><use transform="matrix(0.01953125,0,0,0.01953125,10.7421875,0)" xlink:href="#L"/><use transform="matrix(0.01953125,0,0,0.01953125,34.375,0)" xlink:href="#P"/><use transform="matrix(0.01953125,0,0,0.01953125,44.0625,0)" xlink:href="#ad"/></g><g id="A"><use transform="matrix(0.01953125,0,0,0.01953125,0,0)" xlink:href="#E"/><use transform="matrix(0.01953125,0,0,0.01953125,25.33203125,0)" xlink:href="#O"/><use transform="matrix(0.01953125,0,0,0.01953125,49.31640625,0)" xlink:href="#af"/><use transform="matrix(0.01953125,0,0,0.01953125,70.4296875,0)" xlink:href="#I"/></g><g id="B"><use transform="matrix(0.01953125,0,0,0.01953125,0,0)" xlink:href="#aa"/><use transform="matrix(0.01953125,0,0,0.01953125,29.84375,0)" xlink:href="#O"/><use transform="matrix(0.01953125,0,0,0.01953125,54.21875,0)" xlink:href="#F"/><use transform="matrix(0.01953125,0,0,0.01953125,76.6796875,0)" xlink:href="#H"/></g><path d="M409 0L70-1118h191c89 329 165 560 243 925 75-353 154-601 240-925h192c85 325 161 564 235 922 77-354 157-598 244-922h191L1267 0h-179c-86-307-176-590-250-913C763-588 675-308 588 0H409" id="an"/><g id="C"><use transform="matrix(0.01953125,0,0,0.01953125,0,0)" xlink:href="#U"/><use transform="matrix(0.01953125,0,0,0.01953125,30.13671875,0)" xlink:href="#I"/><use transform="matrix(0.01953125,0,0,0.01953125,52.734375,0)" xlink:href="#an"/></g><path d="M481 0L54-1118h197c107 314 236 620 325 951 87-331 217-637 324-951h197L670 0H481" id="ao"/><g id="D"><use transform="matrix(0.01953125,0,0,0.01953125,0,0)" xlink:href="#V"/><use transform="matrix(0.01953125,0,0,0.01953125,36.1328125,0)" xlink:href="#O"/><use transform="matrix(0.01953125,0,0,0.01953125,59.3359375,0)" xlink:href="#ao"/><use transform="matrix(0.01953125,0,0,0.01953125,81.62109375,0)" xlink:href="#F"/><use transform="matrix(0.01953125,0,0,0.01953125,104.08203125,0)" xlink:href="#ae"/><use transform="matrix(0.01953125,0,0,0.01953125,128.57421875,0)" xlink:href="#H"/><use transform="matrix(0.01953125,0,0,0.01953125,138.26171875,0)" xlink:href="#I"/></g></defs></g></svg>