<svg xmlns="http://www.w3.org/2000/svg" xmlns:xlink="http://www.w3.org/1999/xlink" xmlns:lucid="lucid" width="1037" height="362"><g transform="translate(-559 -399)" lucid:page-tab-id="0_0"><path d="M500 0h1500v1000H500z" fill="#fff"/><path d="M735.74 406a6 6 0 0 1 6-6h488a6 6 0 0 1 6 6v89.44a6 6 0 0 1-6 6h-488a6 6 0 0 1-6-6z" stroke="#000" stroke-width="2" fill="#fcfcca"/><use xlink:href="#a" transform="matrix(1,0,0,1,747.7396989476492,412) translate(62.86328125 53.375)"/><use xlink:href="#b" transform="matrix(1,0,0,1,747.7396989476492,412) translate(222.8828125 53.375)"/><path d="M1051.48 662.96c26.8 0 48.52 21.72 48.52 48.52 0 26.8-21.72 48.52-48.52 48.52H913.52c-26.8 0-48.52-21.72-48.52-48.52 0-26.8 21.72-48.52 48.52-48.52z" stroke="#000" stroke-width="2" fill="#e3fae3"/><use xlink:href="#c" transform="matrix(1,0,0,1,870,667.961062791666) translate(33.03234375 58)"/><use xlink:href="#d" transform="matrix(1,0,0,1,870,667.961062791666) translate(137.71984375 58)"/><path d="M985.3 502.68L706.9 654.13" stroke="#3a414a" fill="none"/><path d="M985.52 503.1l-.36-.66h1.57z" stroke="#3a414a" stroke-width=".05" fill="#3a414a"/><path d="M693.92 661.2l10.32-10.9 4.43 8.14z" stroke="#3a414a" fill="#3a414a"/><path d="M985.74 502.94v142.64" stroke="#3a414a" fill="none"/><path d="M986.2 502.95h-.94v-.5h.96z" stroke="#3a414a" stroke-width=".05" fill="#3a414a"/><path d="M985.74 660.34l-4.64-14.26h9.27z" stroke="#3a414a" fill="#3a414a"/><path d="M776.48 662.96c26.8 0 48.52 21.72 48.52 48.52 0 26.8-21.72 48.52-48.52 48.52H608.52c-26.8 0-48.52-21.72-48.52-48.52 0-26.8 21.72-48.52 48.52-48.52z" stroke="#000" stroke-width="2" fill="#e3fae3"/><use xlink:href="#e" transform="matrix(1,0,0,1,565,667.961062791666) translate(53.120234375 58)"/><path d="M1546.48 662.96c26.8 0 48.52 21.72 48.52 48.52 0 26.8-21.72 48.52-48.52 48.52h-357.96c-26.8 0-48.52-21.72-48.52-48.52 0-26.8 21.72-48.52 48.52-48.52z" stroke="#000" stroke-width="2" fill="#e3fae3"/><use xlink:href="#f" transform="matrix(1,0,0,1,1145,667.961062791666) translate(16.225703125000003 58)"/><use xlink:href="#g" transform="matrix(1,0,0,1,1145,667.961062791666) translate(155.112421875 58)"/><use xlink:href="#h" transform="matrix(1,0,0,1,1145,667.961062791666) translate(334.155390625 58)"/><path d="M986.2 502.63l366.18 153" stroke="#3a414a" fill="none"/><path d="M986.03 503.08l-1.52-.64h1.8z" stroke="#3a414a" stroke-width=".05" fill="#3a414a"/><path d="M1366 661.34l-14.94-1.23 3.57-8.54z" stroke="#3a414a" fill="#3a414a"/><defs><path d="M180 0v-1490h510c348 0 508 194 508 460 0 198-88 351-276 417L1256 0h-220L726-579c-117 2-238 0-356 1V0H180zm190-747h312c235 0 327-108 327-283 0-177-92-293-329-293H370v576" id="i"/><path d="M628 24c-324 0-524-230-524-574 0-343 198-582 503-582 237 0 487 146 487 559v75H286c9 234 145 362 343 362 132 0 231-58 273-172l174 48C1024-91 857 24 628 24zM287-650h624c-17-190-120-322-304-322-192 0-309 151-320 322" id="j"/><path d="M338-1490V0H158v-1490h180" id="k"/><path d="M471 26C259 26 90-98 90-318c0-256 228-303 435-329 202-27 287-16 287-108 0-139-79-219-234-219-161 0-248 86-283 164l-173-57c86-203 278-265 451-265 150 0 419 46 419 395V0H815v-152h-12C765-73 660 26 471 26zm31-159c199 0 310-134 310-271v-155c-30 35-226 55-295 64-131 17-246 59-246 186 0 116 97 176 231 176" id="l"/><path d="M538 24C308 24 148-78 108-271l171-41c32 123 123 178 257 178 156 0 256-77 256-169 0-77-54-128-164-154l-186-44c-203-48-300-148-300-305 0-192 176-326 414-326 230 0 351 112 402 269l-163 42c-31-80-94-158-238-158-133 0-233 69-233 162 0 83 57 129 188 160l169 40c203 48 298 149 298 302 0 196-179 339-441 339" id="m"/><g id="a"><use transform="matrix(0.01953125,0,0,0.01953125,0,0)" xlink:href="#i"/><use transform="matrix(0.01953125,0,0,0.01953125,25.15625,0)" xlink:href="#j"/><use transform="matrix(0.01953125,0,0,0.01953125,48.4765625,0)" xlink:href="#k"/><use transform="matrix(0.01953125,0,0,0.01953125,58.1640625,0)" xlink:href="#j"/><use transform="matrix(0.01953125,0,0,0.01953125,81.875,0)" xlink:href="#l"/><use transform="matrix(0.01953125,0,0,0.01953125,104.3359375,0)" xlink:href="#m"/><use transform="matrix(0.01953125,0,0,0.01953125,125.44921875,0)" xlink:href="#j"/></g><path d="M657 26c-323 0-524-166-541-416h195c15 169 171 246 346 246 202 0 356-106 356-265 5-203-294-238-475-293-239-73-380-191-380-389 0-252 224-419 512-419 294 0 499 171 508 396H992c-17-145-151-228-328-228-193 0-321 102-321 242 0 156 175 211 284 241l149 41c160 44 422 134 422 412 0 244-197 432-541 432" id="n"/><path d="M1096 418H916v-591h-14C865-111 790 24 577 24c-279 0-473-224-473-580 0-354 195-576 474-576 218 0 287 134 324 193h20v-179h174V418zM604-137c203 0 314-172 314-421 0-247-108-413-314-413-212 0-317 181-317 413 0 235 108 421 317 421" id="o"/><path d="M537 14c-226 0-379-139-379-422v-710h180v695c0 172 97 275 253 275 160 0 281-109 281-300v-670h181V0H879v-209C806-46 684 14 537 14" id="p"/><path d="M338-670V0H158v-1118h173l1 207c72-158 192-221 342-221 226 0 378 139 378 422V0H872v-695c0-172-96-275-252-275-161 0-282 109-282 300" id="q"/><path d="M613 24c-304 0-509-231-509-576 0-350 205-580 509-580 216 0 392 114 453 309l-173 49c-33-115-133-197-280-197-223 0-326 196-326 419 0 220 103 415 326 415 150 0 252-85 285-206l172 49C1010-95 832 24 613 24" id="r"/><g id="b"><use transform="matrix(0.01953125,0,0,0.01953125,0,0)" xlink:href="#n"/><use transform="matrix(0.01953125,0,0,0.01953125,25.6640625,0)" xlink:href="#j"/><use transform="matrix(0.01953125,0,0,0.01953125,48.984375,0)" xlink:href="#o"/><use transform="matrix(0.01953125,0,0,0.01953125,73.4765625,0)" xlink:href="#p"/><use transform="matrix(0.01953125,0,0,0.01953125,97.12890625,0)" xlink:href="#j"/><use transform="matrix(0.01953125,0,0,0.01953125,120.44921875,0)" xlink:href="#q"/><use transform="matrix(0.01953125,0,0,0.01953125,144.08203125,0)" xlink:href="#r"/><use transform="matrix(0.01953125,0,0,0.01953125,166.93359375,0)" xlink:href="#j"/></g><path d="M180 0v-1490h528c311 0 458 177 458 395 0 191-114 278-244 313v14c139 9 302 137 302 371 0 225-148 397-499 397H180zm190-168h350c232 0 321-102 321-231 0-149-120-277-311-277H370v508zm0-668h328c160 0 286-101 286-255 0-129-87-231-280-231H370v486" id="s"/><path d="M158 0v-1490h180v865h22l478-493h223L593-638 1096 0H865L456-523 338-412V0H158" id="t"/><g id="c"><use transform="matrix(0.01953125,0,0,0.01953125,0,0)" xlink:href="#s"/><use transform="matrix(0.01953125,0,0,0.01953125,26.171875,0)" xlink:href="#l"/><use transform="matrix(0.01953125,0,0,0.01953125,48.6328125,0)" xlink:href="#r"/><use transform="matrix(0.01953125,0,0,0.01953125,71.484375,0)" xlink:href="#t"/></g><path d="M763 24c-353 0-583-224-583-531v-983h190v968c0 214 149 370 393 370 243 0 391-156 391-370v-968h190v983c0 307-230 531-581 531" id="u"/><path d="M158 418v-1536h174v179h20c37-59 106-193 324-193 279 0 474 222 474 576 0 356-194 580-473 580-213 0-288-135-325-197h-14v591H158zm492-555c209 0 317-186 317-421 0-232-105-413-317-413-206 0-314 166-314 413 0 249 111 421 314 421" id="v"/><g id="d"><use transform="matrix(0.01953125,0,0,0.01953125,0,0)" xlink:href="#u"/><use transform="matrix(0.01953125,0,0,0.01953125,29.765625,0)" xlink:href="#v"/></g><g id="e"><use transform="matrix(0.01953125,0,0,0.01953125,0,0)" xlink:href="#i"/><use transform="matrix(0.01953125,0,0,0.01953125,25.15625,0)" xlink:href="#j"/><use transform="matrix(0.01953125,0,0,0.01953125,48.4765625,0)" xlink:href="#k"/><use transform="matrix(0.01953125,0,0,0.01953125,58.1640625,0)" xlink:href="#j"/><use transform="matrix(0.01953125,0,0,0.01953125,81.875,0)" xlink:href="#l"/><use transform="matrix(0.01953125,0,0,0.01953125,104.3359375,0)" xlink:href="#m"/><use transform="matrix(0.01953125,0,0,0.01953125,125.44921875,0)" xlink:href="#j"/></g><path d="M180 0v-1490h908v168H370v486h669v168H370v500h727V0H180" id="w"/><path d="M677 24c-213 0-288-135-325-197h-20V0H158v-1490h180v551h14c37-59 106-193 324-193 279 0 474 222 474 576 0 356-194 580-473 580zm-27-161c209 0 317-186 317-421 0-232-105-413-317-413-206 0-314 166-314 413 0 249 111 421 314 421" id="x"/><g id="f"><use transform="matrix(0.01953125,0,0,0.01953125,0,0)" xlink:href="#w"/><use transform="matrix(0.01953125,0,0,0.01953125,24.04296875,0)" xlink:href="#q"/><use transform="matrix(0.01953125,0,0,0.01953125,47.67578125,0)" xlink:href="#l"/><use transform="matrix(0.01953125,0,0,0.01953125,70.13671875,0)" xlink:href="#x"/><use transform="matrix(0.01953125,0,0,0.01953125,94.62890625,0)" xlink:href="#k"/><use transform="matrix(0.01953125,0,0,0.01953125,104.31640625,0)" xlink:href="#j"/></g><path d="M784 20c-382 0-662-292-662-764 0-473 280-766 662-766s660 293 660 766c0 472-278 764-660 764zm0-176c266 0 475-207 475-588 0-383-209-590-475-590-268 0-477 208-477 590 0 380 209 588 477 588" id="y"/><path d="M598-1118v154H368v674c0 100 37 144 132 144 23 0 62-6 92-12L629-6c-37 13-88 20-134 20-193 0-307-107-307-290v-688H20v-154h168v-266h180v266h230" id="z"/><g id="g"><use transform="matrix(0.01953125,0,0,0.01953125,0,0)" xlink:href="#y"/><use transform="matrix(0.01953125,0,0,0.01953125,30.5859375,0)" xlink:href="#x"/><use transform="matrix(0.01953125,0,0,0.01953125,55.078125,0)" xlink:href="#m"/><use transform="matrix(0.01953125,0,0,0.01953125,76.19140625,0)" xlink:href="#z"/><use transform="matrix(0.01953125,0,0,0.01953125,89.47265625,0)" xlink:href="#l"/><use transform="matrix(0.01953125,0,0,0.01953125,111.93359375,0)" xlink:href="#r"/><use transform="matrix(0.01953125,0,0,0.01953125,134.78515625,0)" xlink:href="#k"/><use transform="matrix(0.01953125,0,0,0.01953125,144.47265625,0)" xlink:href="#j"/></g><path d="M140 405l46-156c120 36 205 19 263-150l32-93L54-1118h197c107 313 237 620 324 950 87-331 219-637 326-950h196L606 167c-68 178-176 259-334 259-64 0-113-12-132-21" id="A"/><g id="h"><use transform="matrix(0.01953125,0,0,0.01953125,0,0)" xlink:href="#n"/><use transform="matrix(0.01953125,0,0,0.01953125,25.6640625,0)" xlink:href="#A"/><use transform="matrix(0.01953125,0,0,0.01953125,48.14453125,0)" xlink:href="#q"/><use transform="matrix(0.01953125,0,0,0.01953125,71.77734375,0)" xlink:href="#r"/></g></defs></g></svg>