<svg xmlns="http://www.w3.org/2000/svg" xmlns:xlink="http://www.w3.org/1999/xlink" xmlns:lucid="lucid" width="1322" height="902"><g transform="translate(121 -1139)" lucid:page-tab-id="0_0"><path d="M-500 1000h2000v1500H-500z" fill="#fff"/><path d="M380 1146a6 6 0 0 1 6-6h488a6 6 0 0 1 6 6v89.44a6 6 0 0 1-6 6H386a6 6 0 0 1-6-6z" stroke="#000" stroke-width="2" fill="#fcfcca"/><use xlink:href="#a" transform="matrix(1,0,0,1,392.0000000000001,1152) translate(59.38671875 53.375)"/><use xlink:href="#b" transform="matrix(1,0,0,1,392.0000000000001,1152) translate(192.0234375 53.375)"/><use xlink:href="#c" transform="matrix(1,0,0,1,392.0000000000001,1152) translate(331.8671875 53.375)"/><path d="M144.43 1640c30.7 0 55.57 24.88 55.57 55.58s-24.88 55.57-55.57 55.57H-64.44c-30.7 0-55.57-24.88-55.57-55.58S-95.12 1640-64.42 1640z" stroke="#000" stroke-width="2" fill="#e3fae3"/><use xlink:href="#d" transform="matrix(1,0,0,1,-115,1645) translate(8.120234375000004 64.25)"/><use xlink:href="#e" transform="matrix(1,0,0,1,-115,1645) translate(187.046015625 64.25)"/><path d="M1151.48 1430.66c26.8 0 48.52 21.73 48.52 48.52 0 26.8-21.72 48.52-48.52 48.52H908.52c-26.8 0-48.52-21.72-48.52-48.52 0-26.8 21.72-48.52 48.52-48.52z" stroke="#000" stroke-width="2" fill="#e3fae3"/><use xlink:href="#a" transform="matrix(1,0,0,1,865,1435.664864125) translate(56.31359375 58)"/><use xlink:href="#c" transform="matrix(1,0,0,1,865,1435.664864125) translate(188.9503125 58)"/><path d="M125.1 1432.44a13.05 13.05 0 0 1 9.9-4.55h120a13.05 13.05 0 0 1 9.9 4.54l36.2 42.2a7 7 0 0 1 0 9.1l-36.2 42.2a13.05 13.05 0 0 1-9.9 4.54H135a13.05 13.05 0 0 1-9.9-4.55l-36.2-42.2a7 7 0 0 1 0-9.1z" stroke="#000" stroke-width="2" fill="#fff0f0"/><use xlink:href="#f" transform="matrix(1,0,0,1,90.00000000000011,1432.8880837708336) translate(26.713984375000006 62)"/><path d="M194.6 1531.77l-141.14 97.9" stroke="#3a414a" fill="none"/><path d="M194.85 1532.16l-.47-.68h1.45z" stroke="#3a414a" stroke-width=".05" fill="#3a414a"/><path d="M41.33 1638.08l9.08-11.94 5.3 7.62z" stroke="#3a414a" fill="#3a414a"/><path d="M629.54 1242.64L210.08 1420.5" stroke="#3a414a" fill="none"/><path d="M629.7 1243.08l-.26-.64h1.78z" stroke="#3a414a" stroke-width=".05" fill="#3a414a"/><path d="M196.5 1426.26l11.3-9.84 3.63 8.53z" stroke="#3a414a" fill="#3a414a"/><path d="M240 1646a6 6 0 0 1 6-6h208a6 6 0 0 1 6 6v90.6a6 6 0 0 1-6 6H246a6 6 0 0 1-6-6z" stroke="#000" stroke-width="2" fill="#fcfcca"/><use xlink:href="#g" transform="matrix(1,0,0,1,252,1652) translate(2.873046875 53.5625)"/><path d="M195.4 1531.77l141.14 97.9" stroke="#3a414a" fill="none"/><path d="M195.15 1532.16l-.98-.68h1.45z" stroke="#3a414a" stroke-width=".05" fill="#3a414a"/><path d="M348.67 1638.08l-14.36-4.32 5.3-7.62z" stroke="#3a414a" fill="#3a414a"/><path d="M261.06 1922.12c32.55 0 58.94 26.4 58.94 58.94 0 32.55-26.4 58.94-58.94 58.94H-61.06c-32.55 0-58.94-26.4-58.94-58.94 0-32.55 26.4-58.94 58.94-58.94z" stroke="#000" stroke-width="2" fill="#e3fae3"/><use xlink:href="#h" transform="matrix(1,0,0,1,-114.99999999999997,1927.1222079082747) translate(51.09875 69.125)"/><use xlink:href="#i" transform="matrix(1,0,0,1,-114.99999999999997,1927.1222079082747) translate(211.11828125 69.125)"/><path d="M349.6 1743.88l-236.24 167.76" stroke="#3a414a" fill="none"/><path d="M349.86 1744.28l-.5-.7h1.46z" stroke="#3a414a" stroke-width=".05" fill="#3a414a"/><path d="M101.32 1920.18l8.95-12.03 5.36 7.55z" stroke="#3a414a" fill="#3a414a"/><path d="M681.06 1922.12c32.55 0 58.94 26.4 58.94 58.94 0 32.55-26.4 58.94-58.94 58.94H421.44c-32.55 0-58.94-26.4-58.94-58.94 0-32.55 26.4-58.94 58.94-58.94z" stroke="#000" stroke-width="2" fill="#e3fae3"/><use xlink:href="#j" transform="matrix(1,0,0,1,367.5,1927.1222079082747) translate(45.82140625 69.125)"/><use xlink:href="#k" transform="matrix(1,0,0,1,367.5,1927.1222079082747) translate(193.43859375 69.125)"/><path d="M350.38 1743.92l188.58 166.36" stroke="#3a414a" fill="none"/><path d="M350.07 1744.3l-.8-.7h1.4z" stroke="#3a414a" stroke-width=".05" fill="#3a414a"/><path d="M550.04 1920.05l-13.77-5.96 6.13-6.96z" stroke="#3a414a" fill="#3a414a"/><path d="M630.45 1242.65l389.37 180.14" stroke="#3a414a" fill="none"/><path d="M630.27 1243.1l-1.4-.66h1.7z" stroke="#3a414a" stroke-width=".05" fill="#3a414a"/><path d="M1033.22 1428.98l-14.9-1.78 3.9-8.4z" stroke="#3a414a" fill="#3a414a"/><path d="M776.48 1427.9c26.8 0 48.52 21.7 48.52 48.5s-21.72 48.53-48.52 48.53H388.52c-26.8 0-48.52-21.73-48.52-48.52 0-26.8 21.72-48.5 48.52-48.5z" stroke="#000" stroke-width="2" fill="#e3fae3"/><g><use xlink:href="#l" transform="matrix(1,0,0,1,344.99999999999994,1432.8880837708334) translate(31.225703125000003 58)"/><use xlink:href="#m" transform="matrix(1,0,0,1,344.99999999999994,1432.8880837708334) translate(170.112421875 58)"/><use xlink:href="#n" transform="matrix(1,0,0,1,344.99999999999994,1432.8880837708334) translate(349.155390625 58)"/></g><path d="M629.88 1242.93l-43.3 168.1" stroke="#3a414a" fill="none"/><path d="M630.33 1243.06l-.92-.24.1-.38h1z" stroke="#3a414a" stroke-width=".05" fill="#3a414a"/><path d="M582.9 1425.32l-.93-14.97 8.98 2.3z" stroke="#3a414a" fill="#3a414a"/><defs><path d="M180 0v-1490h901v168H370v510h643v168H370V0H180" id="o"/><path d="M613 24c-304 0-509-231-509-576 0-350 205-580 509-580 305 0 511 230 511 580 0 345-206 576-511 576zm0-161c226 0 329-195 329-415 0-222-103-419-329-419-223 0-326 196-326 419 0 220 103 415 326 415" id="p"/><path d="M338-1490V0H158v-1490h180" id="q"/><path d="M409 0L70-1118h191c89 329 165 560 243 925 75-353 154-601 240-925h192c85 325 161 564 235 922 77-354 157-598 244-922h191L1267 0h-179c-86-307-176-590-250-913C763-588 675-308 588 0H409" id="r"/><g id="a"><use transform="matrix(0.01953125,0,0,0.01953125,0,0)" xlink:href="#o"/><use transform="matrix(0.01953125,0,0,0.01953125,22.03125,0)" xlink:href="#p"/><use transform="matrix(0.01953125,0,0,0.01953125,46.015625,0)" xlink:href="#q"/><use transform="matrix(0.01953125,0,0,0.01953125,55.703125,0)" xlink:href="#q"/><use transform="matrix(0.01953125,0,0,0.01953125,65.390625,0)" xlink:href="#p"/><use transform="matrix(0.01953125,0,0,0.01953125,88.65234375,0)" xlink:href="#r"/></g><path d="M98-1322v-168h1126v168H757V0H567v-1322H98" id="s"/><path d="M158 0v-1118h174v172h12c41-113 157-188 290-188 26 0 70 2 91 3v181c-11-2-60-10-108-10-161 0-279 109-279 260V0H158" id="t"/><path d="M471 26C259 26 90-98 90-318c0-256 228-303 435-329 202-27 287-16 287-108 0-139-79-219-234-219-161 0-248 86-283 164l-173-57c86-203 278-265 451-265 150 0 419 46 419 395V0H815v-152h-12C765-73 660 26 471 26zm31-159c199 0 310-134 310-271v-155c-30 35-226 55-295 64-131 17-246 59-246 186 0 116 97 176 231 176" id="u"/><path d="M338-670V0H158v-1118h173l1 207c72-158 192-221 342-221 226 0 378 139 378 422V0H872v-695c0-172-96-275-252-275-161 0-282 109-282 300" id="v"/><path d="M538 24C308 24 148-78 108-271l171-41c32 123 123 178 257 178 156 0 256-77 256-169 0-77-54-128-164-154l-186-44c-203-48-300-148-300-305 0-192 176-326 414-326 230 0 351 112 402 269l-163 42c-31-80-94-158-238-158-133 0-233 69-233 162 0 83 57 129 188 160l169 40c203 48 298 149 298 302 0 196-179 339-441 339" id="w"/><path d="M158 0v-1118h180V0H158zm91-1301c-68 0-125-53-125-119s57-119 125-119c69 0 126 53 126 119s-57 119-126 119" id="x"/><path d="M598-1118v154H368v674c0 100 37 144 132 144 23 0 62-6 92-12L629-6c-37 13-88 20-134 20-193 0-307-107-307-290v-688H20v-154h168v-266h180v266h230" id="y"/><g id="b"><use transform="matrix(0.01953125,0,0,0.01953125,0,0)" xlink:href="#s"/><use transform="matrix(0.01953125,0,0,0.01953125,23.5546875,0)" xlink:href="#t"/><use transform="matrix(0.01953125,0,0,0.01953125,38.61328125,0)" xlink:href="#u"/><use transform="matrix(0.01953125,0,0,0.01953125,61.07421875,0)" xlink:href="#v"/><use transform="matrix(0.01953125,0,0,0.01953125,84.70703125,0)" xlink:href="#w"/><use transform="matrix(0.01953125,0,0,0.01953125,105.8203125,0)" xlink:href="#x"/><use transform="matrix(0.01953125,0,0,0.01953125,115.5078125,0)" xlink:href="#y"/></g><path d="M180 0v-1490h510c348 0 508 209 508 474 0 266-160 477-507 477H370V0H180zm190-706h312c236 0 327-133 327-310 0-176-91-307-329-307H370v617" id="z"/><path d="M338-670V0H158v-1490h180v566c73-149 190-208 336-208 226 0 379 139 379 422V0H872v-695c0-172-96-275-252-275-161 0-282 109-282 300" id="A"/><g id="c"><use transform="matrix(0.01953125,0,0,0.01953125,0,0)" xlink:href="#z"/><use transform="matrix(0.01953125,0,0,0.01953125,25.546875,0)" xlink:href="#u"/><use transform="matrix(0.01953125,0,0,0.01953125,48.0078125,0)" xlink:href="#y"/><use transform="matrix(0.01953125,0,0,0.01953125,61.09375,0)" xlink:href="#A"/></g><path d="M783 20c-382 0-661-292-661-764 0-473 279-766 661-766 302 0 548 182 601 489h-190c-42-204-217-313-411-313-268 0-476 208-476 590 0 381 209 588 476 588 195 0 369-110 411-313h190c-52 303-296 489-601 489" id="B"/><path d="M678-1118v154H420V0H240v-964H20v-154h220v-149c0-194 155-293 318-293 85 0 141 18 168 30l-50 154c-19-6-47-17-97-17-111 0-159 58-159 166v109h258" id="C"/><path d="M613 24c-304 0-509-231-509-576 0-350 205-580 509-580 216 0 392 114 453 309l-173 49c-33-115-133-197-280-197-223 0-326 196-326 419 0 220 103 415 326 415 150 0 252-85 285-206l172 49C1010-95 832 24 613 24" id="D"/><g id="d"><use transform="matrix(0.01953125,0,0,0.01953125,0,0)" xlink:href="#B"/><use transform="matrix(0.01953125,0,0,0.01953125,29.21875,0)" xlink:href="#p"/><use transform="matrix(0.01953125,0,0,0.01953125,53.203125,0)" xlink:href="#v"/><use transform="matrix(0.01953125,0,0,0.01953125,76.8359375,0)" xlink:href="#C"/><use transform="matrix(0.01953125,0,0,0.01953125,91.640625,0)" xlink:href="#q"/><use transform="matrix(0.01953125,0,0,0.01953125,101.328125,0)" xlink:href="#x"/><use transform="matrix(0.01953125,0,0,0.01953125,111.015625,0)" xlink:href="#D"/><use transform="matrix(0.01953125,0,0,0.01953125,133.8671875,0)" xlink:href="#y"/><use transform="matrix(0.01953125,0,0,0.01953125,146.5625,0)" xlink:href="#w"/></g><path d="M789 20c-398 0-667-293-667-764 0-473 273-766 655-766 315 0 558 198 612 487h-196c-61-191-204-311-415-311-262 0-471 207-471 590 0 380 208 588 482 588 249 0 420-165 425-427H828v-166h572v163c0 370-256 606-611 606" id="E"/><path d="M537 14c-226 0-379-139-379-422v-710h180v695c0 172 97 275 253 275 160 0 281-109 281-300v-670h181V0H879v-209C806-46 684 14 537 14" id="F"/><path d="M577 24c-279 0-473-224-473-580 0-354 195-576 474-576 218 0 287 134 324 193h14v-551h180V0H922v-173h-20C865-111 790 24 577 24zm27-161c203 0 314-172 314-421 0-247-108-413-314-413-212 0-317 181-317 413 0 235 108 421 317 421" id="G"/><g id="e"><use transform="matrix(0.01953125,0,0,0.01953125,0,0)" xlink:href="#E"/><use transform="matrix(0.01953125,0,0,0.01953125,29.84375,0)" xlink:href="#F"/><use transform="matrix(0.01953125,0,0,0.01953125,53.49609375,0)" xlink:href="#u"/><use transform="matrix(0.01953125,0,0,0.01953125,75.95703125,0)" xlink:href="#t"/><use transform="matrix(0.01953125,0,0,0.01953125,90.3515625,0)" xlink:href="#G"/></g><path d="M657 26c-323 0-524-166-541-416h195c15 169 171 246 346 246 202 0 356-106 356-265 5-203-294-238-475-293-239-73-380-191-380-389 0-252 224-419 512-419 294 0 499 171 508 396H992c-17-145-151-228-328-228-193 0-321 102-321 242 0 156 175 211 284 241l149 41c160 44 422 134 422 412 0 244-197 432-541 432" id="H"/><path d="M628 24c-324 0-524-230-524-574 0-343 198-582 503-582 237 0 487 146 487 559v75H286c9 234 145 362 343 362 132 0 231-58 273-172l174 48C1024-91 857 24 628 24zM287-650h624c-17-190-120-322-304-322-192 0-309 151-320 322" id="I"/><g id="f"><use transform="matrix(0.01953125,0,0,0.01953125,0,0)" xlink:href="#H"/><use transform="matrix(0.01953125,0,0,0.01953125,25.6640625,0)" xlink:href="#I"/><use transform="matrix(0.01953125,0,0,0.01953125,48.984375,0)" xlink:href="#q"/><use transform="matrix(0.01953125,0,0,0.01953125,58.671875,0)" xlink:href="#I"/><use transform="matrix(0.01953125,0,0,0.01953125,81.9921875,0)" xlink:href="#D"/><use transform="matrix(0.01953125,0,0,0.01953125,104.84375,0)" xlink:href="#y"/><use transform="matrix(0.01953125,0,0,0.01953125,117.5390625,0)" xlink:href="#p"/><use transform="matrix(0.01953125,0,0,0.01953125,141.5234375,0)" xlink:href="#t"/></g><path d="M1096 418H916v-591h-14C865-111 790 24 577 24c-279 0-473-224-473-580 0-354 195-576 474-576 218 0 287 134 324 193h20v-179h174V418zM604-137c203 0 314-172 314-421 0-247-108-413-314-413-212 0-317 181-317 413 0 235 108 421 317 421" id="J"/><g id="g"><use transform="matrix(0.01953125,0,0,0.01953125,0,0)" xlink:href="#H"/><use transform="matrix(0.01953125,0,0,0.01953125,25.6640625,0)" xlink:href="#I"/><use transform="matrix(0.01953125,0,0,0.01953125,48.984375,0)" xlink:href="#J"/><use transform="matrix(0.01953125,0,0,0.01953125,73.4765625,0)" xlink:href="#F"/><use transform="matrix(0.01953125,0,0,0.01953125,97.12890625,0)" xlink:href="#I"/><use transform="matrix(0.01953125,0,0,0.01953125,120.44921875,0)" xlink:href="#v"/><use transform="matrix(0.01953125,0,0,0.01953125,144.08203125,0)" xlink:href="#D"/><use transform="matrix(0.01953125,0,0,0.01953125,166.93359375,0)" xlink:href="#I"/></g><path d="M180 0v-1490h510c348 0 508 194 508 460 0 198-88 351-276 417L1256 0h-220L726-579c-117 2-238 0-356 1V0H180zm190-747h312c235 0 327-108 327-283 0-177-92-293-329-293H370v576" id="K"/><g id="h"><use transform="matrix(0.01953125,0,0,0.01953125,0,0)" xlink:href="#K"/><use transform="matrix(0.01953125,0,0,0.01953125,25.15625,0)" xlink:href="#I"/><use transform="matrix(0.01953125,0,0,0.01953125,48.4765625,0)" xlink:href="#q"/><use transform="matrix(0.01953125,0,0,0.01953125,58.1640625,0)" xlink:href="#I"/><use transform="matrix(0.01953125,0,0,0.01953125,81.875,0)" xlink:href="#u"/><use transform="matrix(0.01953125,0,0,0.01953125,104.3359375,0)" xlink:href="#w"/><use transform="matrix(0.01953125,0,0,0.01953125,125.44921875,0)" xlink:href="#I"/></g><path d="M784 20c-382 0-662-292-662-764 0-473 280-766 662-766s660 293 660 766c0 472-278 764-660 764zm0-176c266 0 475-207 475-588 0-383-209-590-475-590-268 0-477 208-477 590 0 380 209 588 477 588" id="L"/><path d="M677 24c-213 0-288-135-325-197h-20V0H158v-1490h180v551h14c37-59 106-193 324-193 279 0 474 222 474 576 0 356-194 580-473 580zm-27-161c209 0 317-186 317-421 0-232-105-413-317-413-206 0-314 166-314 413 0 249 111 421 314 421" id="M"/><g id="i"><use transform="matrix(0.01953125,0,0,0.01953125,0,0)" xlink:href="#L"/><use transform="matrix(0.01953125,0,0,0.01953125,30.5859375,0)" xlink:href="#M"/><use transform="matrix(0.01953125,0,0,0.01953125,55.078125,0)" xlink:href="#w"/><use transform="matrix(0.01953125,0,0,0.01953125,76.19140625,0)" xlink:href="#y"/><use transform="matrix(0.01953125,0,0,0.01953125,89.47265625,0)" xlink:href="#u"/><use transform="matrix(0.01953125,0,0,0.01953125,111.93359375,0)" xlink:href="#D"/><use transform="matrix(0.01953125,0,0,0.01953125,134.78515625,0)" xlink:href="#q"/><use transform="matrix(0.01953125,0,0,0.01953125,144.47265625,0)" xlink:href="#I"/></g><path d="M611 442c-248 0-391-105-460-228l146-94c47 65 117 165 314 165 178 0 307-82 307-266v-224h-17C863-141 792-18 576-18c-268 0-472-195-472-546 0-346 197-568 476-568 216 0 288 133 326 193h17v-179h175V29c0 289-215 413-487 413zm-5-620c203 0 314-146 314-390 0-237-108-403-314-403-213 0-319 180-319 403 0 230 109 390 319 390" id="N"/><g id="j"><use transform="matrix(0.01953125,0,0,0.01953125,0,0)" xlink:href="#s"/><use transform="matrix(0.01953125,0,0,0.01953125,23.5546875,0)" xlink:href="#t"/><use transform="matrix(0.01953125,0,0,0.01953125,39.23828125,0)" xlink:href="#x"/><use transform="matrix(0.01953125,0,0,0.01953125,48.92578125,0)" xlink:href="#N"/><use transform="matrix(0.01953125,0,0,0.01953125,73.45703125,0)" xlink:href="#N"/><use transform="matrix(0.01953125,0,0,0.01953125,97.98828125,0)" xlink:href="#I"/><use transform="matrix(0.01953125,0,0,0.01953125,121.30859375,0)" xlink:href="#t"/></g><path d="M158 418v-1536h174v179h20c37-59 106-193 324-193 279 0 474 222 474 576 0 356-194 580-473 580-213 0-288-135-325-197h-14v591H158zm492-555c209 0 317-186 317-421 0-232-105-413-317-413-206 0-314 166-314 413 0 249 111 421 314 421" id="O"/><g id="k"><use transform="matrix(0.01953125,0,0,0.01953125,0,0)" xlink:href="#K"/><use transform="matrix(0.01953125,0,0,0.01953125,25.15625,0)" xlink:href="#I"/><use transform="matrix(0.01953125,0,0,0.01953125,48.4765625,0)" xlink:href="#O"/><use transform="matrix(0.01953125,0,0,0.01953125,72.96875,0)" xlink:href="#q"/><use transform="matrix(0.01953125,0,0,0.01953125,82.65625,0)" xlink:href="#u"/><use transform="matrix(0.01953125,0,0,0.01953125,105.1171875,0)" xlink:href="#v"/></g><path d="M180 0v-1490h908v168H370v486h669v168H370v500h727V0H180" id="P"/><g id="l"><use transform="matrix(0.01953125,0,0,0.01953125,0,0)" xlink:href="#P"/><use transform="matrix(0.01953125,0,0,0.01953125,24.04296875,0)" xlink:href="#v"/><use transform="matrix(0.01953125,0,0,0.01953125,47.67578125,0)" xlink:href="#u"/><use transform="matrix(0.01953125,0,0,0.01953125,70.13671875,0)" xlink:href="#M"/><use transform="matrix(0.01953125,0,0,0.01953125,94.62890625,0)" xlink:href="#q"/><use transform="matrix(0.01953125,0,0,0.01953125,104.31640625,0)" xlink:href="#I"/></g><g id="m"><use transform="matrix(0.01953125,0,0,0.01953125,0,0)" xlink:href="#L"/><use transform="matrix(0.01953125,0,0,0.01953125,30.5859375,0)" xlink:href="#M"/><use transform="matrix(0.01953125,0,0,0.01953125,55.078125,0)" xlink:href="#w"/><use transform="matrix(0.01953125,0,0,0.01953125,76.19140625,0)" xlink:href="#y"/><use transform="matrix(0.01953125,0,0,0.01953125,89.47265625,0)" xlink:href="#u"/><use transform="matrix(0.01953125,0,0,0.01953125,111.93359375,0)" xlink:href="#D"/><use transform="matrix(0.01953125,0,0,0.01953125,134.78515625,0)" xlink:href="#q"/><use transform="matrix(0.01953125,0,0,0.01953125,144.47265625,0)" xlink:href="#I"/></g><path d="M140 405l46-156c120 36 205 19 263-150l32-93L54-1118h197c107 313 237 620 324 950 87-331 219-637 326-950h196L606 167c-68 178-176 259-334 259-64 0-113-12-132-21" id="Q"/><g id="n"><use transform="matrix(0.01953125,0,0,0.01953125,0,0)" xlink:href="#H"/><use transform="matrix(0.01953125,0,0,0.01953125,25.6640625,0)" xlink:href="#Q"/><use transform="matrix(0.01953125,0,0,0.01953125,48.14453125,0)" xlink:href="#v"/><use transform="matrix(0.01953125,0,0,0.01953125,71.77734375,0)" xlink:href="#D"/></g></defs></g></svg>